<?xml version="1.0" encoding="UTF-8" standalone="no"?>
<!-- Created with Inkscape (http://www.inkscape.org/) -->

<svg
   xmlns:dc="http://purl.org/dc/elements/1.1/"
   xmlns:cc="http://creativecommons.org/ns#"
   xmlns:rdf="http://www.w3.org/1999/02/22-rdf-syntax-ns#"
   xmlns:svg="http://www.w3.org/2000/svg"
   xmlns="http://www.w3.org/2000/svg"
   xmlns:sodipodi="http://sodipodi.sourceforge.net/DTD/sodipodi-0.dtd"
   xmlns:inkscape="http://www.inkscape.org/namespaces/inkscape"
   width="72.390762"
   height="63.340408"
   id="svg2"
   sodipodi:version="0.32"
   inkscape:version="0.91pre1 r13432"
   sodipodi:docname="coffee.svg"
   inkscape:output_extension="org.inkscape.output.svg.inkscape"
   version="1.1"
   viewBox="0 0 72.390761 63.340409">
  <defs
     id="defs4" />
  <sodipodi:namedview
     id="base"
     pagecolor="#ffffff"
     bordercolor="#666666"
     borderopacity="1.0"
     inkscape:pageopacity="0.0"
     inkscape:pageshadow="2"
     inkscape:zoom="0.67672329"
     inkscape:cx="253.01305"
     inkscape:cy="136.63357"
     inkscape:document-units="px"
     inkscape:current-layer="layer1"
     inkscape:window-width="1598"
     inkscape:window-height="879"
     inkscape:window-x="0"
     inkscape:window-y="19"
     showgrid="false"
     fit-margin-top="0"
     fit-margin-left="0"
     fit-margin-right="0"
     fit-margin-bottom="0"
     inkscape:window-maximized="0" />
  <metadata
     id="metadata7">
    <rdf:RDF>
      <cc:Work
         rdf:about="">
        <dc:format>image/svg+xml</dc:format>
        <dc:type
           rdf:resource="http://purl.org/dc/dcmitype/StillImage" />
        <dc:title></dc:title>
      </cc:Work>
    </rdf:RDF>
  </metadata>
  <g
     inkscape:label="Capa 1"
     inkscape:groupmode="layer"
     id="layer1"
     transform="translate(-357.83544,-506.60216)">
    <path
       style="fill:#d20000;fill-opacity:1;stroke:none;stroke-width:0.66222644;stroke-miterlimit:4;stroke-dasharray:none;stroke-opacity:1"
       inkscape:connector-curvature="0"
       d="m 415.72747,525.25356 -4.34229,0 0,-6.50923 c 0,-5.99178 -11.6529,-10.84921 -26.03597,-10.84921 -14.383,0 -26.03606,4.85743 -26.03606,10.84921 l 0,39.05685 c 0,5.9918 11.65306,10.84843 26.03606,10.84843 14.38307,0 26.03597,-4.85663 26.03597,-10.84843 l 0,-6.50999 4.34229,0 c 7.15793,0 13.02102,-5.85829 13.02102,-13.01842 0,-7.16093 -5.86309,-13.01921 -13.02102,-13.01921 z m -44.48051,-8.84195 c 3.93351,-1.29474 8.94147,-2.00728 14.10225,-2.00728 5.16676,0 10.16881,0.71098 14.10208,2.00728 2.50399,0.82629 4.02472,1.71262 4.84304,2.33272 -0.81832,0.62406 -2.33905,1.50568 -4.84304,2.33197 -3.93327,1.29471 -8.93532,2.00725 -14.10208,2.00725 -5.16078,0 -10.16874,-0.71096 -14.10225,-2.00725 -2.50383,-0.82629 -4.02464,-1.71185 -4.83687,-2.33197 0.81223,-0.62405 2.33304,-1.50643 4.83687,-2.33272 z m 49.38478,25.68295 c -0.61064,0.60036 -1.88713,1.60202 -3.81706,1.60202 l -5.4295,0 0,-10.84843 5.4295,0 c 1.92993,0 3.21844,1.00404 3.81706,1.60283 0.61062,0.60036 1.60628,1.89114 1.60628,3.82179 0,1.93065 -1.00781,3.223 -1.60628,3.82179 z"
       id="path77680-0-6-6" />
  </g>
</svg>
