<?xml version="1.0" encoding="UTF-8" standalone="no"?>
<!-- Created with Inkscape (http://www.inkscape.org/) -->

<svg
   xmlns:dc="http://purl.org/dc/elements/1.1/"
   xmlns:cc="http://creativecommons.org/ns#"
   xmlns:rdf="http://www.w3.org/1999/02/22-rdf-syntax-ns#"
   xmlns:svg="http://www.w3.org/2000/svg"
   xmlns="http://www.w3.org/2000/svg"
   xmlns:sodipodi="http://sodipodi.sourceforge.net/DTD/sodipodi-0.dtd"
   xmlns:inkscape="http://www.inkscape.org/namespaces/inkscape"
   width="60.205589"
   height="75.016541"
   id="svg2"
   sodipodi:version="0.32"
   inkscape:version="0.91pre1 r13432"
   sodipodi:docname="debian.svg"
   inkscape:output_extension="org.inkscape.output.svg.inkscape"
   version="1.1"
   viewBox="0 0 60.205588 75.016542">
  <defs
     id="defs4" />
  <sodipodi:namedview
     id="base"
     pagecolor="#ffffff"
     bordercolor="#666666"
     borderopacity="1.0"
     inkscape:pageopacity="0.0"
     inkscape:pageshadow="2"
     inkscape:zoom="0.92520762"
     inkscape:cx="70.58891"
     inkscape:cy="134.44856"
     inkscape:document-units="px"
     inkscape:current-layer="layer1"
     inkscape:window-width="1598"
     inkscape:window-height="879"
     inkscape:window-x="0"
     inkscape:window-y="19"
     showgrid="false"
     fit-margin-top="0"
     fit-margin-left="0"
     fit-margin-right="0"
     fit-margin-bottom="0"
     inkscape:window-maximized="0" />
  <metadata
     id="metadata7">
    <rdf:RDF>
      <cc:Work
         rdf:about="">
        <dc:format>image/svg+xml</dc:format>
        <dc:type
           rdf:resource="http://purl.org/dc/dcmitype/StillImage" />
        <dc:title></dc:title>
      </cc:Work>
    </rdf:RDF>
  </metadata>
  <g
     inkscape:label="Capa 1"
     inkscape:groupmode="layer"
     id="layer1"
     transform="translate(348.27944,-500.76474)">
    <g
       id="g8121-7-4-7"
       transform="matrix(1.0678055,0,0,1.0678055,127152.11,-19281.511)"
       style="fill:#ff2a2a;fill-opacity:1;stroke:none;stroke-width:3.73813486;stroke-miterlimit:4;stroke-dasharray:none;stroke-opacity:1">
      <path
         id="path8123-8-9-4"
         d="m -119370.4,18563.224 c -1.16,0.02 0.22,0.6 1.74,0.834 0.42,-0.328 0.8,-0.66 1.14,-0.982 -0.94,0.232 -1.91,0.236 -2.88,0.148"
         inkscape:connector-curvature="0"
         style="fill:#ff2a2a;fill-opacity:1;stroke:none;stroke-width:1.05498481;stroke-miterlimit:4;stroke-dasharray:none;stroke-opacity:1" />
      <path
         id="path8125-3-7-0"
         d="m -119364.15,18561.666 c 0.69,-0.956 1.2,-2.004 1.38,-3.087 -0.16,0.772 -0.58,1.439 -0.97,2.143 -2.18,1.369 -0.21,-0.814 0,-1.644 -2.34,2.945 -0.33,1.766 -0.41,2.588"
         inkscape:connector-curvature="0"
         style="fill:#ff2a2a;fill-opacity:1;stroke:none;stroke-width:1.05498481;stroke-miterlimit:4;stroke-dasharray:none;stroke-opacity:1" />
      <path
         id="path8127-3-8-2"
         d="m -119361.84,18555.665 c 0.14,-2.097 -0.42,-1.434 -0.6,-0.634 0.21,0.113 0.39,1.478 0.6,0.634"
         inkscape:connector-curvature="0"
         style="fill:#ff2a2a;fill-opacity:1;stroke:none;stroke-width:1.05498481;stroke-miterlimit:4;stroke-dasharray:none;stroke-opacity:1" />
      <path
         id="path8129-8-1-9"
         d="m -119374.81,18527.01 c 0.62,0.112 1.34,0.197 1.24,0.346 0.68,-0.149 0.83,-0.287 -1.24,-0.346"
         inkscape:connector-curvature="0"
         style="fill:#ff2a2a;fill-opacity:1;stroke:none;stroke-width:1.05498481;stroke-miterlimit:4;stroke-dasharray:none;stroke-opacity:1" />
      <path
         id="path8131-8-7-3"
         d="m -119373.57,18527.356 -0.44,0.09 0.41,-0.04 0,-0.05"
         inkscape:connector-curvature="0"
         style="fill:#ff2a2a;fill-opacity:1;stroke:none;stroke-width:1.05498481;stroke-miterlimit:4;stroke-dasharray:none;stroke-opacity:1" />
      <path
         id="path8133-3-8-3"
         d="m -119354.23,18556.468 c 0.1,1.879 -0.55,2.792 -1.11,4.406 l -1,0.501 c -0.83,1.597 0.1,1.014 -0.51,2.284 -1.3,1.141 -3.9,3.57 -4.74,3.792 -0.6,-0.01 0.41,-0.72 0.55,-0.997 -1.72,1.179 -1.38,1.77 -4.01,2.488 l -0.1,-0.172 c -6.48,3.048 -15.48,-2.992 -15.35,-11.235 -0.11,0.524 -0.21,0.393 -0.35,0.605 -0.34,-4.241 1.96,-8.5 5.82,-10.238 3.78,-1.874 8.22,-1.105 10.93,1.42 -1.49,-1.95 -4.45,-4.016 -7.96,-3.822 -3.44,0.05 -6.66,2.238 -7.74,4.612 -1.75,1.109 -1.96,4.275 -2.73,4.854 -1.02,7.591 1.95,10.871 6.98,14.728 0.79,0.533 0.21,0.616 0.32,1.022 -1.66,-0.783 -3.2,-1.965 -4.45,-3.413 0.67,0.978 1.38,1.929 2.33,2.677 -1.58,-0.535 -3.7,-3.822 -4.3,-3.956 2.71,4.867 11.03,8.535 15.38,6.715 -2.02,0.07 -4.58,0.04 -6.84,-0.794 -0.96,-0.489 -2.25,-1.503 -2.01,-1.691 5.93,2.217 12.07,1.679 17.22,-2.439 1.29,-1.019 2.72,-2.75 3.14,-2.775 -0.63,0.936 0.1,0.451 -0.37,1.276 1.29,-2.102 -0.57,-0.856 1.34,-3.629 l 0.71,0.973 c -0.26,-1.743 2.15,-3.861 1.92,-6.618 0.55,-0.844 0.62,0.906 0,2.847 0.82,-2.152 0.2,-2.498 0.42,-4.274 0.23,0.597 0.53,1.23 0.68,1.861 -0.53,-2.08 0.55,-3.504 0.82,-4.712 -0.27,-0.117 -0.83,0.92 -0.95,-1.537 0,-1.068 0.29,-0.56 0.39,-0.823 -0.2,-0.121 -0.75,-0.937 -1.09,-2.506 0.25,-0.369 0.66,0.955 0.99,1.01 -0.22,-1.249 -0.58,-2.2 -0.6,-3.156 -0.96,-2.015 -0.34,0.268 -1.12,-0.865 -1.03,-3.2 0.86,-0.744 0.98,-2.197 1.56,2.253 2.43,5.744 2.84,7.192 -0.31,-1.766 -0.81,-3.472 -1.42,-5.125 0.47,0.198 -0.76,-3.627 0.61,-1.093 -1.47,-5.402 -6.27,-10.451 -10.71,-12.818 0.55,0.495 1.22,1.119 0.98,1.216 -2.2,-1.311 -1.82,-1.414 -2.13,-1.967 -1.8,-0.731 -1.92,0.06 -3.1,0 -3.39,-1.794 -4.04,-1.603 -7.15,-2.728 l 0.15,0.661 c -2.24,-0.745 -2.61,0.284 -5.05,0 -0.14,-0.115 0.79,-0.416 1.54,-0.527 -2.15,0.285 -2.06,-0.428 -4.18,0.08 0.53,-0.367 1.07,-0.608 1.63,-0.921 -1.77,0.107 -4.21,1.029 -3.46,0.191 -2.88,1.287 -8,3.092 -10.88,5.785 l -0.1,-0.603 c -1.32,1.58 -5.73,4.718 -6.08,6.765 l -0.35,0.08 c -0.7,1.16 -1.13,2.475 -1.67,3.667 -0.91,1.527 -1.32,0.589 -1.2,0.827 -1.76,3.572 -2.63,6.573 -3.38,9.035 0.54,0.805 0,4.848 0.2,8.083 -0.87,15.977 11.23,31.489 24.45,35.07 1.93,0.693 4.82,0.666 7.27,0.738 -2.89,-0.827 -3.27,-0.437 -6.09,-1.421 -2.02,-0.958 -2.47,-2.05 -3.91,-3.3 l 0.57,1.008 c -2.83,-0.999 -1.65,-1.237 -3.95,-1.965 l 0.62,-0.794 c -0.93,-0.07 -2.44,-1.543 -2.84,-2.358 l -1,0.04 c -1.21,-1.485 -1.84,-2.554 -1.79,-3.383 l -0.33,0.577 c -0.37,-0.629 -4.42,-5.567 -2.32,-4.418 -0.39,-0.357 -0.91,-0.581 -1.48,-1.606 l 0.42,-0.49 c -0.99,-1.304 -1.85,-2.976 -1.78,-3.531 0.53,0.73 0.91,0.866 1.28,0.991 -2.57,-6.35 -2.7,-0.349 -4.64,-6.464 l 0.41,-0.03 c -0.32,-0.474 -0.5,-0.989 -0.76,-1.494 l 0.18,-1.777 c -1.84,-2.13 -0.52,-9.059 -0.25,-12.858 0.17,-1.545 1.54,-3.19 2.57,-5.77 l -0.63,-0.108 c 1.2,-2.091 6.85,-8.4 9.46,-8.075 1.27,-1.593 -0.25,0 -0.5,-0.406 2.79,-2.881 3.66,-2.036 5.53,-2.553 2.02,-1.204 -1.73,0.469 -0.77,-0.458 3.5,-0.896 2.48,-2.035 7.05,-2.489 0.49,0.276 -1.12,0.423 -1.53,0.781 2.93,-1.428 9.25,-1.104 13.34,0.791 4.77,2.224 10.11,8.799 10.32,14.985 l 0.24,0.06 c -0.12,2.459 0.37,5.303 -0.48,7.915 l 0.58,-1.236"
         inkscape:connector-curvature="0"
         style="fill:#ff2a2a;fill-opacity:1;stroke:none;stroke-width:1.05498481;stroke-miterlimit:4;stroke-dasharray:none;stroke-opacity:1" />
      <path
         id="path8135-2-4-2"
         d="m -119383.11,18564.822 -0.16,0.816 c 0.77,1.04 1.37,2.166 2.35,2.978 -0.7,-1.372 -1.22,-1.939 -2.19,-3.794"
         inkscape:connector-curvature="0"
         style="fill:#ff2a2a;fill-opacity:1;stroke:none;stroke-width:1.05498481;stroke-miterlimit:4;stroke-dasharray:none;stroke-opacity:1" />
      <path
         id="path8137-6-8-8"
         d="m -119381.3,18564.751 c -0.4,-0.448 -0.64,-0.987 -0.91,-1.524 0.26,0.944 0.78,1.755 1.27,2.58 l -0.36,-1.056"
         inkscape:connector-curvature="0"
         style="fill:#ff2a2a;fill-opacity:1;stroke:none;stroke-width:1.05498481;stroke-miterlimit:4;stroke-dasharray:none;stroke-opacity:1" />
      <path
         id="path8139-8-8-7"
         d="m -119349.29,18557.794 -0.17,0.429 c -0.31,2.228 -0.99,4.431 -2.03,6.475 1.15,-2.156 1.89,-4.514 2.2,-6.904"
         inkscape:connector-curvature="0"
         style="fill:#ff2a2a;fill-opacity:1;stroke:none;stroke-width:1.05498481;stroke-miterlimit:4;stroke-dasharray:none;stroke-opacity:1" />
      <path
         id="path8141-8-8-4"
         d="m -119374.58,18526.452 c 0.78,-0.289 1.93,-0.158 2.77,-0.348 -1.09,0.09 -2.17,0.146 -3.24,0.283 l 0.47,0.07"
         inkscape:connector-curvature="0"
         style="fill:#ff2a2a;fill-opacity:1;stroke:none;stroke-width:1.05498481;stroke-miterlimit:4;stroke-dasharray:none;stroke-opacity:1" />
      <path
         id="path8143-8-9-0"
         d="m -119402.22,18541.146 c 0.18,1.68 -1.26,2.331 0.32,1.224 0.85,-1.911 -0.33,-0.528 -0.32,-1.224"
         inkscape:connector-curvature="0"
         style="fill:#ff2a2a;fill-opacity:1;stroke:none;stroke-width:1.05498481;stroke-miterlimit:4;stroke-dasharray:none;stroke-opacity:1" />
      <path
         id="path8145-4-5-7"
         d="m -119404.08,18548.918 c 0.37,-1.12 0.43,-1.792 0.57,-2.44 -1.01,1.289 -0.46,1.563 -0.57,2.44"
         inkscape:connector-curvature="0"
         style="fill:#ff2a2a;fill-opacity:1;stroke:none;stroke-width:1.05498481;stroke-miterlimit:4;stroke-dasharray:none;stroke-opacity:1" />
    </g>
  </g>
</svg>
