<?xml version="1.0" encoding="UTF-8" standalone="no"?>
<!-- Created with Inkscape (http://www.inkscape.org/) -->

<svg
   xmlns:dc="http://purl.org/dc/elements/1.1/"
   xmlns:cc="http://creativecommons.org/ns#"
   xmlns:rdf="http://www.w3.org/1999/02/22-rdf-syntax-ns#"
   xmlns:svg="http://www.w3.org/2000/svg"
   xmlns="http://www.w3.org/2000/svg"
   xmlns:sodipodi="http://sodipodi.sourceforge.net/DTD/sodipodi-0.dtd"
   xmlns:inkscape="http://www.inkscape.org/namespaces/inkscape"
   width="84.93425"
   height="71.042656"
   id="svg2"
   sodipodi:version="0.32"
   inkscape:version="0.91pre1 r13432"
   sodipodi:docname="driving.svg"
   inkscape:output_extension="org.inkscape.output.svg.inkscape"
   version="1.1"
   viewBox="0 0 84.934248 71.042657">
  <defs
     id="defs4" />
  <sodipodi:namedview
     id="base"
     pagecolor="#ffffff"
     bordercolor="#666666"
     borderopacity="1.0"
     inkscape:pageopacity="0.0"
     inkscape:pageshadow="2"
     inkscape:zoom="2.6168823"
     inkscape:cx="126.62749"
     inkscape:cy="-18.202474"
     inkscape:document-units="px"
     inkscape:current-layer="layer1"
     inkscape:window-width="1598"
     inkscape:window-height="879"
     inkscape:window-x="0"
     inkscape:window-y="19"
     showgrid="false"
     fit-margin-top="0"
     fit-margin-left="0"
     fit-margin-right="0"
     fit-margin-bottom="0"
     inkscape:window-maximized="0" />
  <metadata
     id="metadata7">
    <rdf:RDF>
      <cc:Work
         rdf:about="">
        <dc:format>image/svg+xml</dc:format>
        <dc:type
           rdf:resource="http://purl.org/dc/dcmitype/StillImage" />
        <dc:title></dc:title>
      </cc:Work>
    </rdf:RDF>
  </metadata>
  <g
     inkscape:label="Capa 1"
     inkscape:groupmode="layer"
     id="layer1"
     transform="translate(-723.96858,-502.75113)">
    <path
       inkscape:connector-curvature="0"
       style="fill:#ff2a2a;fill-opacity:1;stroke:none;stroke-width:0.66173661;stroke-miterlimit:4;stroke-dasharray:none;stroke-opacity:1"
       d="m 748.66505,503.79603 c -5.20353,0 -7.96599,2.84328 -9.23938,6.17017 l -6.7672,17.47458 c -2.68804,0.34372 -7.44067,3.49315 -7.44067,9.4595 l 0,22.22273 6.5876,0 0,7.10702 c 0,8.74328 12.37242,8.64018 12.37242,0 l 0,-7.10702 22.26077,0 0,0 22.25452,0 0,7.10702 c 0,8.64018 12.37889,8.74328 12.37889,0 l 0,-7.10702 6.58161,0 0,-22.22273 c 0,-5.96635 -4.75263,-9.11578 -7.4345,-9.4595 l -6.77385,-17.47458 c -1.27928,-3.32689 -4.04113,-6.17017 -9.24489,-6.17017 l -9.56686,0 -16.2905,0 -9.68388,0 z m -0.0639,6.3644 17.83579,0 0,0 0,0 17.84207,0 c 2.23088,0.08 3.1889,1.41566 3.82503,3.34769 l 5.09857,13.75202 -26.76567,0 0,0 0,0 -26.75967,0 5.10482,-13.75202 c 0.63628,-1.93203 1.58863,-3.32689 3.81906,-3.34769 z m -10.39451,23.78787 c 3.1576,0 5.71591,2.63543 5.71591,5.8888 0,3.25335 -2.55831,5.8944 -5.71591,5.8944 -3.15823,0 -5.71678,-2.64105 -5.71678,-5.8944 0,-3.25337 2.55855,-5.8888 5.71678,-5.8888 z m 56.50444,0 c 3.1511,0 5.71015,2.63543 5.71015,5.8888 0,3.25335 -2.55905,5.8944 -5.71015,5.8944 -3.15826,0 -5.72344,-2.64105 -5.72344,-5.8944 0,-3.25337 2.56518,-5.8888 5.72344,-5.8888 z"
       id="path2301-7-1-3" />
  </g>
</svg>
