<?xml version="1.0" encoding="UTF-8" standalone="no"?>
<!-- Generator: Adobe Illustrator 18.0.0, SVG Export Plug-In . SVG Version: 6.00 Build 0)  -->

<svg
   xmlns:dc="http://purl.org/dc/elements/1.1/"
   xmlns:cc="http://creativecommons.org/ns#"
   xmlns:rdf="http://www.w3.org/1999/02/22-rdf-syntax-ns#"
   xmlns:svg="http://www.w3.org/2000/svg"
   xmlns="http://www.w3.org/2000/svg"
   xmlns:sodipodi="http://sodipodi.sourceforge.net/DTD/sodipodi-0.dtd"
   xmlns:inkscape="http://www.inkscape.org/namespaces/inkscape"
   version="1.1"
   id="Layer_1"
   x="0px"
   y="0px"
   viewBox="0 0 300 300"
   enable-background="new 0 0 2160 2880"
   xml:space="preserve"
   inkscape:version="0.91pre1 r13432"
   sodipodi:docname="drupal.svg"
   width="300"
   height="300"><metadata
     id="metadata5592"><rdf:RDF><cc:Work
         rdf:about=""><dc:format>image/svg+xml</dc:format><dc:type
           rdf:resource="http://purl.org/dc/dcmitype/StillImage" /><dc:title></dc:title></cc:Work></rdf:RDF></metadata><defs
     id="defs5590" /><sodipodi:namedview
     pagecolor="#ffffff"
     bordercolor="#666666"
     borderopacity="1"
     objecttolerance="10"
     gridtolerance="10"
     guidetolerance="10"
     inkscape:pageopacity="0"
     inkscape:pageshadow="2"
     inkscape:window-width="1598"
     inkscape:window-height="879"
     id="namedview5588"
     showgrid="false"
     inkscape:zoom="0.15843918"
     inkscape:cx="1017.3448"
     inkscape:cy="988.0604"
     inkscape:window-x="0"
     inkscape:window-y="19"
     inkscape:window-maximized="0"
     inkscape:current-layer="Layer_1" /><path
     d="M 255.25194,44.74806 C 227.1075,16.6036 189.73334,1 150,1 67.925834,1 1,67.92583 1,150 1,232.07417 67.925834,299 150,299 232.07417,299 299,232.07417 299,150 299,110.26666 283.3964,72.8925 255.25194,44.74806 Z M 150,246.72583 c -44.93453,0 -81.591295,-36.65677 -81.591295,-81.5913 0,-38.07777 25.536942,-63.61472 48.011105,-86.08889 14.9,-14.9 29.33094,-29.33092 33.58019,-45.40359 4.26306,16.08648 18.44564,30.50359 33.58019,45.40359 22.47417,22.47417 48.01111,48.01112 48.01111,86.08889 0,44.93453 -36.65677,81.5913 -81.5913,81.5913 z"
     id="path5586"
     inkscape:connector-curvature="0"
     style="fill:#ffffff" /></svg>