<?xml version="1.0" encoding="UTF-8" standalone="no"?>
<!-- Created with Inkscape (http://www.inkscape.org/) -->

<svg
   xmlns:dc="http://purl.org/dc/elements/1.1/"
   xmlns:cc="http://creativecommons.org/ns#"
   xmlns:rdf="http://www.w3.org/1999/02/22-rdf-syntax-ns#"
   xmlns:svg="http://www.w3.org/2000/svg"
   xmlns="http://www.w3.org/2000/svg"
   xmlns:sodipodi="http://sodipodi.sourceforge.net/DTD/sodipodi-0.dtd"
   xmlns:inkscape="http://www.inkscape.org/namespaces/inkscape"
   width="170"
   height="170"
   id="svg2"
   sodipodi:version="0.32"
   inkscape:version="0.91pre1 r13432"
   sodipodi:docname="formation.svg"
   inkscape:output_extension="org.inkscape.output.svg.inkscape"
   version="1.1"
   viewBox="0 0 169.99998 170.00001">
  <defs
     id="defs4" />
  <sodipodi:namedview
     id="base"
     pagecolor="#ffffff"
     bordercolor="#666666"
     borderopacity="1.0"
     inkscape:pageopacity="0.0"
     inkscape:pageshadow="2"
     inkscape:zoom="0.47851563"
     inkscape:cx="-7.7189926"
     inkscape:cy="204.87502"
     inkscape:document-units="px"
     inkscape:current-layer="layer1"
     inkscape:window-width="906"
     inkscape:window-height="879"
     inkscape:window-x="0"
     inkscape:window-y="19"
     showgrid="false"
     fit-margin-top="0"
     fit-margin-left="0"
     fit-margin-right="0"
     fit-margin-bottom="0"
     inkscape:window-maximized="0" />
  <metadata
     id="metadata7">
    <rdf:RDF>
      <cc:Work
         rdf:about="">
        <dc:format>image/svg+xml</dc:format>
        <dc:type
           rdf:resource="http://purl.org/dc/dcmitype/StillImage" />
        <dc:title></dc:title>
      </cc:Work>
    </rdf:RDF>
  </metadata>
  <g
     inkscape:label="Capa 1"
     inkscape:groupmode="layer"
     id="layer1"
     transform="translate(-664.56769,297.88669)">
    <g
       transform="matrix(3.5433071,0,0,3.5433071,-134.84292,-1678.145)"
       id="g7827">
      <path
         d="m 244.62996,427.37227 -5.6956,8.7411 c -0.14217,0.218 -0.0804,0.5101 0.13759,0.652 0.0797,0.052 0.16862,0.077 0.25682,0.077 0.15381,0 0.3048,-0.075 0.39546,-0.2138 l 6.03074,-9.2558 -1.12501,0 z"
         style="fill:#666666;fill-opacity:1;fill-rule:nonzero;stroke:none"
         id="path21206-2-6-4-8"
         inkscape:connector-curvature="0" />
      <path
         d="m 264.79852,422.47877 c 0,-0.2953 -0.09,-0.5697 -0.24342,-0.7973 -0.15381,-0.2279 -0.37182,-0.4085 -0.62759,-0.5168 -0.17074,-0.072 -0.35842,-0.1122 -0.55527,-0.1122 l -27.54383,0 c -0.29563,0 -0.56974,0.09 -0.79763,0.2438 -0.0759,0.051 -0.14641,0.1093 -0.21096,0.1739 -0.12912,0.1291 -0.23354,0.2829 -0.30551,0.4533 -0.0723,0.1708 -0.11218,0.3584 -0.11218,0.5553 l 0,0.2903 c 0,0.6319 0.16016,1.2263 0.44167,1.7449 0.62019,1.1412 1.82916,1.9159 3.2191,1.9159 l 23.07449,0 c 1.01106,0 1.92652,-0.4096 2.58904,-1.0721 0.66216,-0.6625 1.07209,-1.578 1.07209,-2.5887 l 0,-0.2903 z"
         style="fill:#666666;fill-opacity:1;fill-rule:nonzero;stroke:none"
         id="path21210-7-4-1-0"
         inkscape:connector-curvature="0" />
      <path
         d="m 254.57068,427.37227 -1.12501,0 2.65395,4.0732 -6.02827,0 0,-4.0732 -0.94227,0 0,4.0732 -3.76449,0 c -0.26035,0 -0.47131,0.2113 -0.47131,0.4713 0,0.2603 0.21096,0.4713 0.47131,0.4713 l 3.76449,0 0,3.9825 c 0,0.2604 0.21096,0.4713 0.47131,0.4713 0.26035,0 0.47096,-0.2109 0.47096,-0.4713 l 0,-3.9825 6.64246,0 2.7626,4.24 c 0.0907,0.1383 0.24165,0.2138 0.39546,0.2138 0.0882,0 0.1771,-0.025 0.25682,-0.077 0.21802,-0.1419 0.27976,-0.434 0.13759,-0.652 l -5.6956,-8.7411 z"
         style="fill:#666666;fill-opacity:1;fill-rule:nonzero;stroke:none"
         id="path21214-7-8-9-5"
         inkscape:connector-curvature="0" />
      <path
         d="m 262.38146,394.14687 -6.30238,0 0,2.5107 c 0,0.26 -0.2106,0.471 -0.47095,0.471 l -12.01562,0 c -0.26035,0 -0.47095,-0.211 -0.47095,-0.471 l 0,-2.5107 -6.30238,0 c -0.26035,0 -0.47096,0.211 -0.47096,0.471 l 0,25.4924 26.5042,0 0,-25.4924 c 0,-0.26 -0.21061,-0.471 -0.47096,-0.471"
         style="fill:#b3b3b3;fill-opacity:1;fill-rule:nonzero;stroke:none"
         id="path21218-2-9-3-2"
         inkscape:connector-curvature="0" />
      <path
         d="m 249.60032,391.15687 c 0.53587,0 0.97155,0.4357 0.97155,0.9716 0,0.5355 -0.43568,0.9715 -0.97155,0.9715 -0.53587,0 -0.97155,-0.436 -0.97155,-0.9715 0,-0.5359 0.43568,-0.9716 0.97155,-0.9716 m 1.90465,0.7909 c -0.0914,-0.9708 -0.91017,-1.7332 -1.90465,-1.7332 -0.99448,0 -1.81328,0.7624 -1.90465,1.7332 l -3.63184,0 0,4.2387 11.07298,0 0,-4.2387 -3.63184,0 z"
         style="fill:#666666;fill-opacity:1;fill-rule:nonzero;stroke:none"
         id="path21222-1-3-8-1"
         inkscape:connector-curvature="0" />
    </g>
  </g>
</svg>
