<?xml version="1.0" encoding="UTF-8" standalone="no"?>
<!-- Created with Inkscape (http://www.inkscape.org/) -->

<svg
   xmlns:dc="http://purl.org/dc/elements/1.1/"
   xmlns:cc="http://creativecommons.org/ns#"
   xmlns:rdf="http://www.w3.org/1999/02/22-rdf-syntax-ns#"
   xmlns:svg="http://www.w3.org/2000/svg"
   xmlns="http://www.w3.org/2000/svg"
   xmlns:sodipodi="http://sodipodi.sourceforge.net/DTD/sodipodi-0.dtd"
   xmlns:inkscape="http://www.inkscape.org/namespaces/inkscape"
   width="170"
   height="170"
   id="svg2"
   sodipodi:version="0.32"
   inkscape:version="0.91pre1 r13432"
   sodipodi:docname="graphic.svg"
   inkscape:output_extension="org.inkscape.output.svg.inkscape"
   version="1.1"
   viewBox="0 0 169.99998 170.00001">
  <defs
     id="defs4" />
  <sodipodi:namedview
     id="base"
     pagecolor="#ffffff"
     bordercolor="#666666"
     borderopacity="1.0"
     inkscape:pageopacity="0.0"
     inkscape:pageshadow="2"
     inkscape:zoom="0.47851563"
     inkscape:cx="218.45543"
     inkscape:cy="-7.5317727"
     inkscape:document-units="px"
     inkscape:current-layer="layer1"
     inkscape:window-width="1598"
     inkscape:window-height="879"
     inkscape:window-x="0"
     inkscape:window-y="19"
     showgrid="false"
     fit-margin-top="0"
     fit-margin-left="0"
     fit-margin-right="0"
     fit-margin-bottom="0"
     inkscape:window-maximized="0" />
  <metadata
     id="metadata7">
    <rdf:RDF>
      <cc:Work
         rdf:about="">
        <dc:format>image/svg+xml</dc:format>
        <dc:type
           rdf:resource="http://purl.org/dc/dcmitype/StillImage" />
        <dc:title></dc:title>
      </cc:Work>
    </rdf:RDF>
  </metadata>
  <g
     inkscape:label="Capa 1"
     inkscape:groupmode="layer"
     id="layer1"
     transform="translate(-664.56769,297.88669)">
    <g
       transform="matrix(3.5433071,0,0,3.5433071,339.75239,-3354.9244)"
       id="g22132">
      <path
         d="m 107.52334,887.49806 -1.86231,1.8623 1.65029,1.6503 c 0.18415,0.1838 0.18415,0.4823 0,0.6661 -0.0921,0.092 -0.21237,0.1382 -0.33302,0.1382 -0.12065,0 -0.2413,-0.046 -0.33302,-0.1382 l -1.65065,-1.65 -2.0253,2.0253 2.55376,2.5541 c 0.18415,0.1838 0.18415,0.4823 0,0.6661 -0.0917,0.092 -0.21237,0.1379 -0.33302,0.1379 -0.12065,0 -0.2413,-0.046 -0.33302,-0.1379 l -2.55412,-2.5538 -5.33858,5.3386 c -0.18415,0.1841 -0.18415,0.4826 0,0.6664 l 6.7243,6.7243 c 0.0917,0.092 0.21237,0.1379 0.33302,0.1379 0.12065,0 0.2413,-0.046 0.33302,-0.1379 l 10.55934,-10.559 -7.39069,-7.3907 z"
         style="fill:#f89592;fill-opacity:1;fill-rule:nonzero;stroke:none"
         id="path20906-8-4"
         inkscape:connector-curvature="0" />
      <path
         d="m 121.34105,879.25946 c -0.12065,0 -0.2413,-0.046 -0.33302,-0.1379 l -2.55411,-2.5541 -1.80693,1.8072 7.39069,7.3904 10.31593,-10.316 c 0.18415,-0.1841 0.18415,-0.4822 0,-0.6664 l -6.7243,-6.7242 c -0.18379,-0.1838 -0.48224,-0.1838 -0.66604,0 l -2.45957,2.4592 1.65065,1.6503 c 0.1838,0.1838 0.18415,0.4822 0,0.6664 -0.0921,0.092 -0.21272,0.1379 -0.33337,0.1379 -0.12065,0 -0.24095,-0.046 -0.33303,-0.1379 l -1.65029,-1.6503 -2.02565,2.0253 1.65029,1.6503 c 0.18415,0.1841 0.18415,0.4826 0,0.6664 -0.0921,0.092 -0.21237,0.1379 -0.33302,0.1379 -0.12065,0 -0.2413,-0.046 -0.33302,-0.1379 l -1.65065,-1.6503 -2.0253,2.0256 2.55376,2.5538 c 0.18415,0.1841 0.18415,0.4822 0,0.6664 -0.0917,0.092 -0.21237,0.1379 -0.33302,0.1379"
         style="fill:#f89592;fill-opacity:1;fill-rule:nonzero;stroke:none"
         id="path20910-6-8"
         inkscape:connector-curvature="0" />
      <path
         d="m 104.75143,898.91646 c 0,0.6936 -0.56233,1.2559 -1.25589,1.2559 -0.69356,0 -1.25589,-0.5623 -1.25589,-1.2559 0,-0.6936 0.56233,-1.2559 1.25589,-1.2559 0.69356,0 1.25589,0.5623 1.25589,1.2559"
         style="fill:#ffffff;fill-opacity:1;fill-rule:nonzero;stroke:none"
         id="path20914-9-2"
         inkscape:connector-curvature="0" />
      <path
         d="m 121.51045,888.02016 c -0.17286,0.1729 -0.45297,0.1725 -0.62583,0 l -11.63038,-11.6336 c -1.02552,-1.0255 -2.70545,-1.0777 -3.73697,-0.058 -0.007,0.01 -0.0148,0.014 -0.0222,0.022 -0.007,0.01 -0.0138,0.014 -0.0205,0.021 -1.01988,1.0312 -0.96767,2.7115 0.0579,3.737 l 3.49708,3.4971 c 0.004,0 0.01,0 0.0138,0.01 l 4.09081,4.0904 c 0.17287,0.1729 0.17287,0.453 0,0.6258 -0.0864,0.087 -0.19967,0.1295 -0.31291,0.1295 -0.11324,0 -0.22613,-0.043 -0.31256,-0.1295 l -8.3051,-8.3001 c -0.40887,-0.4092 -1.00929,-0.5433 -1.54622,-0.3648 l -2.09868,-5.1343 3.11397,-3.1239 5.1361,2.0994 c -0.18592,0.5288 -0.0582,1.1247 0.34607,1.529 l 12.35569,12.3585 c 0.17251,0.1728 0.17286,0.4529 0,0.6258 m 10.64578,7.16 -0.6664,-0.6664 c -0.0702,0.4484 -0.27693,0.8625 -0.60431,1.1895 l -4.42172,4.4218 c -0.17251,0.1728 -0.45296,0.1725 -0.62547,0 -0.17286,-0.1729 -0.17286,-0.453 -3.5e-4,-0.6259 l 4.42171,-4.4217 c 0.2413,-0.2413 0.3743,-0.5616 0.3743,-0.9031 0,-0.3101 -0.11465,-0.6001 -0.31609,-0.8322 l -2.41512,-2.4155 c -0.01,-0.01 -0.0215,-0.016 -0.0317,-0.026 l -17.72532,-17.7257 -0.001,0 -0.0589,-0.059 c -0.0293,-0.029 -0.0624,-0.051 -0.0945,-0.074 -0.049,-0.064 -0.11395,-0.1182 -0.19438,-0.151 l -12.07876,-4.9371 c -0.17569,-0.072 -0.37712,-0.031 -0.51118,0.103 -0.13441,0.1341 -0.17498,0.3355 -0.10301,0.5112 l 4.94383,12.0946 c 0.0289,0.071 0.0765,0.1274 0.13088,0.1743 0.0251,0.036 0.0494,0.072 0.0818,0.1044 l 5.06872,5.0687 0,0 15.14122,15.1413 c 0.01,0.01 0.0215,0.016 0.0314,0.026 l 1.82774,1.8278 c 2.16147,2.1611 5.66526,2.1611 7.82673,0 2.16111,-2.1612 2.16111,-5.6653 0,-7.8264"
         style="fill:#f4534e;fill-opacity:1;fill-rule:nonzero;stroke:none"
         id="path20918-8-7"
         inkscape:connector-curvature="0" />
    </g>
  </g>
</svg>
