<?xml version="1.0" encoding="UTF-8" standalone="no"?>
<!-- Created with Inkscape (http://www.inkscape.org/) -->

<svg
   xmlns:dc="http://purl.org/dc/elements/1.1/"
   xmlns:cc="http://creativecommons.org/ns#"
   xmlns:rdf="http://www.w3.org/1999/02/22-rdf-syntax-ns#"
   xmlns:svg="http://www.w3.org/2000/svg"
   xmlns="http://www.w3.org/2000/svg"
   xmlns:sodipodi="http://sodipodi.sourceforge.net/DTD/sodipodi-0.dtd"
   xmlns:inkscape="http://www.inkscape.org/namespaces/inkscape"
   width="170"
   height="170"
   id="svg2"
   sodipodi:version="0.32"
   inkscape:version="0.91pre1 r13432"
   sodipodi:docname="graphic.svg"
   inkscape:output_extension="org.inkscape.output.svg.inkscape"
   version="1.1"
   viewBox="0 0 169.99998 170.00001">
  <defs
     id="defs4" />
  <sodipodi:namedview
     id="base"
     pagecolor="#ffffff"
     bordercolor="#666666"
     borderopacity="1.0"
     inkscape:pageopacity="0.0"
     inkscape:pageshadow="2"
     inkscape:zoom="0.67672329"
     inkscape:cx="59.627302"
     inkscape:cy="-82.41526"
     inkscape:document-units="px"
     inkscape:current-layer="layer1"
     inkscape:window-width="906"
     inkscape:window-height="879"
     inkscape:window-x="0"
     inkscape:window-y="19"
     showgrid="false"
     fit-margin-top="0"
     fit-margin-left="0"
     fit-margin-right="0"
     fit-margin-bottom="0"
     inkscape:window-maximized="0" />
  <metadata
     id="metadata7">
    <rdf:RDF>
      <cc:Work
         rdf:about="">
        <dc:format>image/svg+xml</dc:format>
        <dc:type
           rdf:resource="http://purl.org/dc/dcmitype/StillImage" />
        <dc:title></dc:title>
      </cc:Work>
    </rdf:RDF>
  </metadata>
  <g
     inkscape:label="Capa 1"
     inkscape:groupmode="layer"
     id="layer1"
     transform="translate(-664.56769,297.88669)">
    <path
       style="fill:#b3b3b3;fill-opacity:1;fill-rule:nonzero;stroke:none"
       d="M 56.173828 87.640625 L 49.574219 94.238281 L 55.421875 100.08594 C 56.074375 100.7372 56.074375 101.79601 55.421875 102.44727 C 55.095535 102.77326 54.669687 102.9375 54.242188 102.9375 C 53.814688 102.9375 53.38749 102.77396 53.0625 102.44727 L 47.212891 96.599609 L 40.037109 103.77734 L 49.085938 112.82617 C 49.738437 113.47743 49.738437 114.53624 49.085938 115.1875 C 48.761018 115.51349 48.33375 115.67578 47.90625 115.67578 C 47.47875 115.67578 47.049599 115.51313 46.724609 115.1875 L 37.675781 106.13867 L 18.759766 125.05469 C 18.107266 125.70702 18.107266 126.76476 18.759766 127.41602 L 42.585938 151.24219 C 42.910857 151.56818 43.338125 151.73047 43.765625 151.73047 C 44.193125 151.73047 44.620323 151.56782 44.945312 151.24219 L 82.361328 113.82812 L 56.173828 87.640625 z M 41.900391 123.64844 C 44.35789 123.64844 46.351562 125.64197 46.351562 128.09961 C 46.351562 130.55725 44.35789 132.54883 41.900391 132.54883 C 39.442891 132.54883 37.451172 130.55725 37.451172 128.09961 C 37.451172 125.64197 39.442891 123.64844 41.900391 123.64844 z "
       transform="translate(664.56767,-297.88669)"
       id="path20906-8-4-3" />
    <path
       inkscape:connector-curvature="0"
       id="path20910-6-8-9"
       style="fill:#b3b3b3;fill-opacity:1;fill-rule:nonzero;stroke:none"
       d="m 769.70099,-239.43816 c -0.4275,0 -0.855,-0.16299 -1.17999,-0.48862 l -9.05,-9.04996 -6.4025,6.40347 26.18748,26.18645 36.55251,-36.55275 c 0.6525,-0.65233 0.6525,-1.70859 0,-2.36126 l -23.82626,-23.82591 c -0.65123,-0.65126 -1.70873,-0.65126 -2.35999,0 l -8.71501,8.7137 5.84876,5.84752 c 0.65126,0.65126 0.6525,1.70859 0,2.36126 -0.32634,0.32599 -0.75373,0.48862 -1.18123,0.48862 -0.4275,0 -0.85376,-0.16299 -1.18003,-0.48862 l -5.84748,-5.84752 -7.1775,7.17626 5.84748,5.84752 c 0.6525,0.65233 0.6525,1.71 0,2.36126 -0.32634,0.32599 -0.75249,0.48862 -1.17999,0.48862 -0.4275,0 -0.855,-0.16299 -1.17999,-0.48862 l -5.84876,-5.84752 -7.17626,7.17733 9.04875,9.04889 c 0.6525,0.65233 0.6525,1.70859 0,2.36126 -0.32492,0.32599 -0.75249,0.48862 -1.17999,0.48862" />
    <path
       inkscape:connector-curvature="0"
       id="path20918-8-7-8"
       style="fill:#666666;fill-opacity:1;fill-rule:nonzero;stroke:none"
       d="m 770.30123,-208.3963 c -0.6125,0.61263 -1.60501,0.61122 -2.21751,0 l -41.21001,-41.22142 c -3.63373,-3.63366 -9.58624,-3.81862 -13.24123,-0.20551 -0.0248,0.0354 -0.0524,0.0496 -0.0787,0.0779 -0.0248,0.0354 -0.0489,0.0496 -0.0726,0.0744 -3.61375,3.65386 -3.42875,9.60768 0.20516,13.24134 l 12.39123,12.3913 c 0.0142,0 0.0354,0 0.0489,0.0354 l 14.495,14.49354 c 0.61253,0.61264 0.61253,1.60512 0,2.2174 -0.30614,0.30827 -0.70749,0.45886 -1.10874,0.45886 -0.40124,0 -0.80124,-0.15236 -1.10749,-0.45886 l -29.42752,-29.4098 c -1.44875,-1.44992 -3.57623,-1.92508 -5.47873,-1.2926 l -7.43626,-18.1924 11.03374,-11.06894 18.19878,7.43882 c -0.65877,1.8737 -0.20622,3.98516 1.22623,5.41772 l 43.78001,43.78996 c 0.61125,0.61228 0.61249,1.60476 0,2.2174 m 37.72126,25.37008 -2.36126,-2.36126 c -0.24874,1.58882 -0.98124,3.0561 -2.14125,4.21476 l -15.66751,15.6678 c -0.61126,0.61228 -1.60498,0.61122 -2.21624,0 -0.61249,-0.61264 -0.61249,-1.60512 -0.001,-2.21776 l 15.66748,-15.66744 c 0.855,-0.855 1.32626,-1.98992 1.32626,-3.19996 0,-1.09878 -0.40624,-2.12634 -1.12,-2.94874 l -8.55752,-8.55886 c -0.0354,-0.0354 -0.0762,-0.0567 -0.11232,-0.0921 l -62.80625,-62.8076 -0.004,0 -0.2087,-0.20906 c -0.10382,-0.10275 -0.22111,-0.1807 -0.33485,-0.2622 -0.17362,-0.22677 -0.40376,-0.41882 -0.68875,-0.53504 l -42.79874,-17.49366 c -0.62253,-0.25512 -1.33626,-0.10984 -1.81127,0.36496 -0.47626,0.47516 -0.62001,1.18878 -0.365,1.81134 l 17.5175,42.85488 c 0.1024,0.25157 0.27107,0.45142 0.46375,0.6176 0.0889,0.12756 0.17504,0.25512 0.28984,0.36992 l 17.96003,17.95996 0,0 53.65,53.65028 c 0.0354,0.0354 0.0762,0.0567 0.11126,0.0921 l 6.47624,6.47646 c 7.65875,7.65744 20.07376,7.65744 27.73251,0 7.65748,-7.6578 7.65748,-20.0739 0,-27.73134" />
  </g>
</svg>
