<?xml version="1.0" encoding="UTF-8" standalone="no"?>
<!-- Created with Inkscape (http://www.inkscape.org/) -->

<svg
   xmlns:dc="http://purl.org/dc/elements/1.1/"
   xmlns:cc="http://creativecommons.org/ns#"
   xmlns:rdf="http://www.w3.org/1999/02/22-rdf-syntax-ns#"
   xmlns:svg="http://www.w3.org/2000/svg"
   xmlns="http://www.w3.org/2000/svg"
   xmlns:sodipodi="http://sodipodi.sourceforge.net/DTD/sodipodi-0.dtd"
   xmlns:inkscape="http://www.inkscape.org/namespaces/inkscape"
   width="344.17499"
   height="134.05385"
   id="svg2"
   sodipodi:version="0.32"
   inkscape:version="0.91pre1 r13432"
   sodipodi:docname="iune.svg"
   inkscape:output_extension="org.inkscape.output.svg.inkscape"
   version="1.1"
   viewBox="0 0 344.17498 134.05385">
  <defs
     id="defs4" />
  <sodipodi:namedview
     id="base"
     pagecolor="#ffffff"
     bordercolor="#666666"
     borderopacity="1.0"
     inkscape:pageopacity="0.0"
     inkscape:pageshadow="2"
     inkscape:zoom="1.3084412"
     inkscape:cx="118.21374"
     inkscape:cy="20.543424"
     inkscape:document-units="px"
     inkscape:current-layer="layer1"
     inkscape:window-width="1598"
     inkscape:window-height="879"
     inkscape:window-x="0"
     inkscape:window-y="19"
     showgrid="false"
     inkscape:window-maximized="0"
     fit-margin-top="0"
     fit-margin-left="0"
     fit-margin-right="0"
     fit-margin-bottom="0"
     borderlayer="true" />
  <metadata
     id="metadata7">
    <rdf:RDF>
      <cc:Work
         rdf:about="">
        <dc:format>image/svg+xml</dc:format>
        <dc:type
           rdf:resource="http://purl.org/dc/dcmitype/StillImage" />
        <dc:title></dc:title>
      </cc:Work>
    </rdf:RDF>
  </metadata>
  <g
     inkscape:label="Capa 1"
     inkscape:groupmode="layer"
     id="layer1"
     transform="translate(-364.43734,-457.62427)">
    <g
       transform="matrix(5.4014459,0,0,5.4014459,323.59159,-1256.6795)"
       id="g10530-6-1"
       inkscape:export-xdpi="90"
       inkscape:export-ydpi="90">
      <path
         style="color:#000000;font-style:normal;font-variant:normal;font-weight:normal;font-stretch:normal;font-size:medium;line-height:125%;font-family:Aquino;-inkscape-font-specification:Aquino;text-indent:0;text-align:start;text-decoration:none;text-decoration-line:none;letter-spacing:0px;word-spacing:0px;text-transform:none;direction:ltr;block-progression:tb;writing-mode:lr-tb;baseline-shift:baseline;text-anchor:start;visibility:visible;opacity:0.98999999;fill:#d40000;fill-opacity:1;fill-rule:nonzero;stroke:none;stroke-width:1px;stroke-linecap:butt;stroke-linejoin:miter;stroke-opacity:1;marker:none"
         d="m 58.721797,317.82555 c -2.090259,0.67064 -1.784101,4.09121 0.367022,4.41146 1.93356,0.51509 3.796054,-2.03762 2.451381,-3.60143 -0.601055,-0.84881 -1.834317,-1.22919 -2.818403,-0.81003 z m 0.285335,0.43443 c 1.359683,-0.51723 2.869365,1.0285 2.187329,2.32784 -0.485362,1.45581 -2.894935,1.43206 -3.312385,-0.0401 -0.355007,-0.89353 0.167968,-2.01114 1.125056,-2.28772 z"
         id="path4438-9-8-2-7"
         inkscape:connector-curvature="0"
         sodipodi:nodetypes="cccccccc" />
      <g
         style="opacity:0.98999999;fill:#ffffff"
         transform="matrix(0.66677924,0,0,0.66677924,-46.83155,69.642449)"
         id="layer1-3-3-8-9-5"
         inkscape:label="Capa 1">
        <g
           style="fill:#ffffff"
           inkscape:label="Capa 1"
           id="layer1-1-3-5-0-0"
           transform="matrix(0.89009352,0,0,0.89009352,177.89333,107.80395)">
          <g
             style="color:#000000;font-style:normal;font-variant:normal;font-weight:normal;font-stretch:normal;font-size:174.5438385px;line-height:125%;font-family:Lato;-inkscape-font-specification:Lato;text-indent:0;text-align:start;text-decoration:none;text-decoration-line:none;letter-spacing:0px;word-spacing:0px;text-transform:none;direction:ltr;block-progression:tb;writing-mode:lr-tb;baseline-shift:baseline;text-anchor:start;display:inline;overflow:visible;visibility:visible;fill:#ffffff;fill-opacity:1;fill-rule:nonzero;stroke:none;stroke-width:1px;stroke-linecap:butt;stroke-linejoin:miter;stroke-opacity:1;marker:none;enable-background:accumulate"
             id="text33400-8-0-4-7-8-1"
             transform="matrix(1.2227287,0,0,1.2227287,-106.1243,-131.23709)">
            <path
               d="m 4.568698,366.3481 c 0.1313604,-0.0657 0.4269233,-0.19704 0.886683,-0.39408 0.492602,-0.19704 0.9687843,-0.34482 1.428544,-0.44334 0.4597626,-0.0985 0.8538436,-0.0985 1.1822431,0 0.3284022,0.0657 0.4433429,0.36124 0.3448219,0.88668 -0.065682,0.29556 -0.2134616,0.59112 -0.4433401,0.88668 -0.1970419,0.29557 -0.3448219,0.59113 -0.4433429,0.88669 -0.1970391,0.42692 -0.394081,0.95236 -0.5911201,1.57632 -0.1641997,0.62397 -0.098521,1.13299 0.1970391,1.52707 0.5582836,0.0657 1.1658234,0 1.822625,-0.19704 0.6896411,-0.19704 1.313603,-0.39408 1.871887,-0.59113 0.1642,-0.0657 0.476182,-0.22987 0.935942,-0.4926 0.459763,-0.26272 0.935945,-0.50902 1.428544,-0.7389 0.525441,-0.26272 1.001624,-0.44334 1.428544,-0.54186 0.42692,-0.13136 0.689644,-0.0985 0.788165,0.0985 0.13136,0.22988 0.04926,0.47618 -0.246301,0.7389 -0.295563,0.26272 -0.673224,0.50902 -1.132984,0.7389 -0.42692,0.19704 -0.870263,0.39409 -1.330026,0.59112 -0.45976,0.1642 -0.75532,0.27915 -0.88668,0.34483 -0.722483,0.36124 -1.461386,0.72248 -2.216709,1.08372 -0.7224804,0.3284 -1.477803,0.55828 -2.2659651,0.68964 -0.689641,0.0985 -1.1658233,-0.0493 -1.4285468,-0.44334 -0.2627207,-0.39408 -0.394081,-0.88668 -0.394081,-1.4778 0,-0.62397 0.082101,-1.28077 0.246301,-1.97041 0.1970419,-0.72248 0.3940838,-1.37928 0.5911229,-1.97041 -0.7553226,0.29557 -1.4942256,0.57471 -2.216706,0.83743 -0.7224833,0.22988 -1.4285469,0.50902 -2.1181879,0.83742 -0.591123,0.26272 -1.18224306,0.55828 -1.77336598,0.88668 -0.36124163,0.0985 -0.640382,0.0164 -0.83742109,-0.2463 -0.22988129,-0.29556 -0.14778003,-0.54186 0.24630098,-0.7389 z m 5.763438,-9.95055 c 0.1642,-0.42692 0.410501,-0.78816 0.738903,-1.08372 1.540665,-0.63147 0.931514,2.86842 -0.394081,2.06892 -0.361242,-0.26272 -0.476182,-0.59112 -0.344822,-0.9852 z"
               style="font-style:normal;font-variant:normal;font-weight:normal;font-stretch:normal;font-family:'Notera Personal Use Only';-inkscape-font-specification:'Notera Personal Use Only';fill:#ffffff"
               id="path20973-4-5-7-8-1"
               inkscape:connector-curvature="0"
               sodipodi:nodetypes="ccsccccccccscccsccsccsscccccccccccc" />
            <path
               d="m 14.651635,368.71259 q 1.280764,-0.39408 2.512269,-0.93594 1.231502,-0.59112 2.463007,-1.13299 0.29556,-0.14778 0.886683,-0.54186 0.640382,-0.44334 1.280764,-0.78816 0.640382,-0.34482 1.182243,-0.44334 0.591123,-0.14778 0.886683,0.29556 0.246301,0.39408 0.04926,0.78816 -0.14778,0.34482 -0.492602,0.7389 -0.344819,0.34483 -0.7389,0.68964 -0.394081,0.29557 -0.591123,0.49261 -0.738903,0.7389 -1.428544,1.62558 -0.689641,0.88669 -0.689641,1.87189 0.88668,0 1.871884,-0.44334 0.985204,-0.44335 1.724107,-0.73891 2.364486,-1.08372 4.679713,-2.463 1.280764,-0.78817 2.315227,-1.57633 0.443342,-0.29556 0.886683,0 0.492602,0.29556 0.394081,0.88669 -0.09852,0.44334 -0.443341,0.88668 -0.295562,0.39408 -0.541863,0.83742 -0.246301,0.39408 -0.4926,1.08372 -0.197041,0.68965 0,1.23151 0.541862,0.29556 1.330024,0.0985 0.788162,-0.2463 1.280764,-0.39408 2.118185,-0.73891 3.940812,-1.67485 0.34482,-0.14778 0.837422,-0.39408 0.541861,-0.29556 0.788162,0.19704 0.246301,0.44334 -0.09852,0.68964 -0.295562,0.19704 -0.640382,0.34482 l -3.251171,1.52707 q -1.034463,0.44334 -2.265966,1.03446 -1.231504,0.54186 -2.463009,0.2463 -0.886683,-0.2463 -1.034463,-0.9852 -0.09852,-0.78816 0.14778,-1.47781 l 0.738903,-1.77336 q -1.280764,0.59112 -2.512266,1.2315 -1.182246,0.64039 -2.46301,1.18225 -0.541861,0.29556 -1.280764,0.7389 -0.7389,0.39408 -1.576324,0.78816 -0.788162,0.34482 -1.576324,0.4926 -0.788162,0.19704 -1.379285,-0.0493 -0.59112,-0.19704 -0.640382,-0.7389 0,-0.59112 0.29556,-1.33002 0.295563,-0.73891 0.837424,-1.57633 0.541861,-0.83742 1.132984,-1.62558 l -1.182243,0.54186 q -2.019667,0.7389 -2.90635,1.13298 -0.886683,0.39408 -1.379285,0.4926 -0.29556,0.0985 -0.44334,-0.0493 -0.197042,-0.14778 -0.246301,-0.34482 -0.09852,-0.19704 0,-0.39408 0.04926,-0.19704 0.29556,-0.29556 z"
               style="font-style:normal;font-variant:normal;font-weight:normal;font-stretch:normal;font-family:'Notera Personal Use Only';-inkscape-font-specification:'Notera Personal Use Only';fill:#ffffff"
               id="path20975-4-3-5-8-1"
               inkscape:connector-curvature="0" />
            <path
               d="m 37.740024,368.76185 q 0.541861,-0.29556 1.871887,-0.9852 1.330023,-0.7389 2.709308,-1.37929 1.428544,-0.64038 2.610787,-0.88668 1.182243,-0.2463 1.477805,0.39408 0.19704,0.4926 -0.147782,0.9852 -0.29556,0.44335 -0.44334,0.83743 l -0.591123,1.37928 q 0.640382,-0.39408 1.280764,-0.68964 0.640382,-0.29556 1.280764,-0.59112 1.576326,-0.83743 3.251171,-1.77337 1.674845,-0.93594 3.398949,-1.42854 0.640382,-0.14778 1.132984,0 0.492602,0.0985 0.738903,0.44334 0.29556,0.29556 0.29556,0.83742 0,0.4926 -0.394081,1.08372 -0.44334,0.68965 -0.985203,1.23151 -0.492602,0.54186 -1.034463,1.18224 -0.09852,0.14778 -0.34482,0.39408 -0.246301,0.2463 -0.541863,0.59113 -0.246301,0.29556 -0.492602,0.64038 -0.19704,0.29556 -0.246299,0.54186 0.34482,0.0985 0.837421,0 0.541862,-0.0985 1.034463,-0.2463 0.541862,-0.19704 0.985204,-0.39408 0.492602,-0.19705 0.738903,-0.29556 l 2.019664,-0.88669 q 0.197042,-0.0985 0.492602,-0.29556 0.344822,-0.19704 0.689644,-0.34482 0.344819,-0.19704 0.640382,-0.34482 0.344819,-0.14778 0.541861,-0.14778 0.44334,0 0.44334,0.44334 0,0.44334 -0.394081,0.68964 -0.44334,0.2463 -0.935942,0.4926 -0.492602,0.19704 -1.034463,0.44335 -0.689643,0.39408 -1.330025,0.68964 -0.640382,0.29556 -1.330024,0.64038 -0.394081,0.19704 -1.280764,0.59112 -0.837421,0.34482 -1.724104,0.4926 -0.837424,0.19704 -1.477805,-0.0493 -0.640382,-0.19704 -0.640382,-1.18224 0,-0.4926 0.2463,-0.88668 0.246301,-0.39409 0.541862,-0.73891 0.344821,-0.39408 0.689643,-0.7389 0.394081,-0.34482 0.689641,-0.64038 0.295561,-0.2463 0.985204,-1.03446 0.689641,-0.78816 0.886683,-1.47781 -1.330025,0.14778 -2.70931,0.68965 -1.330023,0.54186 -2.463007,1.13298 -1.428544,0.68964 -2.955609,1.57632 -1.527065,0.83742 -2.660047,2.01967 -0.246301,0.19704 -0.541863,0.2463 -0.246301,0 -0.492602,-0.0985 -0.246299,-0.14778 -0.394081,-0.39408 -0.09852,-0.2463 0,-0.64039 0.147782,-0.44334 0.738903,-0.78816 0.246301,-0.39408 0.492602,-0.88668 0.246301,-0.54186 0.344821,-0.64038 0.09852,-0.34482 0.19704,-0.68964 0.09852,-0.39408 0.14778,-0.78817 -0.541861,0.14778 -1.083722,0.34483 -0.541862,0.19704 -0.837424,0.29556 -0.689641,0.29556 -1.379283,0.59112 -0.689643,0.2463 -1.379284,0.59112 -0.394081,0.19704 -0.738903,0.39408 -0.29556,0.19704 -0.689641,0.34482 -0.295563,0.14778 -0.591123,0.0985 -0.246301,-0.0985 -0.394081,-0.2463 -0.14778,-0.14778 -0.09852,-0.34482 0,-0.2463 0.344822,-0.39408 z"
               style="font-style:normal;font-variant:normal;font-weight:normal;font-stretch:normal;font-family:'Notera Personal Use Only';-inkscape-font-specification:'Notera Personal Use Only';fill:#ffffff"
               id="path20977-2-6-7-0-9"
               inkscape:connector-curvature="0" />
            <path
               d="m 60.25807,368.71259 q 0.886683,-0.44334 1.822627,-0.9852 0.985202,-0.54186 1.970405,-0.93595 0.640382,-1.13298 1.822625,-1.82262 1.182244,-0.7389 2.512269,-0.9852 0.689641,-0.0985 1.576324,0 0.935942,0.0985 1.428544,0.7389 0.344822,0.39408 0.14778,0.83742 -0.14778,0.44334 -0.59112,0.83742 -0.394081,0.39408 -0.935944,0.7389 -0.4926,0.29557 -0.738901,0.44335 -0.886683,0.54186 -1.970407,0.83742 -1.034463,0.2463 -2.118186,0.14778 l -0.197041,0 q 0.197041,1.08372 0.886682,1.67484 0.689644,0.59113 1.625586,0.88669 0.935942,0.2463 1.921146,0.19704 1.034463,-0.0493 1.871884,-0.19704 1.182246,-0.24631 2.31523,-0.59112 1.132981,-0.39409 2.216706,-0.88669 0.492602,-0.2463 0.985201,-0.44334 0.541864,-0.2463 0.985204,-0.4926 0.344822,-0.0985 0.689644,0.0985 0.394081,0.19704 0.09852,0.64038 -0.246301,0.39408 -0.689641,0.54186 -0.443343,0.14778 -0.788162,0.29556 l -2.463007,1.08373 q -2.265968,0.88668 -4.482674,1.4778 -0.985204,0.19704 -2.019667,0.0985 -0.985204,-0.0493 -1.871886,-0.39408 -0.837422,-0.39408 -1.527065,-1.08372 -0.689642,-0.68964 -0.985202,-1.77337 -0.09852,-0.39408 -0.197041,-0.78816 -0.04926,-0.39408 0.04926,-0.7389 -0.541863,0.2463 -1.083724,0.59112 -0.492602,0.29556 -0.886683,0.54186 -0.246301,0.0985 -0.640382,0.39408 -0.394081,0.2463 -0.788162,0 -0.295561,-0.19704 -0.246301,-0.54186 0,-0.34482 0.29556,-0.44334 z m 5.024537,-1.37928 q 1.182243,-0.0493 2.265965,-0.59113 1.132984,-0.54186 1.970408,-1.37928 -0.689644,-0.2463 -1.379285,-0.14778 -0.640382,0.0985 -1.231504,0.39408 -0.541862,0.29556 -0.985202,0.78816 -0.443343,0.44334 -0.640382,0.93595 z"
               style="font-style:normal;font-variant:normal;font-weight:normal;font-stretch:normal;font-family:'Notera Personal Use Only';-inkscape-font-specification:'Notera Personal Use Only';fill:#ffffff"
               id="path20979-3-04-7-8-0"
               inkscape:connector-curvature="0" />
          </g>
        </g>
      </g>
      <path
         style="color:#000000;font-style:normal;font-variant:normal;font-weight:normal;font-stretch:normal;font-size:medium;line-height:125%;font-family:Aquino;-inkscape-font-specification:Aquino;text-indent:0;text-align:start;text-decoration:none;text-decoration-line:none;letter-spacing:0px;word-spacing:0px;text-transform:none;direction:ltr;block-progression:tb;writing-mode:lr-tb;baseline-shift:baseline;text-anchor:start;visibility:visible;opacity:0.98999999;fill:#d40000;fill-opacity:1;fill-rule:nonzero;stroke:none;stroke-width:1px;stroke-linecap:butt;stroke-linejoin:miter;stroke-opacity:1;marker:none"
         d="m 66.726829,322.05113 c -2.275118,-0.0112 -3.997548,2.34551 -3.471406,4.52 0.479767,2.77038 4.38692,3.63606 6.232359,1.67451 1.687178,-1.62512 1.421573,-4.9606 -0.890911,-5.85159 -0.589359,-0.24897 -1.229247,-0.37866 -1.870042,-0.34292 z m 0.06028,0.81815 c 1.843057,-0.0315 3.399334,2.0279 2.580862,3.75624 -0.746779,1.97434 -3.885203,2.41604 -4.952589,0.48993 -1.094545,-1.5822 -0.01454,-3.98301 1.89944,-4.20905 0.155807,-0.0271 0.314173,-0.0392 0.472287,-0.0371 z"
         id="path4438-8-8-7-9-5"
         inkscape:connector-curvature="0" />
      <text
         sodipodi:linespacing="125%"
         id="text20590-7-1-7-5-4-9"
         y="341.88968"
         x="14.112267"
         style="color:#000000;font-style:normal;font-variant:normal;font-weight:normal;font-stretch:normal;font-size:3.50973511px;line-height:125%;font-family:'Alegreya Sans sc';-inkscape-font-specification:'Alegreya Sans sc';text-indent:0;text-align:start;text-decoration:none;text-decoration-line:none;letter-spacing:0px;word-spacing:0px;text-transform:none;direction:ltr;block-progression:tb;writing-mode:lr-tb;baseline-shift:baseline;text-anchor:start;display:inline;overflow:visible;visibility:visible;fill:#ffffff;fill-opacity:1;fill-rule:nonzero;stroke:none;stroke-width:1px;stroke-linecap:butt;stroke-linejoin:miter;stroke-opacity:1;marker:none;enable-background:accumulate"
         xml:space="preserve"><tspan
           style="font-style:normal;font-variant:normal;font-weight:500;font-stretch:normal;font-family:'Alegreya Sans sc';-inkscape-font-specification:'Alegreya Sans sc Medium';fill:#ffffff;fill-opacity:1"
           y="341.88968"
           x="14.112267"
           id="tspan20592-4-6-73-9-4-6"
           sodipodi:role="line">GRAFIKO ETA WEB DISEINATZAILEA</tspan></text>
    </g>
  </g>
</svg>
