<?xml version="1.0" encoding="UTF-8" standalone="no"?>
<!-- Created with Inkscape (http://www.inkscape.org/) -->

<svg
   xmlns:dc="http://purl.org/dc/elements/1.1/"
   xmlns:cc="http://creativecommons.org/ns#"
   xmlns:rdf="http://www.w3.org/1999/02/22-rdf-syntax-ns#"
   xmlns:svg="http://www.w3.org/2000/svg"
   xmlns="http://www.w3.org/2000/svg"
   xmlns:sodipodi="http://sodipodi.sourceforge.net/DTD/sodipodi-0.dtd"
   xmlns:inkscape="http://www.inkscape.org/namespaces/inkscape"
   width="344.17499"
   height="134.05385"
   id="svg2"
   sodipodi:version="0.32"
   inkscape:version="0.91pre1 r13432"
   sodipodi:docname="iune.svg"
   inkscape:output_extension="org.inkscape.output.svg.inkscape"
   version="1.1"
   viewBox="0 0 344.17498 134.05385">
  <defs
     id="defs4" />
  <sodipodi:namedview
     id="base"
     pagecolor="#ffffff"
     bordercolor="#666666"
     borderopacity="1.0"
     inkscape:pageopacity="0.0"
     inkscape:pageshadow="2"
     inkscape:zoom="0.89444223"
     inkscape:cx="45.193416"
     inkscape:cy="-115.28412"
     inkscape:document-units="px"
     inkscape:current-layer="layer1"
     inkscape:window-width="1598"
     inkscape:window-height="879"
     inkscape:window-x="0"
     inkscape:window-y="19"
     showgrid="false"
     inkscape:window-maximized="0"
     fit-margin-top="0"
     fit-margin-left="0"
     fit-margin-right="0"
     fit-margin-bottom="0"
     borderlayer="true" />
  <metadata
     id="metadata7">
    <rdf:RDF>
      <cc:Work
         rdf:about="">
        <dc:format>image/svg+xml</dc:format>
        <dc:type
           rdf:resource="http://purl.org/dc/dcmitype/StillImage" />
        <dc:title></dc:title>
      </cc:Work>
    </rdf:RDF>
  </metadata>
  <g
     inkscape:label="Capa 1"
     inkscape:groupmode="layer"
     id="layer1"
     transform="translate(-364.43734,-457.62427)">
    <g
       id="g18974">
      <path
         style="color:#000000;font-style:normal;font-variant:normal;font-weight:normal;font-stretch:normal;font-size:medium;line-height:125%;font-family:Aquino;-inkscape-font-specification:Aquino;text-indent:0;text-align:start;text-decoration:none;text-decoration-line:none;letter-spacing:0px;word-spacing:0px;text-transform:none;direction:ltr;block-progression:tb;writing-mode:lr-tb;baseline-shift:baseline;text-anchor:start;visibility:visible;opacity:0.98999999;fill:#d40000;fill-opacity:1;fill-rule:nonzero;stroke:none;stroke-width:1px;stroke-linecap:butt;stroke-linejoin:miter;stroke-opacity:1;marker:none"
         d="m 640.7742,460.03801 c -11.29042,3.62243 -9.63673,22.09845 1.98245,23.82827 10.44402,2.78223 20.50418,-11.0061 13.241,-19.45293 -3.24657,-4.5848 -9.90796,-6.63941 -15.22345,-4.37534 z m 1.54122,2.34655 c 7.34426,-2.79379 15.49872,5.55539 11.81474,12.57371 -2.62166,7.86347 -15.63683,7.73519 -17.89167,-0.2166 -1.91755,-4.82636 0.90727,-10.86307 6.07693,-12.357 z"
         id="path4438-9-8-2-7"
         inkscape:connector-curvature="0"
         sodipodi:nodetypes="cccccccc" />
      <g
         style="opacity:0.98999999;fill:#ffffff"
         transform="matrix(3.601572,0,0,3.601572,70.633506,-880.50958)"
         id="layer1-3-3-8-9-5"
         inkscape:label="Capa 1">
        <g
           style="fill:#ffffff"
           inkscape:label="Capa 1"
           id="layer1-1-3-5-0-0"
           transform="matrix(0.89009352,0,0,0.89009352,177.89333,107.80395)">
          <g
             style="color:#000000;font-style:normal;font-variant:normal;font-weight:normal;font-stretch:normal;font-size:174.5438385px;line-height:125%;font-family:Lato;-inkscape-font-specification:Lato;text-indent:0;text-align:start;text-decoration:none;text-decoration-line:none;letter-spacing:0px;word-spacing:0px;text-transform:none;direction:ltr;block-progression:tb;writing-mode:lr-tb;baseline-shift:baseline;text-anchor:start;display:inline;overflow:visible;visibility:visible;fill:#ffffff;fill-opacity:1;fill-rule:nonzero;stroke:none;stroke-width:1px;stroke-linecap:butt;stroke-linejoin:miter;stroke-opacity:1;marker:none;enable-background:accumulate"
             id="text33400-8-0-4-7-8-1"
             transform="matrix(1.2227287,0,0,1.2227287,-106.1243,-131.23709)">
            <path
               d="m 4.568698,366.3481 c 0.1313604,-0.0657 0.4269233,-0.19704 0.886683,-0.39408 0.492602,-0.19704 0.9687843,-0.34482 1.428544,-0.44334 0.4597626,-0.0985 0.8538436,-0.0985 1.1822431,0 0.3284022,0.0657 0.4433429,0.36124 0.3448219,0.88668 -0.065682,0.29556 -0.2134616,0.59112 -0.4433401,0.88668 -0.1970419,0.29557 -0.3448219,0.59113 -0.4433429,0.88669 -0.1970391,0.42692 -0.394081,0.95236 -0.5911201,1.57632 -0.1641997,0.62397 -0.098521,1.13299 0.1970391,1.52707 0.5582836,0.0657 1.1658234,0 1.822625,-0.19704 0.6896411,-0.19704 1.313603,-0.39408 1.871887,-0.59113 0.1642,-0.0657 0.476182,-0.22987 0.935942,-0.4926 0.459763,-0.26272 0.935945,-0.50902 1.428544,-0.7389 0.525441,-0.26272 1.001624,-0.44334 1.428544,-0.54186 0.42692,-0.13136 0.689644,-0.0985 0.788165,0.0985 0.13136,0.22988 0.04926,0.47618 -0.246301,0.7389 -0.295563,0.26272 -0.673224,0.50902 -1.132984,0.7389 -0.42692,0.19704 -0.870263,0.39409 -1.330026,0.59112 -0.45976,0.1642 -0.75532,0.27915 -0.88668,0.34483 -0.722483,0.36124 -1.461386,0.72248 -2.216709,1.08372 -0.7224804,0.3284 -1.477803,0.55828 -2.2659651,0.68964 -0.689641,0.0985 -1.1658233,-0.0493 -1.4285468,-0.44334 -0.2627207,-0.39408 -0.394081,-0.88668 -0.394081,-1.4778 0,-0.62397 0.082101,-1.28077 0.246301,-1.97041 0.1970419,-0.72248 0.3940838,-1.37928 0.5911229,-1.97041 -0.7553226,0.29557 -1.4942256,0.57471 -2.216706,0.83743 -0.7224833,0.22988 -1.4285469,0.50902 -2.1181879,0.83742 -0.591123,0.26272 -1.18224306,0.55828 -1.77336598,0.88668 -0.36124163,0.0985 -0.640382,0.0164 -0.83742109,-0.2463 -0.22988129,-0.29556 -0.14778003,-0.54186 0.24630098,-0.7389 z m 5.763438,-9.95055 c 0.1642,-0.42692 0.410501,-0.78816 0.738903,-1.08372 1.540665,-0.63147 0.931514,2.86842 -0.394081,2.06892 -0.361242,-0.26272 -0.476182,-0.59112 -0.344822,-0.9852 z"
               style="font-style:normal;font-variant:normal;font-weight:normal;font-stretch:normal;font-family:'Notera Personal Use Only';-inkscape-font-specification:'Notera Personal Use Only';fill:#ffffff"
               id="path20973-4-5-7-8-1"
               inkscape:connector-curvature="0"
               sodipodi:nodetypes="ccsccccccccscccsccsccsscccccccccccc" />
            <path
               d="m 14.651635,368.71259 q 1.280764,-0.39408 2.512269,-0.93594 1.231502,-0.59112 2.463007,-1.13299 0.29556,-0.14778 0.886683,-0.54186 0.640382,-0.44334 1.280764,-0.78816 0.640382,-0.34482 1.182243,-0.44334 0.591123,-0.14778 0.886683,0.29556 0.246301,0.39408 0.04926,0.78816 -0.14778,0.34482 -0.492602,0.7389 -0.344819,0.34483 -0.7389,0.68964 -0.394081,0.29557 -0.591123,0.49261 -0.738903,0.7389 -1.428544,1.62558 -0.689641,0.88669 -0.689641,1.87189 0.88668,0 1.871884,-0.44334 0.985204,-0.44335 1.724107,-0.73891 2.364486,-1.08372 4.679713,-2.463 1.280764,-0.78817 2.315227,-1.57633 0.443342,-0.29556 0.886683,0 0.492602,0.29556 0.394081,0.88669 -0.09852,0.44334 -0.443341,0.88668 -0.295562,0.39408 -0.541863,0.83742 -0.246301,0.39408 -0.4926,1.08372 -0.197041,0.68965 0,1.23151 0.541862,0.29556 1.330024,0.0985 0.788162,-0.2463 1.280764,-0.39408 2.118185,-0.73891 3.940812,-1.67485 0.34482,-0.14778 0.837422,-0.39408 0.541861,-0.29556 0.788162,0.19704 0.246301,0.44334 -0.09852,0.68964 -0.295562,0.19704 -0.640382,0.34482 l -3.251171,1.52707 q -1.034463,0.44334 -2.265966,1.03446 -1.231504,0.54186 -2.463009,0.2463 -0.886683,-0.2463 -1.034463,-0.9852 -0.09852,-0.78816 0.14778,-1.47781 l 0.738903,-1.77336 q -1.280764,0.59112 -2.512266,1.2315 -1.182246,0.64039 -2.46301,1.18225 -0.541861,0.29556 -1.280764,0.7389 -0.7389,0.39408 -1.576324,0.78816 -0.788162,0.34482 -1.576324,0.4926 -0.788162,0.19704 -1.379285,-0.0493 -0.59112,-0.19704 -0.640382,-0.7389 0,-0.59112 0.29556,-1.33002 0.295563,-0.73891 0.837424,-1.57633 0.541861,-0.83742 1.132984,-1.62558 l -1.182243,0.54186 q -2.019667,0.7389 -2.90635,1.13298 -0.886683,0.39408 -1.379285,0.4926 -0.29556,0.0985 -0.44334,-0.0493 -0.197042,-0.14778 -0.246301,-0.34482 -0.09852,-0.19704 0,-0.39408 0.04926,-0.19704 0.29556,-0.29556 z"
               style="font-style:normal;font-variant:normal;font-weight:normal;font-stretch:normal;font-family:'Notera Personal Use Only';-inkscape-font-specification:'Notera Personal Use Only';fill:#ffffff"
               id="path20975-4-3-5-8-1"
               inkscape:connector-curvature="0" />
            <path
               d="m 37.740024,368.76185 q 0.541861,-0.29556 1.871887,-0.9852 1.330023,-0.7389 2.709308,-1.37929 1.428544,-0.64038 2.610787,-0.88668 1.182243,-0.2463 1.477805,0.39408 0.19704,0.4926 -0.147782,0.9852 -0.29556,0.44335 -0.44334,0.83743 l -0.591123,1.37928 q 0.640382,-0.39408 1.280764,-0.68964 0.640382,-0.29556 1.280764,-0.59112 1.576326,-0.83743 3.251171,-1.77337 1.674845,-0.93594 3.398949,-1.42854 0.640382,-0.14778 1.132984,0 0.492602,0.0985 0.738903,0.44334 0.29556,0.29556 0.29556,0.83742 0,0.4926 -0.394081,1.08372 -0.44334,0.68965 -0.985203,1.23151 -0.492602,0.54186 -1.034463,1.18224 -0.09852,0.14778 -0.34482,0.39408 -0.246301,0.2463 -0.541863,0.59113 -0.246301,0.29556 -0.492602,0.64038 -0.19704,0.29556 -0.246299,0.54186 0.34482,0.0985 0.837421,0 0.541862,-0.0985 1.034463,-0.2463 0.541862,-0.19704 0.985204,-0.39408 0.492602,-0.19705 0.738903,-0.29556 l 2.019664,-0.88669 q 0.197042,-0.0985 0.492602,-0.29556 0.344822,-0.19704 0.689644,-0.34482 0.344819,-0.19704 0.640382,-0.34482 0.344819,-0.14778 0.541861,-0.14778 0.44334,0 0.44334,0.44334 0,0.44334 -0.394081,0.68964 -0.44334,0.2463 -0.935942,0.4926 -0.492602,0.19704 -1.034463,0.44335 -0.689643,0.39408 -1.330025,0.68964 -0.640382,0.29556 -1.330024,0.64038 -0.394081,0.19704 -1.280764,0.59112 -0.837421,0.34482 -1.724104,0.4926 -0.837424,0.19704 -1.477805,-0.0493 -0.640382,-0.19704 -0.640382,-1.18224 0,-0.4926 0.2463,-0.88668 0.246301,-0.39409 0.541862,-0.73891 0.344821,-0.39408 0.689643,-0.7389 0.394081,-0.34482 0.689641,-0.64038 0.295561,-0.2463 0.985204,-1.03446 0.689641,-0.78816 0.886683,-1.47781 -1.330025,0.14778 -2.70931,0.68965 -1.330023,0.54186 -2.463007,1.13298 -1.428544,0.68964 -2.955609,1.57632 -1.527065,0.83742 -2.660047,2.01967 -0.246301,0.19704 -0.541863,0.2463 -0.246301,0 -0.492602,-0.0985 -0.246299,-0.14778 -0.394081,-0.39408 -0.09852,-0.2463 0,-0.64039 0.147782,-0.44334 0.738903,-0.78816 0.246301,-0.39408 0.492602,-0.88668 0.246301,-0.54186 0.344821,-0.64038 0.09852,-0.34482 0.19704,-0.68964 0.09852,-0.39408 0.14778,-0.78817 -0.541861,0.14778 -1.083722,0.34483 -0.541862,0.19704 -0.837424,0.29556 -0.689641,0.29556 -1.379283,0.59112 -0.689643,0.2463 -1.379284,0.59112 -0.394081,0.19704 -0.738903,0.39408 -0.29556,0.19704 -0.689641,0.34482 -0.295563,0.14778 -0.591123,0.0985 -0.246301,-0.0985 -0.394081,-0.2463 -0.14778,-0.14778 -0.09852,-0.34482 0,-0.2463 0.344822,-0.39408 z"
               style="font-style:normal;font-variant:normal;font-weight:normal;font-stretch:normal;font-family:'Notera Personal Use Only';-inkscape-font-specification:'Notera Personal Use Only';fill:#ffffff"
               id="path20977-2-6-7-0-9"
               inkscape:connector-curvature="0" />
            <path
               d="m 60.25807,368.71259 q 0.886683,-0.44334 1.822627,-0.9852 0.985202,-0.54186 1.970405,-0.93595 0.640382,-1.13298 1.822625,-1.82262 1.182244,-0.7389 2.512269,-0.9852 0.689641,-0.0985 1.576324,0 0.935942,0.0985 1.428544,0.7389 0.344822,0.39408 0.14778,0.83742 -0.14778,0.44334 -0.59112,0.83742 -0.394081,0.39408 -0.935944,0.7389 -0.4926,0.29557 -0.738901,0.44335 -0.886683,0.54186 -1.970407,0.83742 -1.034463,0.2463 -2.118186,0.14778 l -0.197041,0 q 0.197041,1.08372 0.886682,1.67484 0.689644,0.59113 1.625586,0.88669 0.935942,0.2463 1.921146,0.19704 1.034463,-0.0493 1.871884,-0.19704 1.182246,-0.24631 2.31523,-0.59112 1.132981,-0.39409 2.216706,-0.88669 0.492602,-0.2463 0.985201,-0.44334 0.541864,-0.2463 0.985204,-0.4926 0.344822,-0.0985 0.689644,0.0985 0.394081,0.19704 0.09852,0.64038 -0.246301,0.39408 -0.689641,0.54186 -0.443343,0.14778 -0.788162,0.29556 l -2.463007,1.08373 q -2.265968,0.88668 -4.482674,1.4778 -0.985204,0.19704 -2.019667,0.0985 -0.985204,-0.0493 -1.871886,-0.39408 -0.837422,-0.39408 -1.527065,-1.08372 -0.689642,-0.68964 -0.985202,-1.77337 -0.09852,-0.39408 -0.197041,-0.78816 -0.04926,-0.39408 0.04926,-0.7389 -0.541863,0.2463 -1.083724,0.59112 -0.492602,0.29556 -0.886683,0.54186 -0.246301,0.0985 -0.640382,0.39408 -0.394081,0.2463 -0.788162,0 -0.295561,-0.19704 -0.246301,-0.54186 0,-0.34482 0.29556,-0.44334 z m 5.024537,-1.37928 q 1.182243,-0.0493 2.265965,-0.59113 1.132984,-0.54186 1.970408,-1.37928 -0.689644,-0.2463 -1.379285,-0.14778 -0.640382,0.0985 -1.231504,0.39408 -0.541862,0.29556 -0.985202,0.78816 -0.443343,0.44334 -0.640382,0.93595 z"
               style="font-style:normal;font-variant:normal;font-weight:normal;font-stretch:normal;font-family:'Notera Personal Use Only';-inkscape-font-specification:'Notera Personal Use Only';fill:#ffffff"
               id="path20979-3-04-7-8-0"
               inkscape:connector-curvature="0" />
          </g>
        </g>
      </g>
      <path
         style="color:#000000;font-style:normal;font-variant:normal;font-weight:normal;font-stretch:normal;font-size:medium;line-height:125%;font-family:Aquino;-inkscape-font-specification:Aquino;text-indent:0;text-align:start;text-decoration:none;text-decoration-line:none;letter-spacing:0px;word-spacing:0px;text-transform:none;direction:ltr;block-progression:tb;writing-mode:lr-tb;baseline-shift:baseline;text-anchor:start;visibility:visible;opacity:0.98999999;fill:#d40000;fill-opacity:1;fill-rule:nonzero;stroke:none;stroke-width:1px;stroke-linecap:butt;stroke-linejoin:miter;stroke-opacity:1;marker:none"
         d="m 684.01295,482.86226 c -12.28893,-0.0605 -21.59254,12.66914 -18.75061,24.41453 2.59143,14.96406 23.69571,19.63998 33.66375,9.04478 9.1132,-8.778 7.67854,-26.79442 -4.81221,-31.60705 -3.18339,-1.3448 -6.63971,-2.04531 -10.10093,-1.85226 z m 0.3256,4.41919 c 9.95517,-0.17015 18.36131,10.95359 13.94038,20.28913 -4.03368,10.66429 -20.98571,13.05011 -26.75114,2.64633 -5.91212,-8.54617 -0.0785,-21.51402 10.25972,-22.73496 0.84159,-0.14638 1.69699,-0.21174 2.55104,-0.20039 z"
         id="path4438-8-8-7-9-5"
         inkscape:connector-curvature="0" />
      <path
         d="m 406.56716,577.71559 c -3.88632,0 -6.10436,2.25596 -6.10436,6.48352 0,3.77257 1.78202,5.97166 5.55459,5.97166 1.19433,0 2.44553,-0.2275 4.07589,-0.73935 l -0.0569,-2.78678 0.0379,-1.64931 -1.83889,0.1327 0.0569,1.81994 -0.0569,1.23224 c -0.94788,0.28437 -1.4787,0.37916 -2.1043,0.37916 -2.50241,0 -3.63986,-1.30808 -3.63986,-4.45505 0,-3.33655 1.27016,-4.75837 3.75361,-4.75837 1.13746,0 2.04742,0.30332 3.27967,1.02371 l 0.20853,-0.0189 0.39812,-1.81994 c -1.15642,-0.56873 -2.31284,-0.81518 -3.56404,-0.81518 z"
         style="color:#000000;font-style:normal;font-variant:normal;font-weight:500;font-stretch:normal;font-size:medium;line-height:125%;font-family:'Alegreya Sans sc';-inkscape-font-specification:'Alegreya Sans sc Medium';text-indent:0;text-align:start;text-decoration:none;text-decoration-line:none;letter-spacing:0px;word-spacing:0px;text-transform:none;direction:ltr;block-progression:tb;writing-mode:lr-tb;baseline-shift:baseline;text-anchor:start;visibility:visible;fill:#ffffff;fill-opacity:1;fill-rule:nonzero;stroke:none;stroke-width:1px;stroke-linecap:butt;stroke-linejoin:miter;stroke-opacity:1;marker:none"
         id="path18893"
         inkscape:connector-curvature="0" />
      <path
         d="m 418.38932,585.14699 c 1.51661,-0.79622 2.40762,-2.14221 2.40762,-3.77257 0,-2.29388 -1.40286,-3.54508 -3.8484,-3.54508 l -4.13276,0.019 0.1327,8.51198 -0.1327,3.65882 1.99055,0 -0.0948,-3.82944 0,-0.51186 2.06638,0 c 0.79622,1.4787 1.66828,2.93844 2.54033,4.36026 l 0.22749,0.15166 c 0.64456,-0.0569 1.27016,-0.18957 1.87681,-0.39811 l 0.019,-0.22749 c -1.09954,-1.45974 -2.12325,-2.91948 -3.05218,-4.41713 z m -3.63986,-1.06163 0.0569,-4.66358 1.6114,-0.0569 c 1.53557,0.0569 2.33179,0.72039 2.33179,2.16117 0,1.38391 -0.66352,2.237 -1.91472,2.61615 l -2.08534,-0.0569 z"
         style="color:#000000;font-style:normal;font-variant:normal;font-weight:500;font-stretch:normal;font-size:medium;line-height:125%;font-family:'Alegreya Sans sc';-inkscape-font-specification:'Alegreya Sans sc Medium';text-indent:0;text-align:start;text-decoration:none;text-decoration-line:none;letter-spacing:0px;word-spacing:0px;text-transform:none;direction:ltr;block-progression:tb;writing-mode:lr-tb;baseline-shift:baseline;text-anchor:start;visibility:visible;fill:#ffffff;fill-opacity:1;fill-rule:nonzero;stroke:none;stroke-width:1px;stroke-linecap:butt;stroke-linejoin:miter;stroke-opacity:1;marker:none"
         id="path18895"
         inkscape:connector-curvature="0" />
      <path
         d="m 432.76514,590.0191 -3.92423,-12.1708 -2.29388,0 -4.3413,12.1708 1.95264,0 0.30332,-1.45973 0.56873,-1.59245 2.33179,-0.0569 2.57824,0.0569 0.53082,1.68723 0.28436,1.36495 2.00951,0 z m -3.31759,-4.64462 -1.95263,0.0379 -1.91473,-0.0379 1.99056,-5.61146 0.1327,0 1.7441,5.61146 z"
         style="color:#000000;font-style:normal;font-variant:normal;font-weight:500;font-stretch:normal;font-size:medium;line-height:125%;font-family:'Alegreya Sans sc';-inkscape-font-specification:'Alegreya Sans sc Medium';text-indent:0;text-align:start;text-decoration:none;text-decoration-line:none;letter-spacing:0px;word-spacing:0px;text-transform:none;direction:ltr;block-progression:tb;writing-mode:lr-tb;baseline-shift:baseline;text-anchor:start;visibility:visible;fill:#ffffff;fill-opacity:1;fill-rule:nonzero;stroke:none;stroke-width:1px;stroke-linecap:butt;stroke-linejoin:miter;stroke-opacity:1;marker:none"
         id="path18897"
         inkscape:connector-curvature="0" />
      <path
         d="m 436.76313,579.4597 1.95264,-0.019 2.84364,0.11374 0.15166,-1.53556 -0.1327,-0.17062 -6.80579,0 0.1327,8.51198 -0.1327,3.65882 1.99055,0 -0.0948,-3.82944 0.019,-1.30808 1.76306,-0.019 2.16117,0.0569 0.15166,-1.4787 -0.1327,-0.17062 -2.00951,0.0569 -1.91472,-0.0379 0.0569,-3.82944 z"
         style="color:#000000;font-style:normal;font-variant:normal;font-weight:500;font-stretch:normal;font-size:medium;line-height:125%;font-family:'Alegreya Sans sc';-inkscape-font-specification:'Alegreya Sans sc Medium';text-indent:0;text-align:start;text-decoration:none;text-decoration-line:none;letter-spacing:0px;word-spacing:0px;text-transform:none;direction:ltr;block-progression:tb;writing-mode:lr-tb;baseline-shift:baseline;text-anchor:start;visibility:visible;fill:#ffffff;fill-opacity:1;fill-rule:nonzero;stroke:none;stroke-width:1px;stroke-linecap:butt;stroke-linejoin:miter;stroke-opacity:1;marker:none"
         id="path18899"
         inkscape:connector-curvature="0" />
      <path
         d="m 445.07339,586.18966 0.11375,-8.34136 -2.00951,0 0.1327,8.51198 -0.1327,3.65882 1.99055,0 -0.0948,-3.82944 z"
         style="color:#000000;font-style:normal;font-variant:normal;font-weight:500;font-stretch:normal;font-size:medium;line-height:125%;font-family:'Alegreya Sans sc';-inkscape-font-specification:'Alegreya Sans sc Medium';text-indent:0;text-align:start;text-decoration:none;text-decoration-line:none;letter-spacing:0px;word-spacing:0px;text-transform:none;direction:ltr;block-progression:tb;writing-mode:lr-tb;baseline-shift:baseline;text-anchor:start;visibility:visible;fill:#ffffff;fill-opacity:1;fill-rule:nonzero;stroke:none;stroke-width:1px;stroke-linecap:butt;stroke-linejoin:miter;stroke-opacity:1;marker:none"
         id="path18901"
         inkscape:connector-curvature="0" />
      <path
         d="m 450.34924,586.18966 0.11375,-8.34136 -2.00951,0 0.1327,8.51198 -0.1327,3.65882 1.99055,0 -0.0948,-3.82944 z m 6.86267,-8.34136 -2.16117,0 -0.72039,1.09954 -3.81049,4.60671 0,0.11374 c 1.53557,2.21805 3.20384,4.3413 4.91003,6.40769 l 0.20854,0.11374 c 0.64456,-0.0758 1.27016,-0.18957 1.89576,-0.36019 l 0.0379,-0.22749 c -1.76307,-1.89577 -3.48821,-3.96215 -5.02378,-6.02853 l 4.66358,-5.72521 z"
         style="color:#000000;font-style:normal;font-variant:normal;font-weight:500;font-stretch:normal;font-size:medium;line-height:125%;font-family:'Alegreya Sans sc';-inkscape-font-specification:'Alegreya Sans sc Medium';text-indent:0;text-align:start;text-decoration:none;text-decoration-line:none;letter-spacing:0px;word-spacing:0px;text-transform:none;direction:ltr;block-progression:tb;writing-mode:lr-tb;baseline-shift:baseline;text-anchor:start;visibility:visible;fill:#ffffff;fill-opacity:1;fill-rule:nonzero;stroke:none;stroke-width:1px;stroke-linecap:butt;stroke-linejoin:miter;stroke-opacity:1;marker:none"
         id="path18903"
         inkscape:connector-curvature="0" />
      <path
         d="m 463.33553,577.69664 c -3.583,0 -5.59251,2.27491 -5.59251,6.35081 0,3.90527 1.87681,6.14227 5.23231,6.14227 3.56404,0 5.59251,-2.35074 5.59251,-6.50247 0,-3.82944 -1.87681,-5.99061 -5.23231,-5.99061 z m -0.17062,1.6114 c 2.29387,0 3.37446,1.44078 3.37446,4.73941 0,3.14697 -1.1185,4.56879 -3.41238,4.56879 -2.29387,0 -3.37446,-1.4787 -3.37446,-4.81524 0,-3.0901 1.09954,-4.49296 3.41238,-4.49296 z"
         style="color:#000000;font-style:normal;font-variant:normal;font-weight:500;font-stretch:normal;font-size:medium;line-height:125%;font-family:'Alegreya Sans sc';-inkscape-font-specification:'Alegreya Sans sc Medium';text-indent:0;text-align:start;text-decoration:none;text-decoration-line:none;letter-spacing:0px;word-spacing:0px;text-transform:none;direction:ltr;block-progression:tb;writing-mode:lr-tb;baseline-shift:baseline;text-anchor:start;visibility:visible;fill:#ffffff;fill-opacity:1;fill-rule:nonzero;stroke:none;stroke-width:1px;stroke-linecap:butt;stroke-linejoin:miter;stroke-opacity:1;marker:none"
         id="path18905"
         inkscape:connector-curvature="0" />
      <path
         d="m 481.07662,588.35083 -2.93843,0.0948 -2.31283,-0.019 -0.0569,-2.237 0.019,-1.57348 2.06639,-0.0379 2.14221,0.0569 0.15166,-1.49765 -0.1327,-0.15166 -2.00951,0.0569 -2.19909,-0.0379 0.0569,-3.54508 2.31284,-0.019 2.88156,0.0758 0.15166,-1.49765 -0.11375,-0.17062 -7.22286,0 0.1327,8.51198 -0.1327,3.65882 7.18495,0 0.1327,-1.49765 -0.11375,-0.17062 z"
         style="color:#000000;font-style:normal;font-variant:normal;font-weight:500;font-stretch:normal;font-size:medium;line-height:125%;font-family:'Alegreya Sans sc';-inkscape-font-specification:'Alegreya Sans sc Medium';text-indent:0;text-align:start;text-decoration:none;text-decoration-line:none;letter-spacing:0px;word-spacing:0px;text-transform:none;direction:ltr;block-progression:tb;writing-mode:lr-tb;baseline-shift:baseline;text-anchor:start;visibility:visible;fill:#ffffff;fill-opacity:1;fill-rule:nonzero;stroke:none;stroke-width:1px;stroke-linecap:butt;stroke-linejoin:miter;stroke-opacity:1;marker:none"
         id="path18907"
         inkscape:connector-curvature="0" />
      <path
         d="m 490.61587,578.01892 -0.11375,-0.17062 -8.41719,0 -0.15166,1.47869 0.1327,0.17062 2.23701,-0.11374 1.02371,0 0.0948,6.97641 -0.11375,3.65882 1.9716,0 -0.0948,-3.82944 0.0948,-6.80579 1.02371,0 2.19908,0.11374 0.11375,-1.47869 z"
         style="color:#000000;font-style:normal;font-variant:normal;font-weight:500;font-stretch:normal;font-size:medium;line-height:125%;font-family:'Alegreya Sans sc';-inkscape-font-specification:'Alegreya Sans sc Medium';text-indent:0;text-align:start;text-decoration:none;text-decoration-line:none;letter-spacing:0px;word-spacing:0px;text-transform:none;direction:ltr;block-progression:tb;writing-mode:lr-tb;baseline-shift:baseline;text-anchor:start;visibility:visible;fill:#ffffff;fill-opacity:1;fill-rule:nonzero;stroke:none;stroke-width:1px;stroke-linecap:butt;stroke-linejoin:miter;stroke-opacity:1;marker:none"
         id="path18909"
         inkscape:connector-curvature="0" />
      <path
         d="m 500.70903,590.0191 -3.92423,-12.1708 -2.29387,0 -4.3413,12.1708 1.95263,0 0.30333,-1.45973 0.56873,-1.59245 2.33179,-0.0569 2.57824,0.0569 0.53081,1.68723 0.28436,1.36495 2.00951,0 z m -3.31758,-4.64462 -1.95264,0.0379 -1.91472,-0.0379 1.99055,-5.61146 0.1327,0 1.74411,5.61146 z"
         style="color:#000000;font-style:normal;font-variant:normal;font-weight:500;font-stretch:normal;font-size:medium;line-height:125%;font-family:'Alegreya Sans sc';-inkscape-font-specification:'Alegreya Sans sc Medium';text-indent:0;text-align:start;text-decoration:none;text-decoration-line:none;letter-spacing:0px;word-spacing:0px;text-transform:none;direction:ltr;block-progression:tb;writing-mode:lr-tb;baseline-shift:baseline;text-anchor:start;visibility:visible;fill:#ffffff;fill-opacity:1;fill-rule:nonzero;stroke:none;stroke-width:1px;stroke-linecap:butt;stroke-linejoin:miter;stroke-opacity:1;marker:none"
         id="path18911"
         inkscape:connector-curvature="0" />
      <path
         d="m 516.78601,590.0191 4.20859,-12.1708 -1.81993,0 -0.30332,1.42182 -2.93844,8.66364 -0.15166,0 -2.65407,-8.58781 -0.30332,-1.49765 -1.99056,0 0.96684,3.03322 -2.38866,7.05224 -0.15166,0 -2.61615,-8.77739 -0.20854,-1.30807 -1.93368,0 3.67778,12.1708 2.06639,0 2.21804,-6.54038 0.13271,0 2.14221,6.54038 2.04743,0 z"
         style="color:#000000;font-style:normal;font-variant:normal;font-weight:500;font-stretch:normal;font-size:medium;line-height:125%;font-family:'Alegreya Sans sc';-inkscape-font-specification:'Alegreya Sans sc Medium';text-indent:0;text-align:start;text-decoration:none;text-decoration-line:none;letter-spacing:0px;word-spacing:0px;text-transform:none;direction:ltr;block-progression:tb;writing-mode:lr-tb;baseline-shift:baseline;text-anchor:start;visibility:visible;fill:#ffffff;fill-opacity:1;fill-rule:nonzero;stroke:none;stroke-width:1px;stroke-linecap:butt;stroke-linejoin:miter;stroke-opacity:1;marker:none"
         id="path18913"
         inkscape:connector-curvature="0" />
      <path
         d="m 529.95179,588.35083 -2.93843,0.0948 -2.31283,-0.019 -0.0569,-2.237 0.019,-1.57348 2.06638,-0.0379 2.14222,0.0569 0.15166,-1.49765 -0.13271,-0.15166 -2.00951,0.0569 -2.19908,-0.0379 0.0569,-3.54508 2.31283,-0.019 2.88157,0.0758 0.15166,-1.49765 -0.11375,-0.17062 -7.22286,0 0.1327,8.51198 -0.1327,3.65882 7.18495,0 0.1327,-1.49765 -0.11375,-0.17062 z"
         style="color:#000000;font-style:normal;font-variant:normal;font-weight:500;font-stretch:normal;font-size:medium;line-height:125%;font-family:'Alegreya Sans sc';-inkscape-font-specification:'Alegreya Sans sc Medium';text-indent:0;text-align:start;text-decoration:none;text-decoration-line:none;letter-spacing:0px;word-spacing:0px;text-transform:none;direction:ltr;block-progression:tb;writing-mode:lr-tb;baseline-shift:baseline;text-anchor:start;visibility:visible;fill:#ffffff;fill-opacity:1;fill-rule:nonzero;stroke:none;stroke-width:1px;stroke-linecap:butt;stroke-linejoin:miter;stroke-opacity:1;marker:none"
         id="path18915"
         inkscape:connector-curvature="0" />
      <path
         d="m 537.76589,583.68725 c 1.15642,-0.4929 1.81994,-1.49765 1.81994,-2.8626 0,-1.9716 -1.38391,-2.99531 -3.7157,-2.99531 l -3.79153,0.019 0.1327,8.51198 -0.1327,3.65882 0.019,0 c 0.87205,0.0569 2.46449,0.0758 2.95739,0.0758 3.45029,0 5.21335,-1.15641 5.21335,-3.4882 0,-1.59244 -0.79622,-2.55928 -2.50241,-2.91948 z m -0.18957,-2.63511 c 0,1.19433 -0.54978,1.81993 -1.63036,2.08534 l -1.95264,-0.0569 0.0569,-3.73466 1.28912,0 c 1.63036,0 2.23701,0.4929 2.23701,1.70619 z m -2.19909,7.52618 c -0.34124,0 -0.87205,-0.019 -1.36495,-0.0569 l -0.0569,-2.33179 0.019,-1.59244 2.21805,-0.019 c 1.38391,0.18958 2.1043,0.79622 2.1043,1.91472 0,1.36495 -1.06163,2.08534 -2.91948,2.08534 z"
         style="color:#000000;font-style:normal;font-variant:normal;font-weight:500;font-stretch:normal;font-size:medium;line-height:125%;font-family:'Alegreya Sans sc';-inkscape-font-specification:'Alegreya Sans sc Medium';text-indent:0;text-align:start;text-decoration:none;text-decoration-line:none;letter-spacing:0px;word-spacing:0px;text-transform:none;direction:ltr;block-progression:tb;writing-mode:lr-tb;baseline-shift:baseline;text-anchor:start;visibility:visible;fill:#ffffff;fill-opacity:1;fill-rule:nonzero;stroke:none;stroke-width:1px;stroke-linecap:butt;stroke-linejoin:miter;stroke-opacity:1;marker:none"
         id="path18917"
         inkscape:connector-curvature="0" />
      <path
         d="m 545.64931,577.8483 -0.019,0 0.1327,8.51198 -0.1327,3.65882 0.019,0 c 1.11851,0.0569 3.26072,0.11375 4.0759,0.11375 3.82944,0 5.9527,-2.35075 5.9527,-6.63518 0,-3.69674 -1.93368,-5.7252 -5.42189,-5.7252 l -4.60671,0.0758 z m 4.41714,10.73002 c -0.39811,0 -1.63036,-0.0569 -2.48346,-0.1327 l -0.0569,-2.25596 0.0948,-6.74892 c 0.72039,-0.0379 2.08534,-0.0758 2.48345,-0.0758 2.36971,0 3.54508,1.42182 3.54508,4.56879 0,3.16593 -1.30808,4.64462 -3.58299,4.64462 z"
         style="color:#000000;font-style:normal;font-variant:normal;font-weight:500;font-stretch:normal;font-size:medium;line-height:125%;font-family:'Alegreya Sans sc';-inkscape-font-specification:'Alegreya Sans sc Medium';text-indent:0;text-align:start;text-decoration:none;text-decoration-line:none;letter-spacing:0px;word-spacing:0px;text-transform:none;direction:ltr;block-progression:tb;writing-mode:lr-tb;baseline-shift:baseline;text-anchor:start;visibility:visible;fill:#ffffff;fill-opacity:1;fill-rule:nonzero;stroke:none;stroke-width:1px;stroke-linecap:butt;stroke-linejoin:miter;stroke-opacity:1;marker:none"
         id="path18919"
         inkscape:connector-curvature="0" />
      <path
         d="m 559.856,586.18966 0.11375,-8.34136 -2.00951,0 0.1327,8.51198 -0.1327,3.65882 1.99055,0 -0.0948,-3.82944 z"
         style="color:#000000;font-style:normal;font-variant:normal;font-weight:500;font-stretch:normal;font-size:medium;line-height:125%;font-family:'Alegreya Sans sc';-inkscape-font-specification:'Alegreya Sans sc Medium';text-indent:0;text-align:start;text-decoration:none;text-decoration-line:none;letter-spacing:0px;word-spacing:0px;text-transform:none;direction:ltr;block-progression:tb;writing-mode:lr-tb;baseline-shift:baseline;text-anchor:start;visibility:visible;fill:#ffffff;fill-opacity:1;fill-rule:nonzero;stroke:none;stroke-width:1px;stroke-linecap:butt;stroke-linejoin:miter;stroke-opacity:1;marker:none"
         id="path18921"
         inkscape:connector-curvature="0" />
      <path
         d="m 566.81907,577.71559 c -2.48345,0 -4.17068,1.55453 -4.17068,3.54508 0,3.56404 5.4598,3.24176 5.4598,5.61147 0,0.891 -0.77726,1.76306 -2.16117,1.76306 -0.89101,0 -2.12325,-0.39811 -3.10905,-1.32704 l -0.24645,0.11375 -0.24645,1.93368 c 1.08059,0.53081 2.31283,0.81518 3.41238,0.81518 2.57824,0 4.28442,-1.63036 4.28442,-3.60196 0,-3.54508 -5.47876,-3.33654 -5.47876,-5.57354 0,-0.83414 0.72039,-1.70619 2.02847,-1.70619 0.77727,0 1.68723,0.34124 2.48345,0.92892 l 0.30333,-0.11374 0.32228,-1.78202 c -1.08059,-0.45499 -2.08535,-0.60665 -2.88157,-0.60665 z"
         style="color:#000000;font-style:normal;font-variant:normal;font-weight:500;font-stretch:normal;font-size:medium;line-height:125%;font-family:'Alegreya Sans sc';-inkscape-font-specification:'Alegreya Sans sc Medium';text-indent:0;text-align:start;text-decoration:none;text-decoration-line:none;letter-spacing:0px;word-spacing:0px;text-transform:none;direction:ltr;block-progression:tb;writing-mode:lr-tb;baseline-shift:baseline;text-anchor:start;visibility:visible;fill:#ffffff;fill-opacity:1;fill-rule:nonzero;stroke:none;stroke-width:1px;stroke-linecap:butt;stroke-linejoin:miter;stroke-opacity:1;marker:none"
         id="path18923"
         inkscape:connector-curvature="0" />
      <path
         d="m 579.60453,588.35083 -2.93844,0.0948 -2.31283,-0.019 -0.0569,-2.237 0.019,-1.57348 2.06639,-0.0379 2.14221,0.0569 0.15166,-1.49765 -0.1327,-0.15166 -2.00951,0.0569 -2.19909,-0.0379 0.0569,-3.54508 2.31284,-0.019 2.88156,0.0758 0.15166,-1.49765 -0.11375,-0.17062 -7.22286,0 0.1327,8.51198 -0.1327,3.65882 7.18495,0 0.1327,-1.49765 -0.11374,-0.17062 z"
         style="color:#000000;font-style:normal;font-variant:normal;font-weight:500;font-stretch:normal;font-size:medium;line-height:125%;font-family:'Alegreya Sans sc';-inkscape-font-specification:'Alegreya Sans sc Medium';text-indent:0;text-align:start;text-decoration:none;text-decoration-line:none;letter-spacing:0px;word-spacing:0px;text-transform:none;direction:ltr;block-progression:tb;writing-mode:lr-tb;baseline-shift:baseline;text-anchor:start;visibility:visible;fill:#ffffff;fill-opacity:1;fill-rule:nonzero;stroke:none;stroke-width:1px;stroke-linecap:butt;stroke-linejoin:miter;stroke-opacity:1;marker:none"
         id="path18925"
         inkscape:connector-curvature="0" />
      <path
         d="m 583.6271,586.18966 0.11375,-8.34136 -2.00951,0 0.1327,8.51198 -0.1327,3.65882 1.99055,0 -0.0948,-3.82944 z"
         style="color:#000000;font-style:normal;font-variant:normal;font-weight:500;font-stretch:normal;font-size:medium;line-height:125%;font-family:'Alegreya Sans sc';-inkscape-font-specification:'Alegreya Sans sc Medium';text-indent:0;text-align:start;text-decoration:none;text-decoration-line:none;letter-spacing:0px;word-spacing:0px;text-transform:none;direction:ltr;block-progression:tb;writing-mode:lr-tb;baseline-shift:baseline;text-anchor:start;visibility:visible;fill:#ffffff;fill-opacity:1;fill-rule:nonzero;stroke:none;stroke-width:1px;stroke-linecap:butt;stroke-linejoin:miter;stroke-opacity:1;marker:none"
         id="path18927"
         inkscape:connector-curvature="0" />
      <path
         d="m 596.6756,586.37924 0.1327,-8.56886 -1.83889,0.13271 0.0569,9.02383 -0.15166,0 -5.72521,-9.11862 -2.08534,0 0.0948,8.56885 -0.1327,3.60195 1.83889,0 -0.0948,-4.07589 0.019,-5.04273 0.15166,0 5.70625,9.11862 2.1043,0 -0.0758,-3.63986 z"
         style="color:#000000;font-style:normal;font-variant:normal;font-weight:500;font-stretch:normal;font-size:medium;line-height:125%;font-family:'Alegreya Sans sc';-inkscape-font-specification:'Alegreya Sans sc Medium';text-indent:0;text-align:start;text-decoration:none;text-decoration-line:none;letter-spacing:0px;word-spacing:0px;text-transform:none;direction:ltr;block-progression:tb;writing-mode:lr-tb;baseline-shift:baseline;text-anchor:start;visibility:visible;fill:#ffffff;fill-opacity:1;fill-rule:nonzero;stroke:none;stroke-width:1px;stroke-linecap:butt;stroke-linejoin:miter;stroke-opacity:1;marker:none"
         id="path18929"
         inkscape:connector-curvature="0" />
      <path
         d="m 609.12306,590.0191 -3.92423,-12.1708 -2.29388,0 -4.3413,12.1708 1.95264,0 0.30332,-1.45973 0.56873,-1.59245 2.33179,-0.0569 2.57824,0.0569 0.53081,1.68723 0.28437,1.36495 2.00951,0 z m -3.31759,-4.64462 -1.95264,0.0379 -1.91472,-0.0379 1.99055,-5.61146 0.13271,0 1.7441,5.61146 z"
         style="color:#000000;font-style:normal;font-variant:normal;font-weight:500;font-stretch:normal;font-size:medium;line-height:125%;font-family:'Alegreya Sans sc';-inkscape-font-specification:'Alegreya Sans sc Medium';text-indent:0;text-align:start;text-decoration:none;text-decoration-line:none;letter-spacing:0px;word-spacing:0px;text-transform:none;direction:ltr;block-progression:tb;writing-mode:lr-tb;baseline-shift:baseline;text-anchor:start;visibility:visible;fill:#ffffff;fill-opacity:1;fill-rule:nonzero;stroke:none;stroke-width:1px;stroke-linecap:butt;stroke-linejoin:miter;stroke-opacity:1;marker:none"
         id="path18931"
         inkscape:connector-curvature="0" />
      <path
         d="m 617.54322,578.01892 -0.11374,-0.17062 -8.4172,0 -0.15166,1.47869 0.13271,0.17062 2.237,-0.11374 1.02371,0 0.0948,6.97641 -0.11375,3.65882 1.9716,0 -0.0948,-3.82944 0.0948,-6.80579 1.02371,0 2.19909,0.11374 0.11374,-1.47869 z"
         style="color:#000000;font-style:normal;font-variant:normal;font-weight:500;font-stretch:normal;font-size:medium;line-height:125%;font-family:'Alegreya Sans sc';-inkscape-font-specification:'Alegreya Sans sc Medium';text-indent:0;text-align:start;text-decoration:none;text-decoration-line:none;letter-spacing:0px;word-spacing:0px;text-transform:none;direction:ltr;block-progression:tb;writing-mode:lr-tb;baseline-shift:baseline;text-anchor:start;visibility:visible;fill:#ffffff;fill-opacity:1;fill-rule:nonzero;stroke:none;stroke-width:1px;stroke-linecap:butt;stroke-linejoin:miter;stroke-opacity:1;marker:none"
         id="path18933"
         inkscape:connector-curvature="0" />
      <path
         d="m 627.27116,579.27012 0,-1.44078 -1.02372,0.019 -7.48827,-0.019 -0.15166,1.6114 0.11375,0.11374 1.95264,-0.15166 4.30338,0 -6.52143,9.25133 0,1.42183 1.23225,-0.0569 5.11856,0 2.44554,0.0379 0.17062,-1.6114 -0.0948,-0.11375 -1.91472,0.15166 -4.62567,0 6.48352,-9.21341 z"
         style="color:#000000;font-style:normal;font-variant:normal;font-weight:500;font-stretch:normal;font-size:medium;line-height:125%;font-family:'Alegreya Sans sc';-inkscape-font-specification:'Alegreya Sans sc Medium';text-indent:0;text-align:start;text-decoration:none;text-decoration-line:none;letter-spacing:0px;word-spacing:0px;text-transform:none;direction:ltr;block-progression:tb;writing-mode:lr-tb;baseline-shift:baseline;text-anchor:start;visibility:visible;fill:#ffffff;fill-opacity:1;fill-rule:nonzero;stroke:none;stroke-width:1px;stroke-linecap:butt;stroke-linejoin:miter;stroke-opacity:1;marker:none"
         id="path18935"
         inkscape:connector-curvature="0" />
      <path
         d="m 638.78142,590.0191 -3.92424,-12.1708 -2.29387,0 -4.3413,12.1708 1.95263,0 0.30333,-1.45973 0.56873,-1.59245 2.33179,-0.0569 2.57824,0.0569 0.53081,1.68723 0.28436,1.36495 2.00952,0 z m -3.31759,-4.64462 -1.95264,0.0379 -1.91472,-0.0379 1.99055,-5.61146 0.1327,0 1.74411,5.61146 z"
         style="color:#000000;font-style:normal;font-variant:normal;font-weight:500;font-stretch:normal;font-size:medium;line-height:125%;font-family:'Alegreya Sans sc';-inkscape-font-specification:'Alegreya Sans sc Medium';text-indent:0;text-align:start;text-decoration:none;text-decoration-line:none;letter-spacing:0px;word-spacing:0px;text-transform:none;direction:ltr;block-progression:tb;writing-mode:lr-tb;baseline-shift:baseline;text-anchor:start;visibility:visible;fill:#ffffff;fill-opacity:1;fill-rule:nonzero;stroke:none;stroke-width:1px;stroke-linecap:butt;stroke-linejoin:miter;stroke-opacity:1;marker:none"
         id="path18937"
         inkscape:connector-curvature="0" />
      <path
         d="m 642.68461,586.18966 0.11375,-8.34136 -2.00951,0 0.1327,8.51198 -0.1327,3.65882 1.99055,0 -0.0948,-3.82944 z"
         style="color:#000000;font-style:normal;font-variant:normal;font-weight:500;font-stretch:normal;font-size:medium;line-height:125%;font-family:'Alegreya Sans sc';-inkscape-font-specification:'Alegreya Sans sc Medium';text-indent:0;text-align:start;text-decoration:none;text-decoration-line:none;letter-spacing:0px;word-spacing:0px;text-transform:none;direction:ltr;block-progression:tb;writing-mode:lr-tb;baseline-shift:baseline;text-anchor:start;visibility:visible;fill:#ffffff;fill-opacity:1;fill-rule:nonzero;stroke:none;stroke-width:1px;stroke-linecap:butt;stroke-linejoin:miter;stroke-opacity:1;marker:none"
         id="path18939"
         inkscape:connector-curvature="0" />
      <path
         d="m 652.43446,588.55937 -0.1327,-0.17062 -4.3413,0 -0.0379,-2.19909 0.11375,-8.34136 -2.00951,0 0.1327,8.51198 -0.1327,3.65882 6.25602,0 0.15166,-1.45973 z"
         style="color:#000000;font-style:normal;font-variant:normal;font-weight:500;font-stretch:normal;font-size:medium;line-height:125%;font-family:'Alegreya Sans sc';-inkscape-font-specification:'Alegreya Sans sc Medium';text-indent:0;text-align:start;text-decoration:none;text-decoration-line:none;letter-spacing:0px;word-spacing:0px;text-transform:none;direction:ltr;block-progression:tb;writing-mode:lr-tb;baseline-shift:baseline;text-anchor:start;visibility:visible;fill:#ffffff;fill-opacity:1;fill-rule:nonzero;stroke:none;stroke-width:1px;stroke-linecap:butt;stroke-linejoin:miter;stroke-opacity:1;marker:none"
         id="path18941"
         inkscape:connector-curvature="0" />
      <path
         d="m 661.32234,588.35083 -2.93843,0.0948 -2.31283,-0.019 -0.0569,-2.237 0.019,-1.57348 2.06639,-0.0379 2.14221,0.0569 0.15166,-1.49765 -0.1327,-0.15166 -2.00951,0.0569 -2.19909,-0.0379 0.0569,-3.54508 2.31284,-0.019 2.88156,0.0758 0.15166,-1.49765 -0.11375,-0.17062 -7.22286,0 0.1327,8.51198 -0.1327,3.65882 7.18495,0 0.1327,-1.49765 -0.11375,-0.17062 z"
         style="color:#000000;font-style:normal;font-variant:normal;font-weight:500;font-stretch:normal;font-size:medium;line-height:125%;font-family:'Alegreya Sans sc';-inkscape-font-specification:'Alegreya Sans sc Medium';text-indent:0;text-align:start;text-decoration:none;text-decoration-line:none;letter-spacing:0px;word-spacing:0px;text-transform:none;direction:ltr;block-progression:tb;writing-mode:lr-tb;baseline-shift:baseline;text-anchor:start;visibility:visible;fill:#ffffff;fill-opacity:1;fill-rule:nonzero;stroke:none;stroke-width:1px;stroke-linecap:butt;stroke-linejoin:miter;stroke-opacity:1;marker:none"
         id="path18943"
         inkscape:connector-curvature="0" />
      <path
         d="m 672.58673,590.0191 -3.92423,-12.1708 -2.29388,0 -4.3413,12.1708 1.95264,0 0.30332,-1.45973 0.56873,-1.59245 2.33179,-0.0569 2.57824,0.0569 0.53081,1.68723 0.28437,1.36495 2.00951,0 z m -3.31759,-4.64462 -1.95264,0.0379 -1.91472,-0.0379 1.99055,-5.61146 0.13271,0 1.7441,5.61146 z"
         style="color:#000000;font-style:normal;font-variant:normal;font-weight:500;font-stretch:normal;font-size:medium;line-height:125%;font-family:'Alegreya Sans sc';-inkscape-font-specification:'Alegreya Sans sc Medium';text-indent:0;text-align:start;text-decoration:none;text-decoration-line:none;letter-spacing:0px;word-spacing:0px;text-transform:none;direction:ltr;block-progression:tb;writing-mode:lr-tb;baseline-shift:baseline;text-anchor:start;visibility:visible;fill:#ffffff;fill-opacity:1;fill-rule:nonzero;stroke:none;stroke-width:1px;stroke-linecap:butt;stroke-linejoin:miter;stroke-opacity:1;marker:none"
         id="path18945"
         inkscape:connector-curvature="0" />
    </g>
  </g>
</svg>
