<?xml version="1.0" encoding="UTF-8" standalone="no"?>
<!-- Created with Inkscape (http://www.inkscape.org/) -->

<svg
   xmlns:dc="http://purl.org/dc/elements/1.1/"
   xmlns:cc="http://creativecommons.org/ns#"
   xmlns:rdf="http://www.w3.org/1999/02/22-rdf-syntax-ns#"
   xmlns:svg="http://www.w3.org/2000/svg"
   xmlns="http://www.w3.org/2000/svg"
   xmlns:sodipodi="http://sodipodi.sourceforge.net/DTD/sodipodi-0.dtd"
   xmlns:inkscape="http://www.inkscape.org/namespaces/inkscape"
   width="170"
   height="170"
   id="svg2"
   sodipodi:version="0.32"
   inkscape:version="0.91pre1 r13432"
   sodipodi:docname="multimedia.svg"
   inkscape:output_extension="org.inkscape.output.svg.inkscape"
   version="1.1"
   viewBox="0 0 169.99998 170.00001">
  <defs
     id="defs4" />
  <sodipodi:namedview
     id="base"
     pagecolor="#ffffff"
     bordercolor="#666666"
     borderopacity="1.0"
     inkscape:pageopacity="0.0"
     inkscape:pageshadow="2"
     inkscape:zoom="0.95703126"
     inkscape:cx="119.84451"
     inkscape:cy="-108.33676"
     inkscape:document-units="px"
     inkscape:current-layer="layer1"
     inkscape:window-width="906"
     inkscape:window-height="879"
     inkscape:window-x="0"
     inkscape:window-y="19"
     showgrid="false"
     fit-margin-top="0"
     fit-margin-left="0"
     fit-margin-right="0"
     fit-margin-bottom="0"
     inkscape:window-maximized="0" />
  <metadata
     id="metadata7">
    <rdf:RDF>
      <cc:Work
         rdf:about="">
        <dc:format>image/svg+xml</dc:format>
        <dc:type
           rdf:resource="http://purl.org/dc/dcmitype/StillImage" />
        <dc:title></dc:title>
      </cc:Work>
    </rdf:RDF>
  </metadata>
  <g
     inkscape:label="Capa 1"
     inkscape:groupmode="layer"
     id="layer1"
     transform="translate(-664.56769,297.88669)">
    <g
       id="g7878"
       transform="translate(-46.01958,-32.512125)">
      <path
         d="m 861.0385,-216.22663 c 1.52625,0 2.94499,0.4624 4.12877,1.25008 l 0,-3.56776 c 0,-2.2787 -1.85251,-4.13114 -4.13001,-4.13114 l -93.02126,0 0,6.44882 93.0225,0 z"
         style="fill:#666666;fill-opacity:1;fill-rule:nonzero;stroke:none"
         id="path20934-5-8-0-4"
         inkscape:connector-curvature="0" />
      <path
         d="m 760.54539,-225.78222 -9.56374,0 c -2.27877,0 -4.13124,1.85244 -4.13124,4.13114 l 0,5.42374 17.82623,0 0,-5.42374 c 0,-2.2787 -1.85375,-4.13114 -4.13125,-4.13114"
         style="fill:#666666;fill-opacity:1;fill-rule:nonzero;stroke:none"
         id="path20938-6-7-3-0"
         inkscape:connector-curvature="0" />
      <path
         d="m 808.66552,-190.94584 c -9.38374,0 -17.01751,7.6337 -17.01751,17.01886 0,0.92232 -0.74874,1.66854 -1.67,1.66854 -0.92249,0 -1.66999,-0.74622 -1.66999,-1.66854 0,-11.2252 9.13376,-20.35772 20.3575,-20.35772 0.92126,0 1.67,0.74764 1.67,1.66996 0,0.92126 -0.74874,1.6689 -1.67,1.6689 m 0,-7.5561 c -13.54999,0 -24.57251,11.02358 -24.57251,24.57496 0,13.54996 11.02252,24.57354 24.57251,24.57354 13.55124,0 24.57376,-11.02358 24.57376,-24.57354 0,-13.55138 -11.02252,-24.57496 -24.57376,-24.57496"
         style="fill:#b3b3b3;fill-opacity:1;fill-rule:nonzero;stroke:none"
         id="path20942-6-7-0-4"
         inkscape:connector-curvature="0" />
      <path
         d="m 743.176,-142.53824 121.99124,0 0,-47.16744 -33.49247,0 c 3.08997,4.49114 4.905,9.92622 4.905,15.7787 0,15.39106 -12.52251,27.9124 -27.91379,27.9124 -13.31748,0 -24.47872,-9.37736 -27.2475,-21.87355 -1.45998,1.33619 -3.39622,2.16 -5.52624,2.16 -4.52123,0 -8.2,-3.67901 -8.2,-8.19885 0,-4.52268 3.67877,-8.19992 8.2,-8.19992 2.13002,0 4.06626,0.82381 5.52624,2.16 0.78626,-3.55146 2.27002,-6.83646 4.26877,-9.73878 l -44.51627,0 c -0.92123,0 -1.66872,-0.74764 -1.66872,-1.66996 0,-0.92268 0.74749,-1.6689 1.66872,-1.6689 l 47.21127,0 c 5.09124,-5.40248 12.29124,-8.79626 20.28373,-8.79626 7.99877,0 15.21628,3.3874 20.31127,8.79626 l 36.18999,0 0,-15.71492 c 0,-2.27622 -1.85248,-4.12867 -4.12874,-4.12867 l -130.90375,0 c -2.27626,0 -4.1275,1.85245 -4.1275,4.12867 l 0,69.66248 c 0,2.27763 1.85124,4.13008 4.1275,4.13008 l 130.90375,0 c 2.27626,0 4.12874,-1.85245 4.12874,-4.13008 l 0,-0.10276 -121.99124,0 c -0.92127,0 -1.67,-0.74764 -1.67,-1.66996 0,-0.92126 0.74873,-1.6689 1.67,-1.6689"
         style="fill:#666666;fill-opacity:1;fill-rule:nonzero;stroke:none"
         id="path20946-8-0-2-6"
         inkscape:connector-curvature="0" />
      <path
         d="m 771.03238,-173.92734 c 0,2.68016 2.17998,4.86 4.86,4.86 2.68001,0 4.86,-2.17984 4.86,-4.86 0,-2.68016 -2.17999,-4.86142 -4.86,-4.86142 -2.68002,0 -4.86,2.18126 -4.86,4.86142"
         style="fill:#b3b3b3;fill-opacity:1;fill-rule:nonzero;stroke:none"
         id="path20950-8-0-5-7"
         inkscape:connector-curvature="0" />
      <path
         d="m 850.4904,-197.12183 -13.00376,0 c -0.9225,0 -1.67,-0.74763 -1.67,-1.66889 0,-0.92233 0.7475,-1.66996 1.67,-1.66996 l 13.00376,0 c 1.29625,0 2.34999,-1.05485 2.34999,-2.34993 0,-1.29614 -1.05374,-2.35133 -2.34999,-2.35133 l -13.00376,0 c -0.9225,0 -1.67,-0.74622 -1.67,-1.66855 0,-0.92267 0.7475,-1.66996 1.67,-1.66996 l 13.00376,0 c 3.13749,0 5.68998,2.55225 5.68998,5.68984 0,3.13619 -2.55249,5.68878 -5.68998,5.68878"
         style="fill:#ffffff;fill-opacity:1;fill-rule:nonzero;stroke:none"
         id="path20954-6-2-8-2"
         inkscape:connector-curvature="0" />
    </g>
  </g>
</svg>
