<?xml version="1.0" encoding="UTF-8" standalone="no"?>
<!-- Created with Inkscape (http://www.inkscape.org/) -->

<svg
   xmlns:dc="http://purl.org/dc/elements/1.1/"
   xmlns:cc="http://creativecommons.org/ns#"
   xmlns:rdf="http://www.w3.org/1999/02/22-rdf-syntax-ns#"
   xmlns:svg="http://www.w3.org/2000/svg"
   xmlns="http://www.w3.org/2000/svg"
   xmlns:sodipodi="http://sodipodi.sourceforge.net/DTD/sodipodi-0.dtd"
   xmlns:inkscape="http://www.inkscape.org/namespaces/inkscape"
   width="170"
   height="170"
   id="svg2"
   sodipodi:version="0.32"
   inkscape:version="0.91pre1 r13432"
   sodipodi:docname="multimedia.svg"
   inkscape:output_extension="org.inkscape.output.svg.inkscape"
   version="1.1"
   viewBox="0 0 169.99998 170.00001">
  <defs
     id="defs4" />
  <sodipodi:namedview
     id="base"
     pagecolor="#ffffff"
     bordercolor="#666666"
     borderopacity="1.0"
     inkscape:pageopacity="0.0"
     inkscape:pageshadow="2"
     inkscape:zoom="0.47851563"
     inkscape:cx="218.45543"
     inkscape:cy="-7.5317727"
     inkscape:document-units="px"
     inkscape:current-layer="layer1"
     inkscape:window-width="1598"
     inkscape:window-height="879"
     inkscape:window-x="0"
     inkscape:window-y="19"
     showgrid="false"
     fit-margin-top="0"
     fit-margin-left="0"
     fit-margin-right="0"
     fit-margin-bottom="0"
     inkscape:window-maximized="0" />
  <metadata
     id="metadata7">
    <rdf:RDF>
      <cc:Work
         rdf:about="">
        <dc:format>image/svg+xml</dc:format>
        <dc:type
           rdf:resource="http://purl.org/dc/dcmitype/StillImage" />
        <dc:title></dc:title>
      </cc:Work>
    </rdf:RDF>
  </metadata>
  <g
     inkscape:label="Capa 1"
     inkscape:groupmode="layer"
     id="layer1"
     transform="translate(-664.56769,297.88669)">
    <g
       transform="matrix(3.5433071,0,0,3.5433071,103.89402,-3353.7259)"
       id="g22112">
      <path
         d="m 200.69525,876.29636 c 0.43074,0 0.83114,0.1305 1.16523,0.3528 l 0,-1.0069 c 0,-0.6431 -0.52282,-1.1659 -1.16558,-1.1659 l -26.25267,0 0,1.82 26.25302,0 z"
         style="fill:#f4534e;fill-opacity:1;fill-rule:nonzero;stroke:none"
         id="path20934-5-8-0"
         inkscape:connector-curvature="0" />
      <path
         d="m 172.33386,873.59956 -2.6991,0 c -0.64312,0 -1.16593,0.5228 -1.16593,1.1659 l 0,1.5307 5.03096,0 0,-1.5307 c 0,-0.6431 -0.52317,-1.1659 -1.16593,-1.1659"
         style="fill:#f4534e;fill-opacity:1;fill-rule:nonzero;stroke:none"
         id="path20938-6-7-3"
         inkscape:connector-curvature="0" />
      <path
         d="m 185.91443,883.43116 c -2.6483,0 -4.80272,2.1544 -4.80272,4.8031 0,0.2603 -0.21131,0.4709 -0.47131,0.4709 -0.26035,0 -0.47131,-0.2106 -0.47131,-0.4709 0,-3.168 2.57775,-5.7454 5.74534,-5.7454 0.26,0 0.47131,0.211 0.47131,0.4713 0,0.26 -0.21131,0.471 -0.47131,0.471 m 0,-2.1325 c -3.82411,0 -6.93491,3.1111 -6.93491,6.9356 0,3.8241 3.1108,6.9352 6.93491,6.9352 3.82446,0 6.93526,-3.1111 6.93526,-6.9352 0,-3.8245 -3.1108,-6.9356 -6.93526,-6.9356"
         style="fill:#f89592;fill-opacity:1;fill-rule:nonzero;stroke:none"
         id="path20942-6-7-0"
         inkscape:connector-curvature="0" />
      <path
         d="m 167.43183,897.09286 34.42864,0 0,-13.3117 -9.45232,0 c 0.87206,1.2675 1.3843,2.8014 1.3843,4.4531 0,4.3437 -3.53413,7.8775 -7.87789,7.8775 -3.75849,0 -6.90844,-2.6465 -7.68985,-6.1732 -0.41204,0.3771 -0.95849,0.6096 -1.55963,0.6096 -1.27599,0 -2.31422,-1.0383 -2.31422,-2.3139 0,-1.2764 1.03823,-2.3142 2.31422,-2.3142 0.60114,0 1.14759,0.2325 1.55963,0.6096 0.2219,-1.0023 0.64065,-1.9294 1.20474,-2.7485 l -12.56348,0 c -0.25999,0 -0.47095,-0.211 -0.47095,-0.4713 0,-0.2604 0.21096,-0.471 0.47095,-0.471 l 13.32407,0 c 1.43686,-1.5247 3.46886,-2.4825 5.72452,-2.4825 2.25743,0 4.29437,0.956 5.73229,2.4825 l 10.21362,0 0,-4.4351 c 0,-0.6424 -0.52281,-1.1652 -1.16522,-1.1652 l -36.94395,0 c -0.64241,0 -1.16487,0.5228 -1.16487,1.1652 l 0,19.6603 c 0,0.6428 0.52246,1.1656 1.16487,1.1656 l 36.94395,0 c 0.64241,0 1.16522,-0.5228 1.16522,-1.1656 l 0,-0.029 -34.42864,0 c -0.26,0 -0.47131,-0.211 -0.47131,-0.4713 0,-0.26 0.21131,-0.471 0.47131,-0.471"
         style="fill:#f4534e;fill-opacity:1;fill-rule:nonzero;stroke:none"
         id="path20946-8-0-2"
         inkscape:connector-curvature="0" />
      <path
         d="m 175.29352,888.23416 c 0,0.7564 0.61524,1.3716 1.3716,1.3716 0.75636,0 1.3716,-0.6152 1.3716,-1.3716 0,-0.7564 -0.61524,-1.372 -1.3716,-1.372 -0.75636,0 -1.3716,0.6156 -1.3716,1.372"
         style="fill:#f4534e;fill-opacity:1;fill-rule:nonzero;stroke:none"
         id="path20950-8-0-5"
         inkscape:connector-curvature="0" />
      <path
         d="m 197.71834,881.68816 -3.66995,0 c -0.26035,0 -0.47131,-0.211 -0.47131,-0.471 0,-0.2603 0.21096,-0.4713 0.47131,-0.4713 l 3.66995,0 c 0.36583,0 0.66322,-0.2977 0.66322,-0.6632 0,-0.3658 -0.29739,-0.6636 -0.66322,-0.6636 l -3.66995,0 c -0.26035,0 -0.47131,-0.2106 -0.47131,-0.4709 0,-0.2604 0.21096,-0.4713 0.47131,-0.4713 l 3.66995,0 c 0.88547,0 1.60584,0.7203 1.60584,1.6058 0,0.8851 -0.72037,1.6055 -1.60584,1.6055"
         style="fill:#ffffff;fill-opacity:1;fill-rule:nonzero;stroke:none"
         id="path20954-6-2-8"
         inkscape:connector-curvature="0" />
    </g>
  </g>
</svg>
