<?xml version="1.0" encoding="UTF-8" standalone="no"?>
<!-- Created with Inkscape (http://www.inkscape.org/) -->

<svg
   xmlns:dc="http://purl.org/dc/elements/1.1/"
   xmlns:cc="http://creativecommons.org/ns#"
   xmlns:rdf="http://www.w3.org/1999/02/22-rdf-syntax-ns#"
   xmlns:svg="http://www.w3.org/2000/svg"
   xmlns="http://www.w3.org/2000/svg"
   xmlns:sodipodi="http://sodipodi.sourceforge.net/DTD/sodipodi-0.dtd"
   xmlns:inkscape="http://www.inkscape.org/namespaces/inkscape"
   width="170"
   height="170"
   id="svg2"
   sodipodi:version="0.32"
   inkscape:version="0.91pre1 r13432"
   sodipodi:docname="web.svg"
   inkscape:output_extension="org.inkscape.output.svg.inkscape"
   version="1.1"
   viewBox="0 0 169.99998 170.00001">
  <defs
     id="defs4" />
  <sodipodi:namedview
     id="base"
     pagecolor="#ffffff"
     bordercolor="#666666"
     borderopacity="1.0"
     inkscape:pageopacity="0.0"
     inkscape:pageshadow="2"
     inkscape:zoom="0.47851563"
     inkscape:cx="218.45543"
     inkscape:cy="-7.5317727"
     inkscape:document-units="px"
     inkscape:current-layer="layer1"
     inkscape:window-width="1598"
     inkscape:window-height="879"
     inkscape:window-x="0"
     inkscape:window-y="19"
     showgrid="false"
     fit-margin-top="0"
     fit-margin-left="0"
     fit-margin-right="0"
     fit-margin-bottom="0"
     inkscape:window-maximized="0" />
  <metadata
     id="metadata7">
    <rdf:RDF>
      <cc:Work
         rdf:about="">
        <dc:format>image/svg+xml</dc:format>
        <dc:type
           rdf:resource="http://purl.org/dc/dcmitype/StillImage" />
        <dc:title></dc:title>
      </cc:Work>
    </rdf:RDF>
  </metadata>
  <g
     inkscape:label="Capa 1"
     inkscape:groupmode="layer"
     id="layer1"
     transform="translate(-664.56769,297.88669)">
    <g
       transform="matrix(3.5433071,0,0,3.5433071,565.85279,-3364.107)"
       id="g22138">
      <path
         d="m 71.69496,902.92366 c 0.0325,0 0.0649,-0.01 0.096,-0.022 0.01,0 0.0197,-0.01 0.0293,-0.013 0.0282,-0.013 0.0547,-0.029 0.0797,-0.048 0.007,-0.01 0.0148,-0.011 0.0215,-0.017 0.031,-0.027 0.0596,-0.057 0.0822,-0.091 0.0991,-0.1454 0.11642,-0.3553 -0.009,-0.4788 -6.65127,-6.5511 -10.56957,-11.0416 -15.22518,-14.3079 -0.002,7e-4 -0.004,0 -0.007,0 -0.0995,0.036 -2.30293,0.8746 -3.06387,3.9586 -0.0529,0.2145 -0.24553,0.358 -0.45685,0.358 -0.0374,0 -0.0755,0 -0.11359,-0.014 -0.25259,-0.062 -0.40676,-0.3175 -0.34431,-0.5705 0.64452,-2.613 2.21897,-3.8417 3.07975,-4.3363 -0.005,0 -0.01,-0.01 -0.0145,-0.01 -0.60819,-0.3581 -1.19168,-0.6008 -1.74836,-0.7324 -0.0459,-0.011 -0.0917,-0.024 -0.13724,-0.033 -0.0649,-0.013 -0.12876,-0.022 -0.19296,-0.032 -0.06,-0.01 -0.1203,-0.02 -0.17922,-0.026 -0.0564,-0.01 -0.11218,-0.01 -0.16792,-0.013 -0.0653,0 -0.13088,-0.01 -0.19544,-0.01 -0.0942,0 -0.18803,-10e-4 -0.2801,0 -0.001,0 -0.002,0 -0.002,0 -1.02412,0.068 -1.9043,0.6025 -2.54565,1.5458 l -0.0706,0.1041 c -0.63677,0.9461 -0.80539,1.9621 -0.48754,2.9379 0.32103,0.9846 1.11866,1.9103 2.37067,2.7524 4.84893,3.2597 10.55052,5.2264 19.34421,9.066 0.003,0 0.006,7e-4 0.009,0 0.036,0.014 0.0734,0.022 0.11077,0.021 0.006,-3e-4 0.012,0 0.018,0"
         style="fill:#f4534e;fill-opacity:1;fill-rule:nonzero;stroke:none"
         id="path21250-7-4-4"
         inkscape:connector-curvature="0" />
      <path
         d="m 52.55158,898.69976 c 0,-0.2604 0.21096,-0.471 0.47131,-0.471 l 1.41111,0 c 0.26,0 0.47096,0.2106 0.47096,0.471 0,0.2604 -0.21096,0.4713 -0.47096,0.4713 l -1.41111,0 c -0.26035,0 -0.47131,-0.2109 -0.47131,-0.4713 m 3.99909,-0.471 1.41111,0 c 0.26,0 0.47096,0.2106 0.47096,0.471 0,0.2604 -0.21096,0.4713 -0.47096,0.4713 l -1.41111,0 c -0.26035,0 -0.47131,-0.2109 -0.47131,-0.4713 0,-0.2604 0.21096,-0.471 0.47131,-0.471 m -5.64445,0.9423 -1.41111,0 c -0.26035,0 -0.47131,-0.2109 -0.47131,-0.4713 0,-0.2604 0.21096,-0.471 0.47131,-0.471 l 1.41111,0 c 0.26,0 0.47096,0.2106 0.47096,0.471 0,0.2604 -0.21096,0.4713 -0.47096,0.4713 m -3.52777,0 -1.41111,0 c -0.26035,0 -0.47132,-0.2109 -0.47132,-0.4713 0,-0.2604 0.21097,-0.471 0.47132,-0.471 l 1.41111,0 c 0.25999,0 0.47095,0.2106 0.47095,0.471 0,0.2604 -0.21096,0.4713 -0.47095,0.4713 m -3.52778,0 -1.41111,0 c -0.26035,0 -0.47131,-0.2109 -0.47131,-0.4713 0,-0.2604 0.21096,-0.471 0.47131,-0.471 l 1.41111,0 c 0.26,0 0.47096,0.2106 0.47096,0.471 0,0.2604 -0.21096,0.4713 -0.47096,0.4713 m -3.52778,0 -1.41111,0 c -0.26035,0 -0.47131,-0.2109 -0.47131,-0.4713 0,-0.2604 0.21096,-0.471 0.47131,-0.471 l 1.41111,0 c 0.26,0 0.47096,0.2106 0.47096,0.471 0,0.2604 -0.21096,0.4713 -0.47096,0.4713 m -3.52778,0 -1.41111,0 c -0.26035,0 -0.47131,-0.2109 -0.47131,-0.4713 0,-0.2604 0.21096,-0.471 0.47131,-0.471 l 1.41111,0 c 0.26,0 0.47096,0.2106 0.47096,0.471 0,0.2604 -0.21096,0.4713 -0.47096,0.4713 m -2.54035,-24.5953 c -0.16369,0.01 -0.31256,0.095 -0.39829,0.236 -0.0885,0.1464 -0.24412,0.2272 -0.40322,0.2272 -0.0833,0 -0.16757,-0.022 -0.24412,-0.068 -0.22225,-0.1348 -0.29316,-0.4244 -0.15875,-0.647 3.5e-4,-4e-4 3.5e-4,-4e-4 3.5e-4,-4e-4 3.5e-4,-7e-4 7e-4,0 10e-4,0 0,0 3.5e-4,-3e-4 3.5e-4,-7e-4 3.5e-4,-3e-4 7.1e-4,0 0.001,0 0,0 3.5e-4,-3e-4 3.5e-4,-7e-4 3.5e-4,-7e-4 7.1e-4,0 0.001,0 0,0 3.5e-4,-3e-4 3.5e-4,-7e-4 3.6e-4,-4e-4 7.1e-4,-7e-4 7.1e-4,0 3.5e-4,-4e-4 3.5e-4,-4e-4 3.5e-4,-4e-4 7.1e-4,-7e-4 7.1e-4,0 10e-4,0 3.5e-4,-4e-4 3.5e-4,-4e-4 7.1e-4,-7e-4 0,-7e-4 3.5e-4,0 7e-4,0 3.6e-4,0 3.6e-4,-4e-4 3.6e-4,-4e-4 7e-4,-7e-4 10e-4,0 10e-4,0 0,0 3.5e-4,-3e-4 3.5e-4,-7e-4 3.5e-4,-3e-4 7e-4,-10e-4 0.001,0 0,-3e-4 3.5e-4,-3e-4 3.5e-4,-7e-4 3.5e-4,-7e-4 7.1e-4,-0.001 7.1e-4,0 3.5e-4,-4e-4 3.5e-4,-7e-4 7e-4,-7e-4 l 0.001,0 3.5e-4,-7e-4 c 3.6e-4,-4e-4 7.1e-4,-7e-4 10e-4,0 l 7.1e-4,-7e-4 c 0,-4e-4 3.5e-4,0 7e-4,0 0,0 3.5e-4,-3e-4 7.1e-4,-7e-4 0,-7e-4 3.5e-4,-10e-4 7e-4,0 l 3.6e-4,-7e-4 c 3.5e-4,-7e-4 10e-4,0 10e-4,0 l 3.5e-4,-7e-4 c 3.5e-4,-4e-4 7.1e-4,-7e-4 10e-4,0 0,-4e-4 3.5e-4,-7e-4 3.5e-4,-7e-4 3.5e-4,-4e-4 7.1e-4,-7e-4 10e-4,0 0,-4e-4 3.5e-4,-4e-4 3.5e-4,-7e-4 3.5e-4,-7e-4 7.1e-4,0 0.001,0 0,0 3.5e-4,-4e-4 3.5e-4,-8e-4 3.6e-4,-7e-4 7.1e-4,0 10e-4,0 0,0 3.6e-4,-3e-4 3.6e-4,-7e-4 3.5e-4,-3e-4 7e-4,-7e-4 10e-4,0 0,0 3.5e-4,-3e-4 3.5e-4,-7e-4 3.5e-4,-3e-4 7e-4,-7e-4 10e-4,0 0,0 3.5e-4,-4e-4 3.5e-4,-7e-4 3.5e-4,-4e-4 7e-4,0 10e-4,0 l 3.5e-4,-3e-4 c 3.5e-4,-7e-4 7.1e-4,0 0.001,0 0,-3e-4 0,-7e-4 0,-7e-4 7.1e-4,-7e-4 10e-4,0 10e-4,0 0,-4e-4 3.6e-4,-7e-4 3.6e-4,0 3.5e-4,-3e-4 7e-4,-7e-4 10e-4,-0.001 l 3.6e-4,-7e-4 c 3.5e-4,-7e-4 10e-4,0 10e-4,0 l 0,0 c 3.5e-4,-7e-4 0.001,0 0.001,0 0,0 3.5e-4,-3e-4 3.5e-4,-7e-4 3.5e-4,-3e-4 7.1e-4,-10e-4 10e-4,0 l 3.5e-4,-7e-4 c 3.6e-4,-3e-4 7.1e-4,-7e-4 10e-4,0 0,0 3.5e-4,-3e-4 3.5e-4,-7e-4 l 0.001,0 c 0,0 3.6e-4,-3e-4 3.6e-4,-7e-4 3.5e-4,-3e-4 7e-4,-0.001 10e-4,0 3.5e-4,-3e-4 3.5e-4,-7e-4 7e-4,-0.001 0,-4e-4 3.5e-4,-7e-4 7.1e-4,0 3.5e-4,-3e-4 3.5e-4,-7e-4 7e-4,0 3.6e-4,-3e-4 3.6e-4,-7e-4 7.1e-4,0 l 7e-4,-7e-4 c 3.6e-4,-7e-4 7.1e-4,0 10e-4,0 3.5e-4,-4e-4 3.5e-4,-4e-4 7.1e-4,-7e-4 3.5e-4,-4e-4 7e-4,-7e-4 0.001,0 0,-4e-4 3.5e-4,-7e-4 3.5e-4,0 l 10e-4,-10e-4 c 0,-4e-4 3.5e-4,-7e-4 3.5e-4,0 3.5e-4,-3e-4 7.1e-4,-7e-4 10e-4,-10e-4 0,-4e-4 3.5e-4,-7e-4 3.5e-4,0 7.1e-4,-3e-4 0.001,0 0.001,0 3.5e-4,-3e-4 3.5e-4,-3e-4 3.5e-4,-3e-4 7.1e-4,-7e-4 7.1e-4,0 10e-4,0 0,0 3.6e-4,-7e-4 7.1e-4,0 3.5e-4,-3e-4 3.5e-4,-7e-4 7e-4,0 0,0 3.6e-4,-7e-4 7.1e-4,0 3.5e-4,-3e-4 7.1e-4,-7e-4 7.1e-4,0 3.5e-4,-3e-4 7e-4,0 10e-4,0 3.6e-4,-3e-4 7.1e-4,-7e-4 0.001,0 3.5e-4,-3e-4 3.5e-4,-3e-4 3.5e-4,-3e-4 3.6e-4,-7e-4 7.1e-4,0 10e-4,0 0,0 3.6e-4,-7e-4 7.1e-4,0 3.5e-4,-3e-4 3.5e-4,-7e-4 7e-4,0 3.6e-4,-3e-4 3.6e-4,-7e-4 7.1e-4,0 3.5e-4,-4e-4 7.1e-4,-7e-4 10e-4,0 0,-7e-4 3.5e-4,-0.001 7e-4,0 3.6e-4,-3e-4 7.1e-4,-7e-4 10e-4,0 3.5e-4,-3e-4 3.5e-4,-3e-4 3.5e-4,-3e-4 7.1e-4,-8e-4 7.1e-4,0 0.001,0 3.6e-4,-3e-4 3.6e-4,-7e-4 7.1e-4,-10e-4 3.5e-4,-4e-4 3.5e-4,-7e-4 7e-4,0 3.6e-4,-3e-4 3.6e-4,-7e-4 7.1e-4,-10e-4 3.5e-4,0 3.5e-4,-4e-4 7.1e-4,-7e-4 3.5e-4,-7e-4 0.001,0 0.001,0 3.5e-4,-3e-4 3.5e-4,-3e-4 7e-4,-7e-4 3.5e-4,-3e-4 3.5e-4,-7e-4 7.1e-4,-10e-4 3.5e-4,-4e-4 3.5e-4,-7e-4 7e-4,0 3.6e-4,-3e-4 3.6e-4,-7e-4 7.1e-4,-10e-4 3.5e-4,-4e-4 7e-4,-7e-4 7e-4,-7e-4 3.6e-4,-4e-4 7.1e-4,-7e-4 7.1e-4,0 7.1e-4,-7e-4 10e-4,0 10e-4,0 3.5e-4,-3e-4 7.1e-4,-7e-4 7.1e-4,-10e-4 3.5e-4,-4e-4 7e-4,-7e-4 7e-4,0 3.5e-4,-3e-4 7.1e-4,-7e-4 10e-4,-10e-4 0,-4e-4 3.5e-4,-4e-4 3.5e-4,-7e-4 3.6e-4,-4e-4 7.1e-4,-7e-4 10e-4,0 0,-4e-4 3.5e-4,-7e-4 3.5e-4,-7e-4 7.1e-4,0 0.001,0 0.002,0 3.5e-4,0 3.5e-4,-3e-4 3.5e-4,-3e-4 3.5e-4,-7e-4 7.1e-4,0 0.001,0 0,0 3.5e-4,-4e-4 7e-4,-7e-4 0,-4e-4 3.6e-4,-8e-4 7.1e-4,0 3.5e-4,-4e-4 3.5e-4,-7e-4 7.1e-4,-7e-4 3.5e-4,-7e-4 3.5e-4,0 7e-4,0 l 7.1e-4,-7e-4 c 7e-4,-7e-4 10e-4,0 0.002,0 l 3.5e-4,-4e-4 c 3.6e-4,-7e-4 7.1e-4,0 10e-4,0 0,-4e-4 3.5e-4,-7e-4 3.5e-4,-7e-4 l 10e-4,0 c 0,0 3.6e-4,-4e-4 3.6e-4,-7e-4 3.5e-4,-4e-4 7e-4,-7e-4 10e-4,0 l 3.6e-4,-3e-4 c 7e-4,-7e-4 0.001,0 0.002,0 0,-4e-4 3.6e-4,-4e-4 3.6e-4,-7e-4 3.5e-4,-4e-4 7e-4,-7e-4 10e-4,0 0,-3e-4 3.6e-4,-7e-4 3.6e-4,-7e-4 3.5e-4,-3e-4 7e-4,-7e-4 10e-4,0 0,0 3.5e-4,-3e-4 3.5e-4,-3e-4 10e-4,0 0.002,0 0.004,0 0,-3e-4 3.5e-4,-3e-4 3.5e-4,-3e-4 3.5e-4,-7e-4 7e-4,0 10e-4,0 0,-4e-4 3.5e-4,-7e-4 3.5e-4,-7e-4 3.5e-4,-4e-4 7.1e-4,-8e-4 0.001,0 0,0 3.5e-4,-3e-4 3.5e-4,-3e-4 10e-4,0 0.002,0 0.004,0 0,0 3.5e-4,-4e-4 3.5e-4,-7e-4 3.5e-4,-4e-4 7.1e-4,-8e-4 10e-4,0 0,0 3.5e-4,-4e-4 3.5e-4,-7e-4 3.6e-4,-4e-4 7.1e-4,-7e-4 0.001,0 l 3.5e-4,-3e-4 c 7.1e-4,0 0.002,0 0.002,0 l 0,0 10e-4,0 c 0,0 3.5e-4,-4e-4 3.5e-4,-4e-4 3.6e-4,-7e-4 7.1e-4,-10e-4 0.001,0 3.6e-4,0 3.6e-4,-3e-4 7.1e-4,-7e-4 3.5e-4,-3e-4 7e-4,-7e-4 10e-4,-10e-4 0,0 0,-4e-4 0,-4e-4 0.001,-10e-4 0.002,0 0.002,0 l 3.5e-4,-4e-4 c 3.5e-4,-3e-4 7e-4,-7e-4 0.001,-10e-4 0,-4e-4 0,-4e-4 3.5e-4,-7e-4 3.5e-4,-4e-4 7.1e-4,-7e-4 10e-4,0 0,0 3.5e-4,0 3.5e-4,-4e-4 l 0.004,0 0,-4e-4 c 3.5e-4,-3e-4 7.1e-4,-10e-4 10e-4,0 l 0,-3e-4 c 7.1e-4,-4e-4 0.001,0 0.001,0 l 0,0 c 10e-4,0 0.003,0 0.004,0 l 0,0 c 3.5e-4,-7e-4 7e-4,0 10e-4,0 0,0 3.5e-4,-4e-4 3.5e-4,-4e-4 0.002,0 0.004,0 0.005,-0.01 l 3.5e-4,0 c 3.6e-4,-7e-4 7.1e-4,0 10e-4,0 l 0,0 c 0.002,0 0.005,-0.01 0.007,-0.01 l 0,-4e-4 c 0.002,0 0.004,0 0.006,-0.01 l 0,0 c 0.002,0 0.005,-0.01 0.007,-0.01 0.21696,-0.2381 0.51294,-0.4025 0.84667,-0.4519 l 0,0 c 0.003,-4e-4 0.006,-7e-4 0.009,0 l 3.5e-4,-3e-4 c 7e-4,0 0.001,0 0.002,0 3.6e-4,0 3.6e-4,0 3.6e-4,0 0.003,-4e-4 0.006,0 0.008,0 l 7.1e-4,0 c 3.5e-4,0 10e-4,0 0.002,-4e-4 l 3.5e-4,0 c 0.002,-3e-4 0.004,-3e-4 0.006,-7e-4 l 7.1e-4,0 c 3.5e-4,0 10e-4,-3e-4 0.002,-3e-4 0,0 3.5e-4,0 3.5e-4,0 7.1e-4,0 0.001,0 0.002,-4e-4 0,0 3.5e-4,0 3.5e-4,0 0.002,-3e-4 0.004,-3e-4 0.006,-7e-4 0,0 3.5e-4,0 3.5e-4,0 7.1e-4,0 10e-4,0 0.002,-3e-4 3.5e-4,0 7e-4,0 7e-4,0 7.1e-4,0 10e-4,0 0.002,0 0,-4e-4 3.5e-4,-4e-4 3.5e-4,-4e-4 10e-4,0 0.003,-4e-4 0.004,-4e-4 l 3.6e-4,0 c 3.5e-4,0 10e-4,0 10e-4,-3e-4 3.5e-4,0 7e-4,0 7e-4,0 7.1e-4,0 0.001,0 0.002,0 3.5e-4,0 7e-4,-4e-4 7e-4,-4e-4 7.1e-4,0 10e-4,0 0.002,0 l 7e-4,0 c 10e-4,-3e-4 0.002,-3e-4 0.004,-3e-4 l 7e-4,0 c 3.6e-4,-4e-4 10e-4,-4e-4 10e-4,-4e-4 3.5e-4,0 7e-4,0 0.001,0 3.6e-4,0 10e-4,0 10e-4,-3e-4 3.6e-4,0 7.1e-4,0 10e-4,0 3.5e-4,0 7e-4,0 0.001,0 7.1e-4,-4e-4 10e-4,-4e-4 10e-4,-4e-4 7e-4,0 10e-4,0 0.002,0 3.6e-4,-3e-4 7.1e-4,-3e-4 10e-4,-3e-4 3.6e-4,0 10e-4,0 10e-4,0 3.6e-4,0 7.1e-4,0 0.001,0 3.5e-4,0 7e-4,-4e-4 10e-4,-4e-4 7.1e-4,0 10e-4,0 10e-4,0 3.6e-4,0 7.1e-4,0 0.001,0 7e-4,-3e-4 10e-4,-3e-4 0.002,-3e-4 l 0.001,0 c 3.6e-4,0 7.1e-4,-4e-4 10e-4,-4e-4 3.6e-4,0 7.1e-4,0 10e-4,0 3.6e-4,0 0.001,0 0.001,0 3.6e-4,0 7.1e-4,-3e-4 10e-4,-3e-4 7.1e-4,0 10e-4,0 0.002,0 3.5e-4,0 7e-4,0 10e-4,0 7.1e-4,-4e-4 10e-4,-4e-4 0.002,-4e-4 3.6e-4,0 7.1e-4,0 10e-4,0 3.6e-4,0 7.1e-4,0 10e-4,-3e-4 3.6e-4,0 7.1e-4,0 0.001,0 7.1e-4,0 10e-4,0 0.002,0 3.5e-4,0 3.5e-4,0 0.001,0 3.6e-4,0 10e-4,-4e-4 0.002,-4e-4 3.5e-4,0 3.5e-4,0 3.5e-4,0 10e-4,0 0.002,0 0.003,0 l 7.1e-4,-3e-4 c 7e-4,0 10e-4,0 0.002,0 3.5e-4,0 3.5e-4,0 7e-4,0 7.1e-4,0 0.001,0 0.002,-4e-4 3.6e-4,0 7.1e-4,0 7.1e-4,0 10e-4,0 0.002,0 0.003,0 l 3.6e-4,0 c 7e-4,0 0.002,-4e-4 0.002,-4e-4 0,0 3.6e-4,0 7.1e-4,0 7.1e-4,0 10e-4,0 0.002,0 3.6e-4,0 7.1e-4,0 7.1e-4,0 10e-4,-3e-4 0.002,-3e-4 0.002,-3e-4 0,0 3.5e-4,0 3.5e-4,0 10e-4,0 0.002,0 0.003,0 l 0,0 0.002,-4e-4 c 3.6e-4,0 7.1e-4,0 7.1e-4,0 7e-4,0 10e-4,0 0.002,0 0,0 7e-4,0 7e-4,0 0.001,0 0.002,-3e-4 0.002,-3e-4 l 3.5e-4,0 c 7.1e-4,0 0.002,0 0.003,0 l 0,0 c 0.001,0 0.002,0 0.002,-4e-4 l 7e-4,0 c 7.1e-4,0 10e-4,0 0.002,0 l 7e-4,0 0.005,-3e-4 3.6e-4,0 c 7e-4,0 0.002,0 0.002,0 l 7e-4,0 c 7.1e-4,0 10e-4,0 0.002,0 l 3.5e-4,0 c 0.006,-4e-4 0.0127,-4e-4 0.019,-4e-4 0.25153,0 0.46038,0.1986 0.47061,0.4523 0.0102,0.26 -0.19191,0.4791 -0.45191,0.4893 m -0.24201,24.2009 c -0.0931,0.1097 -0.22577,0.1662 -0.35912,0.1662 -0.10795,0 -0.21626,-0.037 -0.30516,-0.1126 -0.12276,-0.1044 -0.22789,-0.2293 -0.30974,-0.3697 l 0,0 c -0.004,-0.01 -0.008,-0.014 -0.012,-0.021 -0.004,-0.01 -0.007,-0.012 -0.0102,-0.019 l 0,0 c -3.5e-4,-7e-4 -7.1e-4,0 -10e-4,0 l -3.5e-4,0 c -0.002,0 -0.005,-0.01 -0.008,-0.015 l 0,0 c -3.6e-4,-7e-4 -7.1e-4,0 -0.001,0 l 0,0 c -3.5e-4,-8e-4 -7.1e-4,0 -10e-4,0 l 0,0 c -3.5e-4,-7e-4 -7.1e-4,0 -10e-4,0 l 0,0 c -0.002,0 -0.005,-0.01 -0.007,-0.013 l 0,-3e-4 c -3.5e-4,-7e-4 -7.1e-4,0 -10e-4,0 0,0 0,-3e-4 0,-3e-4 -3.5e-4,-8e-4 -7e-4,0 -10e-4,0 l 0,-4e-4 -0.001,0 0,-4e-4 -10e-4,0 0,-4e-4 -10e-4,0 0,-3e-4 c -10e-4,0 -0.003,-0.01 -0.004,-0.01 l 0,-3e-4 c -3.5e-4,-4e-4 -7e-4,0 -0.001,0 l 0,-4e-4 c -3.6e-4,-3e-4 -7.1e-4,-10e-4 -10e-4,0 l 0,-4e-4 c -3.6e-4,-3e-4 -7.1e-4,-10e-4 -10e-4,0 l 0,-4e-4 c -3.5e-4,-7e-4 -7.1e-4,-10e-4 -0.001,0 l 0,-4e-4 c -3.5e-4,-7e-4 -7e-4,0 -10e-4,0 l 0,-3e-4 c -10e-4,0 -0.003,-0.01 -0.004,-0.01 l -3.5e-4,-3e-4 c -3.5e-4,-7e-4 -3.5e-4,0 -7.1e-4,0 0,0 0,-4e-4 0,-4e-4 -3.5e-4,-7e-4 -7e-4,-10e-4 -10e-4,0 l -3.6e-4,-7e-4 c 0,-4e-4 -3.5e-4,0 -7e-4,0 0,0 0,-4e-4 0,-4e-4 -3.6e-4,-7e-4 -7.1e-4,0 -10e-4,0 l 0,-3e-4 c -3.5e-4,-7e-4 -7.1e-4,0 -7.1e-4,0 l -3.5e-4,-3e-4 c -3.5e-4,-7e-4 -7.1e-4,0 -7.1e-4,0 l -3.5e-4,0 c -7e-4,0 -0.002,0 -0.003,-0.01 -3.5e-4,-7e-4 -7.1e-4,0 -10e-4,0 l 0,-3e-4 c -3.5e-4,-7e-4 -7e-4,0 -7e-4,0 l -3.6e-4,-3e-4 c -3.5e-4,-7e-4 -3.5e-4,0 -7e-4,0 l -3.6e-4,-3e-4 c 0,-7e-4 -3.5e-4,0 -7e-4,0 0,0 0,-4e-4 0,-4e-4 -3.5e-4,-7e-4 -7.1e-4,0 -7.1e-4,0 l -3.5e-4,-7e-4 c -3.5e-4,-4e-4 -7e-4,0 -7e-4,0 l -3.6e-4,0 c -0.001,0 -0.002,-0.01 -0.004,-0.01 l -3.5e-4,0 c 0,-7e-4 -3.5e-4,0 -7e-4,0 l 0,-4e-4 -10e-4,0 0,-8e-4 c -3.5e-4,-3e-4 -7.1e-4,-10e-4 -7.1e-4,0 l -3.5e-4,0 c 0,-7e-4 -3.5e-4,0 -7.1e-4,0 l 0,-4e-4 -10e-4,0 0,-4e-4 c -3.6e-4,-7e-4 -3.6e-4,0 -7.1e-4,0 l 0,0 c -10e-4,0 -0.002,0 -0.003,-0.01 l -3.5e-4,-4e-4 c 0,-3e-4 -3.6e-4,0 -7.1e-4,0 0,0 0,-4e-4 0,-4e-4 -3.5e-4,-7e-4 -7.1e-4,-10e-4 -7.1e-4,0 0,-3e-4 -3.5e-4,-3e-4 -3.5e-4,-7e-4 -3.5e-4,-3e-4 -3.5e-4,-10e-4 -7e-4,0 l 0,-7e-4 c -3.6e-4,-3e-4 -7.1e-4,0 -7.1e-4,0 l -3.5e-4,-7e-4 c -3.6e-4,-7e-4 -3.6e-4,0 -7.1e-4,0 l 0,-3e-4 c -3.5e-4,-7e-4 -7e-4,0 -7e-4,0 0,0 -3.6e-4,-3e-4 -3.6e-4,-3e-4 -3.5e-4,-7e-4 -3.5e-4,0 -7e-4,0 l 0,0 c -10e-4,0 -0.002,0 -0.003,-0.01 0,0 0,-4e-4 0,-8e-4 l -7.1e-4,0 -3.5e-4,-7e-4 c 0,-3e-4 -3.6e-4,-10e-4 -3.6e-4,0 0,0 -3.5e-4,-7e-4 -3.5e-4,-7e-4 -3.5e-4,-7e-4 -3.5e-4,0 -7e-4,0 0,0 0,-4e-4 0,-4e-4 -3.6e-4,-7e-4 -7.1e-4,0 -7.1e-4,0 0,0 -3.5e-4,-3e-4 -3.5e-4,-3e-4 -3.5e-4,-7e-4 -3.5e-4,0 -7.1e-4,0 0,0 0,-3e-4 0,-7e-4 -3.5e-4,-7e-4 -7e-4,-10e-4 -7e-4,0 l -3.6e-4,-3e-4 c -7e-4,0 -10e-4,0 -0.002,-0.01 l 0,-4e-4 c -3.5e-4,-7e-4 -3.5e-4,-10e-4 -7e-4,0 0,-4e-4 0,-4e-4 0,-4e-4 -3.5e-4,-7e-4 -7.1e-4,0 -7.1e-4,0 0,0 -3.5e-4,-4e-4 -3.5e-4,-7e-4 -3.5e-4,-4e-4 -3.5e-4,0 -7e-4,0 l 0,-7e-4 c -3.6e-4,-7e-4 -7.1e-4,-10e-4 -7.1e-4,0 l -3.5e-4,-4e-4 c 0,-7e-4 -3.6e-4,0 -3.6e-4,0 l -3.5e-4,-7e-4 c -3.5e-4,-4e-4 -3.5e-4,0 -7e-4,0 l 0,-4e-4 c -3.6e-4,-7e-4 -3.6e-4,0 -7.1e-4,0 l -3.5e-4,-4e-4 c -3.6e-4,0 -0.001,0 -0.001,0 0,0 0,-3e-4 0,-3e-4 -3.6e-4,-7e-4 -7.1e-4,0 -7.1e-4,0 l -3.5e-4,-7e-4 c 0,-3e-4 -3.5e-4,-10e-4 -3.5e-4,0 -3.6e-4,-4e-4 -3.6e-4,-7e-4 -3.6e-4,-7e-4 -3.5e-4,-7e-4 -3.5e-4,0 -7e-4,0 0,0 0,-7e-4 0,0 -3.6e-4,-3e-4 -3.6e-4,-7e-4 -7.1e-4,0 0,0 0,-3e-4 -3.5e-4,-7e-4 l -3.5e-4,0 c 0,-4e-4 -3.6e-4,-7e-4 -3.6e-4,-7e-4 0,-7e-4 -3.5e-4,0 -3.5e-4,0 0,-4e-4 -3.5e-4,-7e-4 -3.5e-4,0 0,-3e-4 -3.6e-4,-7e-4 -3.6e-4,0 l -3.5e-4,-3e-4 c -3.5e-4,-7e-4 -3.5e-4,0 -7e-4,0 l 0,-3e-4 c -3.6e-4,-7e-4 -7.1e-4,0 -7.1e-4,0 l -3.5e-4,-4e-4 c 0,-7e-4 -3.5e-4,0 -7.1e-4,0 l 0,-4e-4 c -3.5e-4,-7e-4 -3.5e-4,-10e-4 -7e-4,0 0,0 0,-4e-4 0,-7e-4 -3.6e-4,-4e-4 -3.6e-4,0 -7.1e-4,0 0,0 0,-7e-4 -3.5e-4,-7e-4 0,-7e-4 0,0 -3.5e-4,0 0,-4e-4 0,-8e-4 -3.6e-4,0 0,-4e-4 0,-7e-4 -3.5e-4,0 0,-3e-4 0,-7e-4 -3.5e-4,-0.001 0,-4e-4 -3.6e-4,0 -3.6e-4,0 0,-4e-4 0,-4e-4 0,-4e-4 -3.5e-4,-0.001 -7e-4,0 -7e-4,0 0,0 -3.5e-4,-7e-4 -3.5e-4,-7e-4 0,-7e-4 -3.6e-4,0 -7.1e-4,0 l 0,-3e-4 c -3.5e-4,0 -0.001,0 -0.001,0 l 0,-3e-4 c -3.5e-4,-7e-4 -3.5e-4,0 -7.1e-4,0 l 0,-4e-4 c -3.5e-4,-7e-4 -7e-4,0 -7e-4,0 0,-4e-4 0,-4e-4 0,-4e-4 -3.5e-4,-7e-4 -7.1e-4,0 -7.1e-4,0 0,-3e-4 -3.5e-4,-7e-4 -3.5e-4,-7e-4 0,-7e-4 -3.5e-4,-10e-4 -3.5e-4,0 0,0 0,-4e-4 -3.6e-4,-7e-4 0,-4e-4 -3.5e-4,0 -3.5e-4,0 l -3.5e-4,-8e-4 c 0,-7e-4 -3.5e-4,-10e-4 -3.5e-4,0 0,0 0,-4e-4 0,-4e-4 -3.6e-4,-7e-4 -7.1e-4,0 -7.1e-4,0 l 0,-7e-4 c -10e-4,0 -0.002,0 -0.002,-0.01 l -3.5e-4,-7e-4 c 0,-4e-4 -3.5e-4,0 -3.5e-4,0 -3.5e-4,-3e-4 -3.5e-4,-7e-4 -3.5e-4,-10e-4 0,-4e-4 -3.6e-4,0 -3.6e-4,0 0,-4e-4 -3.5e-4,-4e-4 -3.5e-4,-7e-4 0,-4e-4 -3.5e-4,0 -3.5e-4,0 0,-4e-4 -3.6e-4,-8e-4 -3.6e-4,0 0,-4e-4 -3.5e-4,-7e-4 -3.5e-4,0 l -3.5e-4,0 c 0,-4e-4 0,-7e-4 -3.5e-4,0 0,-4e-4 0,-4e-4 -3.6e-4,-7e-4 0,-7e-4 0,0 -3.5e-4,0 0,0 0,-8e-4 0,0 -3.5e-4,-4e-4 -3.5e-4,0 -7e-4,0 l 0,-7e-4 c -7.1e-4,0 -10e-4,0 -10e-4,0 0,0 0,-4e-4 -3.5e-4,-7e-4 0,-4e-4 0,0 -3.5e-4,0 0,-4e-4 0,-7e-4 0,0 -3.5e-4,-3e-4 -3.5e-4,-7e-4 -7.1e-4,-0.001 0,-4e-4 0,-7e-4 0,0 -3.5e-4,-4e-4 -3.5e-4,0 -3.5e-4,0 0,0 -3.5e-4,-7e-4 -3.5e-4,0 0,-3e-4 -3.6e-4,-7e-4 -3.6e-4,-10e-4 0,-4e-4 -3.5e-4,-7e-4 -3.5e-4,0 0,-3e-4 -3.5e-4,-7e-4 -3.5e-4,0 0,-4e-4 0,-7e-4 -3.5e-4,-7e-4 0,-7e-4 0,0 -3.6e-4,0 0,-4e-4 0,-7e-4 0,0 -3.5e-4,-3e-4 -3.5e-4,-7e-4 -3.5e-4,0 l -3.5e-4,-7e-4 c -3.5e-4,-7e-4 -3.5e-4,-10e-4 -3.5e-4,0 0,0 -3.6e-4,-7e-4 -3.6e-4,0 -3.5e-4,-7e-4 -3.5e-4,0 -7e-4,0 0,0 0,-3e-4 0,-7e-4 -3.6e-4,-3e-4 -3.6e-4,0 -3.6e-4,0 -3.5e-4,-3e-4 -3.5e-4,-7e-4 -3.5e-4,-7e-4 0,-7e-4 -3.5e-4,0 -3.5e-4,0 l -3.5e-4,-3e-4 c 0,0 0,0 -3.6e-4,0 0,-3e-4 0,-7e-4 0,0 -3.5e-4,-4e-4 -3.5e-4,-7e-4 -3.5e-4,0 -3.5e-4,0 -3.5e-4,-4e-4 -3.5e-4,-8e-4 0,-7e-4 -3.6e-4,0 -3.6e-4,0 0,-3e-4 -3.5e-4,-7e-4 -3.5e-4,-7e-4 0,-7e-4 0,-10e-4 -3.5e-4,0 0,0 0,-4e-4 0,-7e-4 -3.5e-4,-4e-4 -3.5e-4,0 -7.1e-4,0 l 0,-0.001 -3.5e-4,0 -3.5e-4,-7e-4 c 0,-7e-4 -3.5e-4,0 -3.5e-4,0 l -3.6e-4,-4e-4 c 0,-7e-4 -3.5e-4,0 -3.5e-4,0 0,-4e-4 0,-7e-4 0,-7e-4 -3.5e-4,-7e-4 -3.5e-4,0 -7.1e-4,0 0,-4e-4 0,-7e-4 0,0 l -3.5e-4,0 c 0,-4e-4 -3.5e-4,-7e-4 -3.5e-4,0 0,-3e-4 -3.5e-4,-7e-4 -3.5e-4,-10e-4 0,-4e-4 0,-7e-4 0,0 -3.6e-4,-3e-4 -3.6e-4,-7e-4 -3.6e-4,0 -3.5e-4,-3e-4 -3.5e-4,-7e-4 -3.5e-4,-10e-4 0,-4e-4 -3.5e-4,-7e-4 -3.5e-4,0 0,-4e-4 0,-7e-4 -3.6e-4,0 0,-3e-4 0,-7e-4 -3.5e-4,0 0,0 0,-7e-4 0,-7e-4 l -3.5e-4,0 -3.5e-4,-10e-4 c 0,-4e-4 -3.6e-4,0 -3.6e-4,0 0,0 0,-4e-4 0,-4e-4 -3.5e-4,-7e-4 -3.5e-4,0 -7e-4,0 0,-4e-4 0,-4e-4 0,-7e-4 -3.5e-4,-4e-4 -3.5e-4,0 -3.5e-4,0 0,-4e-4 -3.6e-4,-8e-4 -3.6e-4,0 l -3.5e-4,0 c 0,-4e-4 0,-4e-4 0,0 -3.5e-4,-3e-4 -3.5e-4,-7e-4 -3.5e-4,0 -3.6e-4,-4e-4 -3.6e-4,-7e-4 -3.6e-4,0 l -3.5e-4,0 c 0,-7e-4 0,-10e-4 0,0 -3.5e-4,-3e-4 -3.5e-4,-7e-4 -3.5e-4,-10e-4 0,-4e-4 -3.5e-4,-7e-4 -3.5e-4,0 0,-3e-4 0,0 -3.6e-4,0 0,-3e-4 0,-7e-4 0,0 -3.5e-4,-4e-4 -3.5e-4,-8e-4 -3.5e-4,0 0,0 -3.5e-4,-3e-4 -3.5e-4,-7e-4 0,-7e-4 0,0 -3.6e-4,0 l 0,-7e-4 c -3.5e-4,0 -7e-4,0 -10e-4,0 0,0 0,-4e-4 -3.6e-4,-7e-4 0,-4e-4 0,0 0,0 -3.5e-4,-4e-4 -3.5e-4,-7e-4 -3.5e-4,0 0,-3e-4 -3.5e-4,-7e-4 -3.5e-4,0 0,-4e-4 0,-4e-4 0,-7e-4 -3.5e-4,-7e-4 -3.5e-4,0 -3.5e-4,0 0,-4e-4 -3.6e-4,-7e-4 -3.6e-4,0 0,-3e-4 0,-7e-4 -3.5e-4,0 0,-3e-4 0,-7e-4 0,-7e-4 0,-7e-4 -3.5e-4,0 -3.5e-4,0 0,0 0,-3e-4 0,-7e-4 -3.6e-4,-3e-4 -3.6e-4,0 -3.6e-4,0 0,0 -3.5e-4,-7e-4 -3.5e-4,-7e-4 0,-7e-4 -3.5e-4,0 -3.5e-4,0 0,-4e-4 0,-4e-4 0,-4e-4 -3.5e-4,0 -7.1e-4,0 -10e-4,0 l 0,-7e-4 c 0,-4e-4 -3.5e-4,0 -3.5e-4,0 0,-4e-4 0,-4e-4 0,-4e-4 -3.6e-4,-7e-4 -3.6e-4,0 -3.6e-4,0 0,0 -3.5e-4,-7e-4 -3.5e-4,0 0,-3e-4 -3.5e-4,0 -3.5e-4,0 0,-3e-4 0,-7e-4 0,0 0,-3e-4 -3.5e-4,-7e-4 -3.5e-4,0 0,0 0,-3e-4 0,-3e-4 -3.6e-4,0 -3.6e-4,0 -3.6e-4,0 0,-3e-4 -3.5e-4,-7e-4 -3.5e-4,-10e-4 0,-4e-4 0,-7e-4 -3.5e-4,0 0,-3e-4 0,-7e-4 0,-7e-4 0,-7e-4 -3.5e-4,-10e-4 -3.5e-4,0 0,0 0,-4e-4 0,-7e-4 -3.6e-4,-7e-4 -3.6e-4,0 -3.6e-4,0 0,0 0,-3e-4 0,-3e-4 -3.5e-4,0 -3.5e-4,0 -7e-4,0 0,0 0,-4e-4 0,-4e-4 0,0 -3.6e-4,0 -3.6e-4,0 0,-3e-4 0,-3e-4 0,-7e-4 -3.5e-4,-7e-4 -3.5e-4,-10e-4 -3.5e-4,0 l 0,-7e-4 c -3.5e-4,-7e-4 -3.5e-4,0 -3.5e-4,0 0,-3e-4 -3.5e-4,-7e-4 -3.5e-4,-7e-4 0,-7e-4 0,0 0,0 -3.6e-4,0 -3.6e-4,-7e-4 -3.6e-4,0 0,-3e-4 0,-7e-4 -3.5e-4,0 0,-3e-4 0,-7e-4 0,0 0,-4e-4 -3.5e-4,-7e-4 -3.5e-4,0 0,-4e-4 0,-7e-4 0,0 -3.6e-4,-3e-4 -3.6e-4,-7e-4 -3.6e-4,0 0,-4e-4 0,-7e-4 0,0 -3.5e-4,-3e-4 -3.5e-4,-7e-4 -3.5e-4,0 0,-4e-4 0,-7e-4 -3.5e-4,0 0,-3e-4 0,0 0,0 0,-3e-4 -3.5e-4,-7e-4 -3.5e-4,0 0,-7e-4 0,0 -3.6e-4,0 0,0 0,-7e-4 0,-7e-4 l -3.5e-4,0 c 0,-4e-4 0,-7e-4 0,0 0,-3e-4 -3.5e-4,-7e-4 -3.5e-4,0 0,-4e-4 0,-7e-4 0,0 -3.5e-4,-7e-4 -3.5e-4,0 -3.5e-4,0 0,-4e-4 0,-7e-4 -3.6e-4,0 l 0,0 c 0,-3e-4 0,-7e-4 -3.5e-4,0 0,-4e-4 0,-7e-4 0,0 0,-3e-4 0,-7e-4 -3.5e-4,0 0,-7e-4 0,-0.001 0,0 0,-3e-4 0,-7e-4 -3.6e-4,-0.001 0,-4e-4 0,0 0,0 0,-4e-4 -3.5e-4,-7e-4 -3.5e-4,-7e-4 0,-7e-4 0,0 0,0 l -3.5e-4,-3e-4 c 0,-7e-4 0,0 -3.5e-4,0 l 0,-3e-4 c 0,-7e-4 0,0 -3.6e-4,0 0,-3e-4 0,-7e-4 0,0 0,-3e-4 0,-0.001 -3.5e-4,0 0,-3e-4 0,-7e-4 0,-0.001 0,-4e-4 0,0 -3.5e-4,0 0,-4e-4 0,-7e-4 0,0 0,-3e-4 0,-7e-4 -3.6e-4,0 0,-3e-4 0,0 0,0 0,-3e-4 0,-7e-4 0,0 -3.5e-4,-4e-4 -3.5e-4,-7e-4 -3.5e-4,0 0,-3e-4 0,-10e-4 0,0 -3.5e-4,-3e-4 -3.5e-4,-7e-4 -3.5e-4,-10e-4 l 0,0 c -3.5e-4,-3e-4 -3.5e-4,-7e-4 -3.5e-4,0 0,-4e-4 0,-7e-4 0,0 l -3.6e-4,-7e-4 c 0,-7e-4 0,0 0,0 l -3.5e-4,-3e-4 c 0,-7e-4 0,0 0,0 l -3.5e-4,-3e-4 c 0,-7e-4 0,0 0,0 0,-3e-4 -3.5e-4,-7e-4 -3.5e-4,0 0,-4e-4 0,0 0,0 0,-3e-4 0,-7e-4 0,-7e-4 -3.6e-4,-7e-4 -3.6e-4,0 -3.6e-4,0 0,-4e-4 0,-7e-4 0,-7e-4 -3.5e-4,-7e-4 -3.5e-4,0 -3.5e-4,0 0,-8e-4 0,-8e-4 0,0 0,-7e-4 -3.5e-4,0 -3.5e-4,0 0,-4e-4 0,-7e-4 0,0 0,-3e-4 0,0 -3.6e-4,0 0,-3e-4 0,-7e-4 0,0 0,-4e-4 0,-7e-4 0,0 0,0 -3.5e-4,-7e-4 -3.5e-4,-7e-4 l 0,0 c 0,-4e-4 0,-7e-4 0,-7e-4 -3.5e-4,-7e-4 -3.5e-4,0 -3.5e-4,0 0,0 0,-4e-4 0,-4e-4 -3.5e-4,-10e-4 -3.5e-4,0 -3.5e-4,0 l 0,-10e-4 c -3.6e-4,-4e-4 -3.6e-4,-7e-4 -3.6e-4,0 0,-3e-4 0,-7e-4 0,0 0,-3e-4 0,-7e-4 -3.5e-4,0 0,-3e-4 0,-7e-4 0,0 0,-4e-4 0,0 0,0 0,-4e-4 -3.5e-4,-7e-4 -3.5e-4,0 0,-3e-4 0,-7e-4 0,0 0,-3e-4 0,-7e-4 0,0 -3.6e-4,-3e-4 -3.6e-4,-7e-4 -3.6e-4,-10e-4 0,-4e-4 0,-7e-4 0,0 0,-7e-4 0,-10e-4 0,0 -3.5e-4,-3e-4 -3.5e-4,-7e-4 -3.5e-4,-10e-4 0,-7e-4 0,0 0,0 l 0,-4e-4 c -3.5e-4,0 -3.5e-4,0 -3.5e-4,0 l 0,0 c 0,0 -3.5e-4,0 -3.5e-4,0 0,-3e-4 0,-7e-4 0,-7e-4 0,-7e-4 0,0 0,0 l -3.6e-4,0 c 0,-4e-4 0,-7e-4 0,0 0,0 0,-7e-4 0,0 -3.5e-4,-3e-4 -3.5e-4,-7e-4 -3.5e-4,0 0,-4e-4 0,-4e-4 0,0 0,-3e-4 0,-7e-4 0,0 0,-4e-4 -3.5e-4,-7e-4 -3.5e-4,0 l 0,0 c 0,-3e-4 0,-7e-4 0,0 l -3.5e-4,0 c 0,-3e-4 0,-7e-4 0,0 0,-4e-4 0,-7e-4 0,0 0,-4e-4 0,-7e-4 0,0 -3.6e-4,-3e-4 -3.6e-4,-7e-4 -3.6e-4,0 0,-4e-4 0,0 0,0 0,-7e-4 0,0 -3.5e-4,0 0,-3e-4 0,-3e-4 0,-7e-4 0,-7e-4 0,0 0,0 0,-4e-4 0,-7e-4 0,0 0,-4e-4 -3.5e-4,-7e-4 -3.5e-4,0 0,-4e-4 0,-7e-4 0,0 0,-3e-4 0,-7e-4 0,0 0,-3e-4 0,-7e-4 0,-7e-4 -3.6e-4,-7e-4 -3.6e-4,0 -3.6e-4,0 0,-4e-4 0,-4e-4 0,-8e-4 0,-7e-4 0,0 0,0 0,-3e-4 0,-7e-4 0,0 -3.5e-4,-7e-4 -3.5e-4,0 -3.5e-4,0 0,-4e-4 0,-7e-4 0,0 0,-3e-4 0,0 0,0 0,-4e-4 0,-7e-4 0,0 -3.5e-4,-3e-4 -3.5e-4,0 -3.5e-4,0 l 0,-7e-4 c 0,0 0,0 0,0 l 0,-4e-4 c -3.5e-4,-7e-4 -3.5e-4,0 -3.5e-4,0 l 0,-7e-4 c 0,-7e-4 0,0 0,0 0,-3e-4 0,-7e-4 0,0 -3.6e-4,-4e-4 -3.6e-4,0 -3.6e-4,0 0,-3e-4 0,-7e-4 0,0 0,-4e-4 0,-7e-4 0,0 0,-4e-4 0,-7e-4 0,0 0,-3e-4 0,-7e-4 -3.5e-4,0 0,-3e-4 0,-7e-4 0,-7e-4 0,-7e-4 0,0 0,0 0,-7e-4 0,-7e-4 0,0 0,-4e-4 0,-7e-4 0,0 l 0,-7e-4 c -3.5e-4,0 -3.5e-4,0 -3.5e-4,0 0,-4e-4 0,-4e-4 0,-7e-4 0,-7e-4 0,0 0,0 l 0,-4e-4 c 0,-7e-4 0,0 -3.6e-4,0 0,-4e-4 0,-4e-4 0,-4e-4 0,-7e-4 0,0 0,0 0,-4e-4 0,-4e-4 0,-7e-4 0,-7e-4 0,0 0,0 0,0 0,-3e-4 0,-7e-4 0,-7e-4 0,0 0,0 0,-4e-4 -3.5e-4,-7e-4 -3.5e-4,-7e-4 0,0 0,0 0,0 0,-3e-4 0,-7e-4 0,-7e-4 0,0 0,0 0,0 0,-4e-4 0,-7e-4 0,0 0,-4e-4 0,0 0,0 0,-4e-4 0,-7e-4 0,0 0,-3e-4 -3.5e-4,0 -3.5e-4,0 0,-3e-4 0,-7e-4 0,0 0,-4e-4 0,0 0,0 0,-3e-4 0,-7e-4 0,-7e-4 0,-10e-4 0,0 0,0 l 0,-4e-4 0,0 c 0,0 0,-4e-4 -3.5e-4,-8e-4 0,-3e-4 0,0 0,0 0,-3e-4 0,-7e-4 0,-7e-4 0,0 0,0 0,0 0,-4e-4 0,-7e-4 0,0 0,-7e-4 0,0 0,0 0,-4e-4 0,-7e-4 0,0 0,-3e-4 0,0 0,0 0,-3e-4 0,-7e-4 0,0 0,-4e-4 0,0 0,0 0,-4e-4 0,-7e-4 0,0 0,-4e-4 0,0 0,0 -3.6e-4,-4e-4 -3.6e-4,-7e-4 -3.6e-4,0 0,-3e-4 0,0 0,0 l 0,-7e-4 c 0,-7e-4 0,0 0,0 0,0 0,-4e-4 0,-4e-4 0,0 0,0 0,0 l 0,-3e-4 c 0,-7e-4 0,0 0,0 0,-3e-4 0,-7e-4 0,0 0,-7e-4 0,0 0,0 l 0,-7e-4 c 0,0 0,0 0,0 l 0,-7e-4 c 0,0 0,0 0,0 0,0 0,-7e-4 0,0 l 0,0 0,0 c 0,-7e-4 0,0 0,0 l 0,0 0,0 c 0,-4e-4 0,-7e-4 0,0 l 0,0 0,-4e-4 0,0 0,-0.1711 c 0,-0.26 0.21061,-0.471 0.47096,-0.471 0.26035,0 0.47131,0.211 0.47131,0.471 l 0,0.1711 c 0,0.1436 0.0628,0.2794 0.17251,0.3729 0.19826,0.1686 0.22225,0.4656 0.0536,0.6639 m -1.1684,-4.7357 c 0,-0.26 0.21061,-0.4709 0.47096,-0.4709 0.26035,0 0.47131,0.2109 0.47131,0.4709 l 0,1.4111 c 0,0.2604 -0.21096,0.4713 -0.47131,0.4713 -0.26035,0 -0.47096,-0.2109 -0.47096,-0.4713 l 0,-1.4111 z m 0,-3.5278 c 0,-0.26 0.21061,-0.4709 0.47096,-0.4709 0.26035,0 0.47131,0.2109 0.47131,0.4709 l 0,1.4111 c 0,0.2604 -0.21096,0.4714 -0.47131,0.4714 -0.26035,0 -0.47096,-0.211 -0.47096,-0.4714 l 0,-1.4111 z m 0,-3.5277 c 0,-0.26 0.21061,-0.471 0.47096,-0.471 0.26035,0 0.47131,0.211 0.47131,0.471 l 0,1.4111 c 0,0.2603 -0.21096,0.4713 -0.47131,0.4713 -0.26035,0 -0.47096,-0.211 -0.47096,-0.4713 l 0,-1.4111 z m 0,-3.5278 c 0,-0.26 0.21061,-0.471 0.47096,-0.471 0.26035,0 0.47131,0.211 0.47131,0.471 l 0,1.4111 c 0,0.2603 -0.21096,0.4713 -0.47131,0.4713 -0.26035,0 -0.47096,-0.211 -0.47096,-0.4713 l 0,-1.4111 z m 0,-3.5278 c 0,-0.26 0.21061,-0.471 0.47096,-0.471 0.26035,0 0.47131,0.211 0.47131,0.471 l 0,1.4111 c 0,0.2604 -0.21096,0.4713 -0.47131,0.4713 -0.26035,0 -0.47096,-0.2109 -0.47096,-0.4713 l 0,-1.4111 z m 0,-3.5278 c 0,-0.26 0.21061,-0.4709 0.47096,-0.4709 0.26035,0 0.47131,0.2109 0.47131,0.4709 l 0,1.4111 c 0,0.2604 -0.21096,0.4713 -0.47131,0.4713 -0.26035,0 -0.47096,-0.2109 -0.47096,-0.4713 l 0,-1.4111 z m 3.48933,-2.7689 1.41111,0 c 0.26035,0 0.47096,0.2109 0.47096,0.4713 0,0.26 -0.21061,0.4709 -0.47096,0.4709 l -1.41111,0 c -0.26035,0 -0.47131,-0.2109 -0.47131,-0.4709 0,-0.2604 0.21096,-0.4713 0.47131,-0.4713 m 3.52778,0 1.41111,0 c 0.26035,0 0.47096,0.2109 0.47096,0.4713 0,0.26 -0.21061,0.4709 -0.47096,0.4709 l -1.41111,0 c -0.26035,0 -0.47131,-0.2109 -0.47131,-0.4709 0,-0.2604 0.21096,-0.4713 0.47131,-0.4713 m 3.52777,0 1.41112,0 c 0.26035,0 0.47095,0.2109 0.47095,0.4713 0,0.26 -0.2106,0.4709 -0.47095,0.4709 l -1.41112,0 c -0.26035,0 -0.47131,-0.2109 -0.47131,-0.4709 0,-0.2604 0.21096,-0.4713 0.47131,-0.4713 m 3.52778,0 1.41111,0 c 0.26035,0 0.47096,0.2109 0.47096,0.4713 0,0.26 -0.21061,0.4709 -0.47096,0.4709 l -1.41111,0 c -0.26035,0 -0.47131,-0.2109 -0.47131,-0.4709 0,-0.2604 0.21096,-0.4713 0.47131,-0.4713 m 3.52778,0 1.41111,0 c 0.26035,0 0.47096,0.2109 0.47096,0.4713 0,0.26 -0.21061,0.4709 -0.47096,0.4709 l -1.41111,0 c -0.26035,0 -0.47131,-0.2109 -0.47131,-0.4709 0,-0.2604 0.21096,-0.4713 0.47131,-0.4713 m 3.52778,0 1.41111,0 c 0.26035,0 0.47096,0.2109 0.47096,0.4713 0,0.26 -0.21061,0.4709 -0.47096,0.4709 l -1.41111,0 c -0.26035,0 -0.47131,-0.2109 -0.47131,-0.4709 0,-0.2604 0.21096,-0.4713 0.47131,-0.4713 m 3.52778,0 1.41111,0 c 0.26035,0 0.47096,0.2109 0.47096,0.4713 0,0.26 -0.21061,0.4709 -0.47096,0.4709 l -1.41111,0 c -0.26035,0 -0.47131,-0.2109 -0.47131,-0.4709 0,-0.2604 0.21096,-0.4713 0.47131,-0.4713 m 3.52777,0 1.41112,0 c 0.26035,0 0.47095,0.2109 0.47095,0.4713 0,0.26 -0.2106,0.4709 -0.47095,0.4709 l -1.41112,0 c -0.26035,0 -0.47131,-0.2109 -0.47131,-0.4709 0,-0.2604 0.21096,-0.4713 0.47131,-0.4713 m 3.52778,0 1.41111,0 c 0.26035,0 0.47096,0.2109 0.47096,0.4713 0,0.26 -0.21061,0.4709 -0.47096,0.4709 l -1.41111,0 c -0.26035,0 -0.47131,-0.2109 -0.47131,-0.4709 0,-0.2604 0.21096,-0.4713 0.47131,-0.4713 m 3.52778,0 1.41111,0 0.002,0 7.1e-4,0 0.002,0 0.001,0 0.002,0 c 0,0 7.1e-4,0 7.1e-4,0 l 0.002,0 0.001,0 0.002,0 3.6e-4,0 c 0.001,3e-4 0.002,3e-4 0.003,3e-4 l 3.5e-4,0 c 7.1e-4,0 0.001,0 0.002,0 l 7e-4,0 c 7.1e-4,0 10e-4,0 0.002,0 l 0.001,0 10e-4,0 c 3.5e-4,0 7e-4,0 0.001,0 l 0.002,0 c 3.5e-4,0 7.1e-4,0 7.1e-4,0 7e-4,0 10e-4,0 0.002,0 l 3.6e-4,0 c 10e-4,0 0.002,0 0.003,0 l 0,0 c 10e-4,0 0.002,0 0.002,4e-4 l 7e-4,0 c 7.1e-4,0 0.001,0 0.002,0 l 7e-4,0 c 7.1e-4,0 0.001,0 0.002,0 l 10e-4,0 c 3.6e-4,0 0.001,0 0.001,0 3.5e-4,0 7e-4,0 0.001,0 7.1e-4,0 10e-4,0 0.002,0 0,0 7e-4,0 7e-4,0 0.001,0 0.002,3e-4 0.002,3e-4 l 7.1e-4,0 c 7e-4,0 10e-4,0 0.002,0 l 7.1e-4,0 c 7.1e-4,0 0.001,0 0.002,0 3.6e-4,0 7.1e-4,0 7.1e-4,0 7.1e-4,0 10e-4,0 0.002,0 3.6e-4,0 7.1e-4,0 0.001,0 3.5e-4,0 10e-4,4e-4 10e-4,4e-4 3.6e-4,0 7.1e-4,0 0.001,0 7.1e-4,0 0.001,0 0.002,0 l 7e-4,0 c 7.1e-4,0 0.002,0 0.002,0 l 7.1e-4,0 c 7e-4,0 0.001,3e-4 0.002,3e-4 3.5e-4,0 7.1e-4,0 0.001,0 3.5e-4,0 0.001,0 0.001,0 3.5e-4,0 7e-4,0 10e-4,0 7e-4,0 0.001,0 0.001,0 3.5e-4,0 7e-4,0 0.001,4e-4 7e-4,0 10e-4,0 0.002,0 0,0 7.1e-4,0 7.1e-4,0 7e-4,0 0.001,0 0.002,0 l 3.6e-4,0 c 0.001,0 0.002,3e-4 0.002,3e-4 l 7e-4,0 c 7.1e-4,0 0.001,0 0.002,0 3.6e-4,0 7.1e-4,0 10e-4,0 7.1e-4,0 0.001,0 0.001,0 7.1e-4,4e-4 0.001,4e-4 0.001,4e-4 3.5e-4,0 7e-4,0 10e-4,0 3.5e-4,0 7e-4,0 0.001,0 3.6e-4,0 0.001,0 0.001,0 3.5e-4,0 7e-4,0 10e-4,0 3.6e-4,3e-4 0.001,3e-4 0.002,3e-4 l 3.5e-4,0 c 10e-4,0 0.002,0 0.003,0 0,0 3.6e-4,0 7.1e-4,4e-4 7e-4,0 10e-4,0 0.002,0 3.6e-4,0 3.6e-4,0 7.1e-4,0 7e-4,0 0.001,0 0.002,0 3.5e-4,0 7.1e-4,0 10e-4,4e-4 3.5e-4,0 0.001,0 0.001,0 l 7.1e-4,0 c 7e-4,0 0.001,0 0.002,0 0,0 3.6e-4,3e-4 3.6e-4,3e-4 0.001,0 0.002,0 0.003,0 l 0,0 c 7e-4,0 0.002,4e-4 0.002,4e-4 l 7e-4,0 c 7.1e-4,0 0.001,0 0.002,0 0,0 7e-4,0 0.001,0 3.5e-4,0 0.001,3e-4 0.001,3e-4 3.5e-4,0 7e-4,0 10e-4,0 3.5e-4,0 0.001,0 0.001,0 3.5e-4,0 7e-4,0 7e-4,0 7.1e-4,4e-4 0.001,4e-4 0.002,4e-4 0,0 3.5e-4,0 3.5e-4,0 0.001,0 0.002,3e-4 0.002,3e-4 l 3.5e-4,0 c 7.1e-4,0 0.002,0 0.002,0 0,0 3.6e-4,4e-4 7.1e-4,4e-4 7e-4,0 0.001,0 0.002,0 0,0 7.1e-4,0 7.1e-4,0 7e-4,0 0.001,3e-4 0.002,3e-4 3.5e-4,0 7.1e-4,0 7.1e-4,0 7e-4,0 10e-4,0 0.002,0 0,4e-4 3.6e-4,4e-4 3.6e-4,4e-4 7e-4,0 0.001,0 0.002,0 l 7.1e-4,0 c 10e-4,3e-4 0.003,3e-4 0.005,7e-4 l 7e-4,0 c 3.6e-4,0 0.001,0 0.002,0 0,0 3.5e-4,3e-4 7e-4,3e-4 7.1e-4,0 0.001,0 0.002,0 l 7e-4,0 c 7.1e-4,4e-4 10e-4,4e-4 0.002,4e-4 3.5e-4,0 7e-4,0 7e-4,0 7.1e-4,0 0.001,3e-4 0.002,3e-4 l 7e-4,0 c 7.1e-4,0 0.001,0 0.002,4e-4 l 0,0 c 7.1e-4,0 0.001,0 0.002,0 0,0 3.6e-4,3e-4 7.1e-4,3e-4 3.5e-4,0 0.001,0 0.002,0 3.6e-4,0 3.6e-4,0 7.1e-4,0 7e-4,4e-4 0.001,4e-4 0.002,4e-4 3.5e-4,0 3.5e-4,0 7.1e-4,0 7e-4,0 10e-4,4e-4 0.002,4e-4 0,0 7.1e-4,0 7.1e-4,0 7e-4,0 0.001,3e-4 0.002,3e-4 3.5e-4,0 7.1e-4,0 7.1e-4,0 10e-4,0 0.002,0 0.002,4e-4 l 0,0 c 0.001,0 0.002,0 0.002,3e-4 3.5e-4,0 7e-4,0 7e-4,0 7.1e-4,0 10e-4,0 0.002,0 3.6e-4,4e-4 7.1e-4,4e-4 7.1e-4,4e-4 7.1e-4,0 0.001,0 0.002,0 3.6e-4,0 7.1e-4,3e-4 10e-4,3e-4 3.6e-4,0 0.001,0 0.002,0 l 3.5e-4,4e-4 c 10e-4,0 10e-4,0 0.002,0 l 7e-4,0 c 7.1e-4,3e-4 0.001,3e-4 0.002,3e-4 l 0,0 c 10e-4,4e-4 0.002,4e-4 0.002,4e-4 3.5e-4,0 3.5e-4,0 7.1e-4,3e-4 7e-4,0 0.001,0 0.002,0 0,0 3.5e-4,0 7.1e-4,4e-4 7e-4,0 10e-4,0 0.002,0 0,0 3.5e-4,0 7e-4,3e-4 7.1e-4,0 0.001,0 0.002,0 0,0 7e-4,0 7e-4,0 7.1e-4,4e-4 0.001,4e-4 0.002,4e-4 0,0 3.5e-4,0 3.5e-4,0 10e-4,3e-4 0.002,3e-4 0.002,3e-4 l 3.6e-4,4e-4 c 7e-4,0 0.001,0 0.002,0 0,0 7.1e-4,3e-4 7.1e-4,3e-4 7e-4,0 0.001,0 0.002,4e-4 l 7.1e-4,0 c 7e-4,0 10e-4,0 0.002,3e-4 0,0 7.1e-4,0 0.001,0 3.5e-4,0 10e-4,0 10e-4,4e-4 3.5e-4,0 7.1e-4,0 7.1e-4,0 7e-4,0 0.002,4e-4 0.002,4e-4 l 0,0 c 0.001,0 0.002,3e-4 0.002,3e-4 l 3.5e-4,0 c 7e-4,4e-4 0.001,4e-4 0.002,4e-4 3.6e-4,0 7.1e-4,0 7.1e-4,3e-4 7.1e-4,0 0.001,0 0.002,0 3.6e-4,0 7.1e-4,0 7.1e-4,4e-4 7.1e-4,0 0.001,0 0.002,0 3.6e-4,0 7.1e-4,3e-4 10e-4,3e-4 3.5e-4,0 0.001,0 0.002,4e-4 0,0 3.5e-4,0 3.5e-4,0 7e-4,0 0.001,3e-4 0.002,3e-4 l 3.5e-4,0 c 0.001,0 0.002,4e-4 0.002,4e-4 l 3.5e-4,0 c 7.1e-4,3e-4 0.001,3e-4 0.002,3e-4 l 7e-4,0 c 7.1e-4,4e-4 10e-4,4e-4 0.002,4e-4 3.5e-4,3e-4 7e-4,3e-4 7e-4,3e-4 7.1e-4,0 0.001,0 0.002,4e-4 3.5e-4,0 7e-4,0 10e-4,0 3.6e-4,0 0.001,3e-4 0.001,3e-4 3.5e-4,0 7e-4,0 7e-4,0 0.001,4e-4 0.002,4e-4 0.002,4e-4 l 0,0 c 10e-4,3e-4 0.002,3e-4 0.002,7e-4 3.5e-4,0 3.5e-4,0 3.5e-4,0 7.1e-4,0 0.001,4e-4 0.002,4e-4 3.5e-4,0 7e-4,0 7e-4,0 7.1e-4,3e-4 10e-4,3e-4 0.002,3e-4 0,0 3.5e-4,0 7e-4,0 7.1e-4,4e-4 10e-4,4e-4 0.002,4e-4 3.5e-4,0 7e-4,3e-4 7e-4,3e-4 7.1e-4,0 0.001,0 0.002,4e-4 3.5e-4,0 3.5e-4,0 7e-4,0 7.1e-4,0 0.002,3e-4 0.002,3e-4 l 0,0 c 7.1e-4,4e-4 0.002,4e-4 0.002,7e-4 l 3.5e-4,0 c 7.1e-4,0 10e-4,4e-4 0.002,4e-4 l 7.1e-4,0 c 3.5e-4,3e-4 0.001,3e-4 0.002,3e-4 l 7.1e-4,4e-4 c 3.5e-4,0 10e-4,0 0.002,3e-4 0,0 3.5e-4,0 3.5e-4,0 0.001,0 0.001,4e-4 0.002,4e-4 l 3.5e-4,0 c 0.002,3e-4 0.004,7e-4 0.005,0 0,0 0,0 0,0 0.001,4e-4 0.002,4e-4 0.002,7e-4 3.5e-4,0 7.1e-4,0 7.1e-4,0 7e-4,0 0.001,0 0.002,4e-4 3.5e-4,0 7.1e-4,0 7.1e-4,0 l 0.002,4e-4 c 3.5e-4,0 7.1e-4,3e-4 7.1e-4,3e-4 7e-4,0 0.001,0 0.002,4e-4 0,0 3.5e-4,0 3.5e-4,0 0.002,3e-4 0.003,7e-4 0.005,0 l 3.6e-4,0 c 7e-4,4e-4 0.001,4e-4 0.002,4e-4 0,3e-4 3.6e-4,3e-4 3.6e-4,3e-4 7e-4,0 10e-4,4e-4 0.002,4e-4 0,0 3.6e-4,0 3.6e-4,0 7e-4,3e-4 10e-4,3e-4 0.002,3e-4 0,4e-4 3.5e-4,4e-4 3.5e-4,4e-4 7.1e-4,0 0.001,3e-4 0.002,3e-4 l 3.5e-4,0 c 0.002,4e-4 0.004,7e-4 0.005,0 l 7.1e-4,3e-4 c 3.5e-4,0 0.001,4e-4 0.002,4e-4 0,0 3.6e-4,0 7.1e-4,0 7e-4,4e-4 10e-4,4e-4 0.002,4e-4 l 7.1e-4,3e-4 c 7e-4,0 0.001,4e-4 0.002,4e-4 0,0 3.5e-4,0 3.5e-4,0 10e-4,3e-4 0.002,3e-4 0.002,7e-4 l 0,0 0.005,10e-4 7.1e-4,4e-4 c 7e-4,0 10e-4,0 0.002,3e-4 0,0 3.5e-4,0 7.1e-4,0 7e-4,4e-4 0.001,4e-4 0.002,4e-4 0,3e-4 3.5e-4,3e-4 7.1e-4,3e-4 3.5e-4,0 0.001,4e-4 0.001,4e-4 3.5e-4,0 7e-4,0 7e-4,0 0.001,3e-4 0.001,3e-4 0.002,7e-4 0,0 3.5e-4,0 3.5e-4,0 0.001,3e-4 0.002,3e-4 0.002,7e-4 l 3.6e-4,0 c 7e-4,3e-4 0.001,3e-4 0.002,3e-4 l 7.1e-4,4e-4 c 3.5e-4,0 10e-4,4e-4 0.002,4e-4 0,0 3.5e-4,3e-4 7.1e-4,3e-4 3.5e-4,0 0.001,4e-4 0.002,4e-4 0,0 3.5e-4,0 3.5e-4,0 7.1e-4,3e-4 10e-4,3e-4 0.002,7e-4 0,0 3.5e-4,0 3.5e-4,0 7.1e-4,3e-4 0.001,3e-4 0.002,7e-4 l 3.5e-4,0 c 7.1e-4,0 0.002,3e-4 0.002,7e-4 l 0,0 c 0.001,0 0.002,3e-4 0.002,3e-4 l 3.5e-4,4e-4 0.002,3e-4 c 3.5e-4,0 7e-4,0 7e-4,0 7.1e-4,4e-4 0.001,4e-4 0.002,7e-4 3.5e-4,0 3.5e-4,0 7e-4,0 7.1e-4,4e-4 0.001,4e-4 0.002,7e-4 3.5e-4,0 3.5e-4,0 7e-4,0 7.1e-4,4e-4 10e-4,4e-4 0.002,8e-4 l 3.5e-4,0 c 7.1e-4,0 0.001,3e-4 0.002,7e-4 l 0,0 c 7.1e-4,0 10e-4,3e-4 0.002,3e-4 l 7e-4,4e-4 c 7.1e-4,0 0.001,3e-4 0.002,3e-4 0,0 3.5e-4,4e-4 7e-4,4e-4 7.1e-4,0 0.001,3e-4 0.002,3e-4 0,0 3.5e-4,4e-4 3.5e-4,4e-4 7.1e-4,0 0.001,3e-4 0.002,3e-4 0,0 3.5e-4,0 3.5e-4,0 0.002,7e-4 0.003,0 0.005,0 l 3.5e-4,0 c 7.1e-4,4e-4 0.001,7e-4 0.002,7e-4 0,0 3.5e-4,0 3.5e-4,4e-4 7.1e-4,0 0.001,3e-4 0.002,3e-4 0,0 3.6e-4,0 7.1e-4,4e-4 l 0.002,4e-4 7.1e-4,0 c 7e-4,3e-4 0.001,3e-4 0.002,7e-4 l 7.1e-4,0 c 0.001,7e-4 0.003,0 0.005,0 l 0,0 c 10e-4,3e-4 0.002,7e-4 0.002,7e-4 l 3.6e-4,3e-4 c 7e-4,0 0.001,4e-4 0.002,4e-4 3.5e-4,0 7.1e-4,0 7.1e-4,3e-4 7e-4,0 0.001,4e-4 0.002,4e-4 l 7.1e-4,3e-4 c 7e-4,0 0.001,4e-4 0.002,4e-4 l 0,3e-4 c 0.002,4e-4 0.004,8e-4 0.005,0 l 3.5e-4,0 c 7.1e-4,3e-4 10e-4,3e-4 0.002,7e-4 l 3.5e-4,0 c 7.1e-4,3e-4 0.001,3e-4 0.002,7e-4 0,0 0,0 3.5e-4,0 7.1e-4,3e-4 10e-4,3e-4 0.002,7e-4 l 0,0 c 0.001,3e-4 0.002,7e-4 0.002,7e-4 l 0.005,0 0,0 c 7e-4,0 10e-4,4e-4 0.002,7e-4 l 0,0 c 0.001,4e-4 0.001,4e-4 0.002,8e-4 l 3.6e-4,0 c 0.001,3e-4 0.001,3e-4 0.002,7e-4 l 3.6e-4,0 c 7e-4,3e-4 0.002,7e-4 0.002,0 l 0,0 c 0.001,4e-4 0.003,0 0.005,0 l 0,0 c 7.1e-4,4e-4 0.001,4e-4 0.002,7e-4 l 3.5e-4,4e-4 0.002,3e-4 c 0,0 3.5e-4,4e-4 3.5e-4,4e-4 7.1e-4,0 0.001,3e-4 0.002,7e-4 l 3.5e-4,0 c 7.1e-4,4e-4 10e-4,4e-4 0.002,7e-4 l 0,0 c 0.002,7e-4 0.004,0 0.005,0 l 0,0 c 7e-4,3e-4 0.002,3e-4 0.002,7e-4 0,0 0,0 0,0 10e-4,3e-4 10e-4,7e-4 0.002,7e-4 l 7.1e-4,3e-4 c 3.5e-4,0 0.001,4e-4 0.002,7e-4 l 3.6e-4,0 c 0.002,7e-4 0.005,0 0.007,0 l 3.6e-4,0 c 7e-4,4e-4 0.001,7e-4 0.002,7e-4 0,0 0,4e-4 3.5e-4,4e-4 7.1e-4,0 10e-4,3e-4 0.002,7e-4 3.5e-4,0 3.5e-4,0 3.5e-4,0 0.001,3e-4 0.001,3e-4 0.002,7e-4 l 3.5e-4,0 c 0.002,0 0.005,0 0.007,0 l 3.5e-4,0 c 7e-4,4e-4 0.001,4e-4 0.002,7e-4 l 3.5e-4,0 c 7e-4,4e-4 0.001,7e-4 0.002,7e-4 l 3.6e-4,4e-4 c 0.001,3e-4 0.002,3e-4 0.002,7e-4 l 3.5e-4,0 c 0.002,0 0.005,0 0.007,0 l 3.5e-4,0 c 7.1e-4,3e-4 10e-4,3e-4 0.002,7e-4 l 0,0 c 7.1e-4,3e-4 0.001,7e-4 0.002,0 l 3.5e-4,0 c 7e-4,3e-4 0.001,7e-4 0.002,7e-4 l 3.5e-4,3e-4 c 0.002,7e-4 0.005,0 0.007,0 l 0,0 c 7.1e-4,3e-4 10e-4,7e-4 0.002,0 l 3.5e-4,0 c 7.1e-4,4e-4 0.001,7e-4 0.002,7e-4 l 3.5e-4,4e-4 c 0.003,0 0.006,0 0.009,0 l 0,0 c 10e-4,4e-4 0.002,7e-4 0.002,0 l 0,0 c 7.1e-4,3e-4 0.001,7e-4 0.002,7e-4 l 3.5e-4,3e-4 c 0.003,0 0.006,0 0.009,0 l 3.5e-4,3e-4 c 7e-4,0 10e-4,4e-4 0.002,7e-4 0,0 0,0 0,0 7e-4,4e-4 0.001,7e-4 0.002,0 0,0 3.6e-4,0 3.6e-4,0 0.003,0 0.006,0 0.009,0 l 3.5e-4,0 c 7.1e-4,3e-4 0.001,7e-4 0.002,0 l 0,0 c 7e-4,4e-4 10e-4,7e-4 0.002,0 l 3.6e-4,0 c 0.003,0 0.006,0 0.009,0 l 0,3e-4 c 7e-4,0 0.001,4e-4 0.002,7e-4 l 0,0 c 7e-4,4e-4 0.001,7e-4 0.002,0 l 0,0 c 0.003,0 0.006,0 0.01,0 l 0,0 c 7.1e-4,4e-4 0.001,7e-4 0.002,0 l 0,0 c 10e-4,3e-4 0.002,7e-4 0.002,0 l 0,0 c 0.003,0 0.006,0 0.009,0 l 0,0 c 7e-4,3e-4 0.001,7e-4 0.002,10e-4 l 3.6e-4,0 c 7e-4,4e-4 0.001,7e-4 0.002,0 l 0,0 0.009,0 0,4e-4 c 7e-4,0 0.001,3e-4 0.002,7e-4 l 3.6e-4,3e-4 c 0.004,0 0.007,0 0.0113,0.01 0,0 0,0 0,0 7.1e-4,4e-4 0.001,7e-4 0.002,0 l 3.5e-4,0 c 7.1e-4,3e-4 0.001,0 0.002,0 l 0,0 c 0.002,0 0.005,0 0.007,0 l 0,0 c 7.1e-4,3e-4 0.001,7e-4 0.002,0 l 3.5e-4,4e-4 c 7.1e-4,3e-4 0.001,7e-4 0.002,10e-4 l 0,0 c 0.003,0 0.006,0 0.009,0 l 0,0 c 7.1e-4,4e-4 10e-4,7e-4 0.002,0 l 0,0 c 7e-4,3e-4 0.001,7e-4 0.002,0 l 0,0 c 0.004,0 0.007,0 0.0113,0.01 l 0,0 c 0.001,4e-4 0.001,7e-4 0.002,0 l 3.5e-4,0 c 0.008,0 0.0162,0.01 0.0244,0.013 0,0 0,0 0,0 0.004,0 0.007,0 0.0109,0.01 l 0,0 c 7.1e-4,4e-4 0.001,8e-4 0.002,0 l 0,0 c 0.005,0 0.009,0.01 0.0131,0.01 l 3.5e-4,0 c 0.004,0 0.008,0 0.0127,0.01 l 0,0 c 0.005,0 0.009,0.01 0.0131,0.01 l 0,0 c 0.008,0.01 0.0173,0.011 0.0257,0.016 l 0,0 c 0.024,0.015 0.0473,0.031 0.0702,0.048 l 3.6e-4,0 c 3.5e-4,8e-4 10e-4,0 0.002,0 l 0,3e-4 0.002,0 0,0 c 0.003,0 0.005,0 0.008,0.01 l 0,0 c 7.1e-4,4e-4 10e-4,7e-4 0.002,0 l 0,0 c 0.003,0 0.007,0 0.01,0.01 l 0,4e-4 c 7.1e-4,3e-4 10e-4,7e-4 0.002,0 l 0,0 c 0.003,0 0.006,0 0.01,0.01 l 0,4e-4 c 7e-4,3e-4 0.001,0 0.002,0 l 3.6e-4,0 c 0.003,0 0.006,0.01 0.01,0.01 l 3.5e-4,0 c 3.6e-4,7e-4 10e-4,0 0.002,0 l 0,0 c 0.003,0 0.006,0 0.01,0.01 l 3.5e-4,0 c 7.1e-4,7e-4 10e-4,0 0.002,0 l 0,3e-4 c 0.002,0 0.005,0 0.008,0.01 l 0,4e-4 0.002,0 3.6e-4,0 c 7e-4,7e-4 10e-4,0 0.002,0 l 0,0 c 0.002,0 0.005,0 0.008,0.01 l 0,0 c 7.1e-4,7e-4 0.001,0 0.002,0 0,4e-4 0,4e-4 0,4e-4 7e-4,3e-4 10e-4,0 0.002,0 l 3.5e-4,0 c 0.002,0 0.004,0 0.006,0 l 0,0 c 7e-4,7e-4 0.001,0 0.002,0 l 3.5e-4,0 c 3.6e-4,3e-4 10e-4,0 10e-4,0 l 3.6e-4,3e-4 c 3.5e-4,4e-4 0.001,7e-4 0.001,0 l 3.5e-4,0 c 7.1e-4,7e-4 0.001,0 0.002,0 l 0,0 c 0.001,0 0.002,0 0.004,0 l 0,3e-4 c 7e-4,4e-4 0.001,7e-4 0.002,0 l 3.5e-4,0 c 3.5e-4,7e-4 10e-4,0 10e-4,0 l 3.6e-4,3e-4 c 7e-4,7e-4 0.001,0 0.002,0 l 0,4e-4 c 0.002,0 0.004,0 0.006,0 l 0,0 c 7.1e-4,7e-4 10e-4,0 0.002,0 l 3.5e-4,4e-4 c 3.5e-4,3e-4 7.1e-4,7e-4 0.001,0 l 3.5e-4,3e-4 c 3.6e-4,4e-4 0.001,8e-4 0.001,0 l 3.5e-4,0 c 0.002,0 0.004,0 0.005,0 l 3.5e-4,4e-4 c 3.6e-4,3e-4 0.001,0 0.001,0 l 3.6e-4,3e-4 c 7e-4,4e-4 0.001,7e-4 0.001,0 l 7e-4,7e-4 c 3.6e-4,3e-4 7.1e-4,7e-4 0.001,0 0,0 0,0 0,0 7.1e-4,7e-4 10e-4,0 0.002,0 l 0,0 c 0.001,0 0.002,0 0.004,0 l 7e-4,4e-4 c 3.5e-4,7e-4 7.1e-4,10e-4 0.001,0 l 3.5e-4,3e-4 c 7.1e-4,4e-4 10e-4,0 10e-4,0 l 3.6e-4,0 c 7e-4,7e-4 0.001,0 0.002,0 l 0,0 c 0.002,0 0.004,0 0.005,0.01 l 3.6e-4,0 0.001,0 3.5e-4,4e-4 c 7e-4,7e-4 10e-4,0 10e-4,0 l 3.5e-4,3e-4 c 7.1e-4,7e-4 10e-4,0 10e-4,0 l 3.6e-4,3e-4 c 0.001,0 0.002,0 0.004,0 l 0,0 c 7.1e-4,4e-4 0.001,0 0.002,0 l 3.5e-4,7e-4 0.001,0 c 0,0 3.6e-4,4e-4 3.6e-4,4e-4 3.5e-4,7e-4 7e-4,10e-4 0.001,0 0,0 3.5e-4,3e-4 3.5e-4,3e-4 3.5e-4,4e-4 7e-4,0 0.001,0 0,0 0,4e-4 0,4e-4 10e-4,0 0.002,0 0.004,0 0,0 3.5e-4,0 3.5e-4,0 3.5e-4,7e-4 0.001,0 0.001,0 l 3.5e-4,4e-4 c 7.1e-4,7e-4 0.001,0.001 0.001,0 l 3.5e-4,7e-4 0.001,0 c 0,0 3.5e-4,3e-4 3.5e-4,7e-4 3.6e-4,3e-4 0.001,7e-4 0.001,0 0,0 3.6e-4,4e-4 3.6e-4,4e-4 3.5e-4,7e-4 10e-4,0.001 0.002,0 l 0,0 c 3.5e-4,4e-4 0.001,0 0.001,0 l 7.1e-4,4e-4 c 3.5e-4,3e-4 7e-4,7e-4 10e-4,0 l 7e-4,7e-4 c 3.5e-4,4e-4 7.1e-4,7e-4 10e-4,0 l 3.5e-4,7e-4 c 3.5e-4,3e-4 7.1e-4,7e-4 10e-4,0 3.5e-4,4e-4 7.1e-4,4e-4 7.1e-4,7e-4 3.5e-4,4e-4 7e-4,7e-4 0.001,0 0,0 3.6e-4,4e-4 7.1e-4,7e-4 3.5e-4,4e-4 7.1e-4,7e-4 0.001,0 3.5e-4,3e-4 7e-4,7e-4 0.001,0.001 3.5e-4,4e-4 7e-4,7e-4 10e-4,0 0,0 3.6e-4,7e-4 7.1e-4,7e-4 l 0.001,0 c 0,4e-4 3.5e-4,8e-4 3.5e-4,8e-4 7.1e-4,3e-4 7.1e-4,7e-4 0.001,0 3.5e-4,4e-4 3.5e-4,4e-4 7.1e-4,7e-4 3.5e-4,4e-4 7e-4,7e-4 0.001,0 3.6e-4,0 3.6e-4,3e-4 7.1e-4,7e-4 l 10e-4,0 c 0,0 3.5e-4,4e-4 3.5e-4,7e-4 7.1e-4,4e-4 10e-4,7e-4 10e-4,0 3.5e-4,4e-4 7.1e-4,7e-4 0.001,0 0,3e-4 3.5e-4,7e-4 7.1e-4,10e-4 3.5e-4,4e-4 7e-4,7e-4 7e-4,7e-4 3.5e-4,4e-4 7.1e-4,7e-4 0.001,0 3.5e-4,3e-4 3.5e-4,3e-4 7e-4,7e-4 3.6e-4,3e-4 7.1e-4,7e-4 7.1e-4,10e-4 3.5e-4,4e-4 7.1e-4,4e-4 7.1e-4,4e-4 3.5e-4,7e-4 7e-4,0 10e-4,0 3.6e-4,0 3.6e-4,4e-4 7.1e-4,7e-4 3.5e-4,4e-4 7.1e-4,7e-4 10e-4,0 0,0 3.5e-4,3e-4 7e-4,7e-4 0,3e-4 3.6e-4,7e-4 7.1e-4,7e-4 3.5e-4,7e-4 10e-4,0 10e-4,0 0,0 7.1e-4,4e-4 7.1e-4,8e-4 3.5e-4,3e-4 7e-4,7e-4 10e-4,0.001 l 7.1e-4,7e-4 c 3.5e-4,4e-4 3.5e-4,7e-4 7.1e-4,0 3.5e-4,0 7e-4,3e-4 7e-4,7e-4 3.5e-4,3e-4 7.1e-4,7e-4 0.001,0 0,0 3.5e-4,4e-4 3.5e-4,4e-4 3.5e-4,7e-4 7.1e-4,0 10e-4,0 3.5e-4,0 3.5e-4,4e-4 7.1e-4,4e-4 3.5e-4,3e-4 7e-4,7e-4 10e-4,0.001 0,4e-4 3.6e-4,7e-4 3.6e-4,7e-4 7e-4,7e-4 0.001,0 0.002,0 3.5e-4,0 3.5e-4,4e-4 7.1e-4,7e-4 3.5e-4,4e-4 7e-4,7e-4 10e-4,0 0,0 3.6e-4,4e-4 3.6e-4,4e-4 3.5e-4,3e-4 7e-4,7e-4 0.001,0 l 7e-4,7e-4 c 3.5e-4,4e-4 7.1e-4,7e-4 7.1e-4,0 3.5e-4,3e-4 3.5e-4,3e-4 7e-4,7e-4 3.6e-4,3e-4 7.1e-4,7e-4 10e-4,0 0,0 3.5e-4,4e-4 3.5e-4,4e-4 10e-4,0 0.002,0 0.004,0 l 3.5e-4,4e-4 c 3.6e-4,3e-4 7.1e-4,0 0.001,0 3.6e-4,0 3.6e-4,3e-4 3.6e-4,3e-4 7e-4,4e-4 0.001,7e-4 0.001,0 0,4e-4 0,4e-4 3.5e-4,7e-4 3.5e-4,4e-4 7e-4,7e-4 0.001,0 0,0 3.5e-4,3e-4 3.5e-4,7e-4 3.5e-4,3e-4 7.1e-4,7e-4 10e-4,0 l 0,4e-4 c 0.001,0 0.003,0 0.004,0 0,4e-4 0,4e-4 0,4e-4 3.5e-4,7e-4 0.001,10e-4 0.001,0 0,0 0,3e-4 0,3e-4 7.1e-4,4e-4 10e-4,0 10e-4,0 l 0,0 c 7.1e-4,7e-4 0.001,0 0.001,0 l 3.5e-4,0 c 3.5e-4,7e-4 7e-4,0 0.001,0 l 0,0 0.004,0 0,0 c 3.5e-4,7e-4 7.1e-4,10e-4 10e-4,0 0,0 3.5e-4,3e-4 3.5e-4,7e-4 3.5e-4,3e-4 7.1e-4,7e-4 0.001,0 l 3.5e-4,4e-4 c 3.5e-4,7e-4 7.1e-4,0 0.001,0 l 0,3e-4 c 0.002,0 0.004,0 0.005,0.01 l 0,0 c 7.1e-4,7e-4 0.001,0 0.001,0 0,4e-4 0,4e-4 0,4e-4 7e-4,3e-4 0.001,10e-4 0.001,0 l 0,3e-4 c 7e-4,4e-4 10e-4,0 10e-4,0 0,0 0,0 0,0 0.002,0 0.005,0.01 0.007,0.01 l 0,0 c 7.1e-4,4e-4 0.001,0 0.001,0 l 0,4e-4 c 0.007,0.01 0.0145,0.018 0.0215,0.027 0.15805,0.2064 0.11959,0.5017 -0.0864,0.6601 -0.0857,0.066 -0.18662,0.098 -0.28716,0.098 -0.14111,0 -0.28081,-0.063 -0.37359,-0.1838 -0.0935,-0.1217 -0.23495,-0.1916 -0.38806,-0.1916 l -1.41111,0 c -0.26035,0 -0.47131,-0.2109 -0.47131,-0.4709 0,-0.2604 0.21096,-0.4713 0.47131,-0.4713 m 2.84198,2.6102 0,1.4111 c 0,0.2603 -0.21061,0.4713 -0.47096,0.4713 -0.26035,0 -0.47131,-0.211 -0.47131,-0.4713 l 0,-1.4111 c 0,-0.26 0.21096,-0.471 0.47131,-0.471 0.26035,0 0.47096,0.211 0.47096,0.471 m 0,4.9389 c 0,0.2603 -0.21061,0.4713 -0.47096,0.4713 -0.26035,0 -0.47131,-0.211 -0.47131,-0.4713 l 0,-1.4111 c 0,-0.26 0.21096,-0.471 0.47131,-0.471 0.26035,0 0.47096,0.211 0.47096,0.471 l 0,1.4111 z m 0,3.5277 c 0,0.2604 -0.21061,0.4714 -0.47096,0.4714 -0.26035,0 -0.47131,-0.211 -0.47131,-0.4714 l 0,-1.4111 c 0,-0.26 0.21096,-0.4709 0.47131,-0.4709 0.26035,0 0.47096,0.2109 0.47096,0.4709 l 0,1.4111 z m 0,3.5278 c 0,0.2604 -0.21061,0.4713 -0.47096,0.4713 -0.26035,0 -0.47131,-0.2109 -0.47131,-0.4713 l 0,-1.4111 c 0,-0.26 0.21096,-0.4709 0.47131,-0.4709 0.26035,0 0.47096,0.2109 0.47096,0.4709 l 0,1.4111 z m 0,3.5278 c 0,0.2603 -0.21061,0.4713 -0.47096,0.4713 -0.26035,0 -0.47131,-0.211 -0.47131,-0.4713 l 0,-1.4111 c 0,-0.26 0.21096,-0.471 0.47131,-0.471 0.26035,0 0.47096,0.211 0.47096,0.471 l 0,1.4111 z m 0,3.5278 c 0,0.2603 -0.21061,0.4713 -0.47096,0.4713 -0.26035,0 -0.47131,-0.211 -0.47131,-0.4713 l 0,-1.4111 c 0,-0.26 0.21096,-0.471 0.47131,-0.471 0.26035,0 0.47096,0.211 0.47096,0.471 l 0,1.4111 z m 0,2.4465 0,0 0,3e-4 0,0 0,7e-4 c 0,7e-4 0,0.001 0,0 l 0,0 0,0 c 0,3e-4 0,7e-4 0,7e-4 l 0,0 0,0 c 0,4e-4 0,0 0,0 l 0,0 c 0,4e-4 0,7e-4 0,0 0,3e-4 0,7e-4 0,10e-4 l 0,0 c 0,7e-4 0,10e-4 0,0 0,3e-4 0,7e-4 0,0 l 0,10e-4 c 0,4e-4 0,7e-4 0,0 0,3e-4 0,7e-4 0,0.001 0,7e-4 0,0 0,0 l 0,7e-4 c 0,7e-4 0,0 0,0 0,3e-4 0,7e-4 0,10e-4 0,4e-4 0,7e-4 0,0 0,4e-4 0,7e-4 -3.5e-4,0 0,3e-4 0,7e-4 0,0.001 0,4e-4 0,7e-4 0,0 0,4e-4 0,7e-4 0,0 0,3e-4 0,7e-4 0,0 0,7e-4 0,0 0,0 0,4e-4 0,7e-4 0,0 0,3e-4 0,7e-4 0,10e-4 0,4e-4 0,7e-4 0,0 0,4e-4 0,7e-4 0,0 0,0 0,7e-4 0,0 0,3e-4 0,7e-4 0,10e-4 0,4e-4 0,7e-4 0,0 -3.6e-4,3e-4 -3.6e-4,7e-4 -3.6e-4,0 0,4e-4 0,4e-4 0,7e-4 0,4e-4 0,0 0,0 0,4e-4 0,7e-4 0,0 0,3e-4 0,7e-4 0,0 0,0 0,3e-4 0,7e-4 l 0,0 0,0 c 0,3e-4 0,7e-4 0,10e-4 -3.5e-4,4e-4 -3.5e-4,7e-4 -3.5e-4,0 0,7e-4 0,0 0,0 l 0,7e-4 c 0,7e-4 0,0 0,0 0,3e-4 0,7e-4 0,0 0,4e-4 0,7e-4 0,0 0,3e-4 0,7e-4 0,10e-4 -3.5e-4,4e-4 -3.5e-4,7e-4 -3.5e-4,0 0,3e-4 0,0 0,0 0,4e-4 0,7e-4 0,0 0,3e-4 0,7e-4 0,10e-4 0,4e-4 0,7e-4 0,0 l 0,0 c 0,4e-4 0,7e-4 -3.5e-4,0 0,3e-4 0,7e-4 0,10e-4 0,0 0,7e-4 0,0 0,3e-4 0,7e-4 0,0.001 0,4e-4 0,7e-4 0,0 l 0,10e-4 c 0,7e-4 0,7e-4 0,0 -3.6e-4,7e-4 -3.6e-4,0 -3.6e-4,0 0,4e-4 0,7e-4 0,0 l 0,10e-4 c 0,4e-4 0,7e-4 0,7e-4 0,7e-4 0,0 0,0 0,0 0,7e-4 -3.5e-4,0 0,3e-4 0,7e-4 0,10e-4 0,4e-4 0,7e-4 0,0 0,3e-4 0,7e-4 0,10e-4 0,4e-4 0,7e-4 0,0 0,3e-4 0,7e-4 -3.5e-4,0 0,4e-4 0,4e-4 0,7e-4 0,7e-4 0,0 0,0 0,4e-4 0,7e-4 0,0 0,3e-4 0,7e-4 0,10e-4 0,0 0,7e-4 0,0 -3.6e-4,3e-4 -3.6e-4,7e-4 -3.6e-4,0 0,3e-4 0,10e-4 0,0 0,3e-4 0,7e-4 0,10e-4 0,4e-4 0,7e-4 0,7e-4 0,7e-4 -3.5e-4,0 -3.5e-4,0 0,0 0,7e-4 0,0 0,3e-4 0,7e-4 0,0 0,0 0,4e-4 0,7e-4 0,7e-4 0,0 -3.5e-4,0 0,4e-4 0,7e-4 0,0 0,3e-4 0,7e-4 0,10e-4 l 0,7e-4 c 0,8e-4 0,0 0,0 l 0,0 c -3.5e-4,0 -3.5e-4,0 -7.1e-4,0.01 l 0,3e-4 c 0,7e-4 0,0 0,0 0,3e-4 0,7e-4 0,7e-4 -3.5e-4,7e-4 -3.5e-4,10e-4 -3.5e-4,0 0,3e-4 0,7e-4 0,10e-4 0,4e-4 0,8e-4 0,0 0,4e-4 0,7e-4 0,0 -3.5e-4,3e-4 -3.5e-4,7e-4 -3.5e-4,10e-4 0,4e-4 0,7e-4 0,0 0,3e-4 0,0.001 0,0 0,3e-4 -3.6e-4,7e-4 -3.6e-4,7e-4 0,7e-4 0,0 0,0 0,0 0,7e-4 0,0 0,3e-4 0,7e-4 0,10e-4 -3.5e-4,4e-4 -3.5e-4,7e-4 -3.5e-4,7e-4 0,7e-4 0,0 0,0 0,3e-4 0,7e-4 0,7e-4 0,7e-4 0,0 -3.5e-4,0 0,4e-4 0,7e-4 0,0 0,3e-4 0,7e-4 0,0 0,4e-4 0,7e-4 0,0 -3.5e-4,3e-4 -3.5e-4,7e-4 -3.5e-4,0 0,4e-4 0,7e-4 0,0 0,4e-4 0,0 0,0 0,0 -3.6e-4,7e-4 -3.6e-4,0 0,3e-4 0,7e-4 0,0 0,4e-4 0,7e-4 0,0 0,3e-4 -3.5e-4,7e-4 -3.5e-4,0 0,4e-4 0,8e-4 0,0 l 0,0 c 0,0 0,4e-4 0,4e-4 -3.5e-4,7e-4 -3.5e-4,0 -3.5e-4,0 0,0 0,4e-4 0,7e-4 0,7e-4 0,0 -3.5e-4,0 0,4e-4 0,8e-4 0,8e-4 0,7e-4 0,10e-4 0,0 0,0 -3.6e-4,7e-4 -3.6e-4,10e-4 0,4e-4 0,7e-4 0,0 0,3e-4 0,7e-4 0,7e-4 0,7e-4 -3.5e-4,0 -3.5e-4,0 l 0,7e-4 c 0,3e-4 0,0 0,0 l -3.5e-4,7e-4 c -3.6e-4,0 -7.1e-4,0.01 -10e-4,0.012 l 0,3e-4 c 0,7e-4 0,0 0,0 l 0,3e-4 c -3.6e-4,7e-4 -3.6e-4,0 -3.6e-4,0 l 0,4e-4 c 0,7e-4 -3.5e-4,0 -3.5e-4,0 l 0,4e-4 c 0,7e-4 0,10e-4 -3.5e-4,0 0,0 0,4e-4 0,7e-4 0,4e-4 0,0 0,0 0,3e-4 -3.6e-4,3e-4 -3.6e-4,3e-4 0,7e-4 0,0 0,0 0,3e-4 0,3e-4 0,7e-4 -3.5e-4,7e-4 -3.5e-4,10e-4 -3.5e-4,0 0,0 0,4e-4 0,4e-4 0,7e-4 -3.5e-4,10e-4 -3.5e-4,0 0,0 0,7e-4 0,0 0,3e-4 0,7e-4 -3.5e-4,0 l 0,7e-4 c 0,3e-4 0,7e-4 0,0 l -3.6e-4,3e-4 c 0,7e-4 0,0 0,0 0,4e-4 -3.5e-4,4e-4 -3.5e-4,4e-4 0,7e-4 0,0 0,0 0,4e-4 0,4e-4 0,4e-4 -3.5e-4,10e-4 -3.5e-4,0 -3.5e-4,0 0,0 0,7e-4 0,7e-4 -3.5e-4,7e-4 -3.5e-4,0 -3.5e-4,0 l 0,10e-4 c 0,4e-4 -3.6e-4,7e-4 -3.6e-4,0 0,0 0,4e-4 0,7e-4 0,4e-4 0,7e-4 -3.5e-4,0 0,0 0,4e-4 0,7e-4 0,4e-4 0,0 -3.5e-4,0 l 0,3e-4 c 0,7e-4 0,0 -3.6e-4,0 l 0,3e-4 c 0,7e-4 0,0 0,0 l -3.5e-4,3e-4 c -7e-4,0.01 -0.002,0.012 -0.003,0.019 l 0,4e-4 c 0,7e-4 -3.5e-4,0 -3.5e-4,0 l 0,3e-4 c 0,7e-4 -3.6e-4,0 -3.6e-4,0 l 0,3e-4 c 0,7e-4 -3.5e-4,0 -3.5e-4,0 l 0,3e-4 c -3.5e-4,7e-4 -3.5e-4,0 -3.5e-4,0 0,0 0,4e-4 0,4e-4 -3.5e-4,7e-4 -3.5e-4,0 -3.5e-4,0 0,0 0,4e-4 0,4e-4 -3.6e-4,7e-4 -3.6e-4,10e-4 -3.6e-4,0 0,4e-4 0,4e-4 0,4e-4 -3.5e-4,7e-4 -3.5e-4,0 -3.5e-4,0 l 0,7e-4 c -3.5e-4,3e-4 -3.5e-4,0 -3.5e-4,0 l -3.6e-4,7e-4 c 0,3e-4 0,10e-4 0,0 l -3.5e-4,7e-4 c 0,3e-4 0,0 0,0 l -3.5e-4,7e-4 c 0,4e-4 0,0 -3.5e-4,0 l 0,7e-4 c 0,4e-4 0,0 -3.6e-4,0 l 0,7e-4 c 0,4e-4 0,0 -3.5e-4,0 l 0,4e-4 c 0,3e-4 -3.5e-4,0 -3.5e-4,0 l 0,0 c 0,7e-4 -3.6e-4,0 -3.6e-4,0 l 0,0 -3.5e-4,0 0,0 c -0.002,0.01 -0.003,0.016 -0.005,0.025 l -3.5e-4,4e-4 c 0,3e-4 0,0 -3.5e-4,0 l 0,0 c 0,7e-4 -3.6e-4,0 -3.6e-4,0 l 0,0 c 0,7e-4 -3.5e-4,0 -3.5e-4,0 l 0,0 c -3.5e-4,7e-4 -3.5e-4,0 -3.5e-4,0 l -3.5e-4,0 c 0,7e-4 0,0 -3.6e-4,0 l 0,0 c 0,7e-4 -3.5e-4,0 -3.5e-4,0 l 0,0 c -3.5e-4,7e-4 -3.5e-4,0 -3.5e-4,0 l 0,0 c -3.5e-4,7e-4 -3.5e-4,0 -7.1e-4,0 l 0,0 c 0,7e-4 -3.5e-4,0 -3.5e-4,0 l 0,0 c -0.0427,0.1908 -0.12347,0.3676 -0.23424,0.5214 l 0,3e-4 c -3.6e-4,4e-4 -7.1e-4,7e-4 -0.001,0 l 0,0 c -3.6e-4,7e-4 -7.1e-4,0 -10e-4,0 l -3.5e-4,0 c -3.6e-4,3e-4 -7.1e-4,0 -0.001,0 l 0,4e-4 c -3.6e-4,3e-4 -7.1e-4,10e-4 -0.001,0 l -3.5e-4,3e-4 c -3.6e-4,4e-4 -7.1e-4,7e-4 -0.001,0 l 0,4e-4 c -3.5e-4,3e-4 -7.1e-4,7e-4 -10e-4,0.001 l -3.5e-4,4e-4 c -3.6e-4,7e-4 -7.1e-4,0 -0.001,0 l 0,4e-4 -0.001,0 -3.5e-4,3e-4 c -3.6e-4,4e-4 -7.1e-4,0 -0.001,0 l 0,4e-4 c -3.5e-4,3e-4 -7.1e-4,7e-4 -10e-4,0 -3.5e-4,4e-4 -3.5e-4,4e-4 -3.5e-4,4e-4 -3.5e-4,7e-4 -7.1e-4,0 -10e-4,0 l -3.5e-4,4e-4 -7.1e-4,0 -3.5e-4,3e-4 c -3.5e-4,4e-4 -7.1e-4,0 -10e-4,0 -3.5e-4,4e-4 -7.1e-4,0 -0.001,0 0,0 -3.5e-4,4e-4 -3.5e-4,4e-4 -7.1e-4,0 -0.001,0 -0.002,0 -3.5e-4,3e-4 -7e-4,7e-4 -10e-4,0 -3.5e-4,4e-4 -7e-4,7e-4 -7e-4,0 -3.5e-4,3e-4 -7.1e-4,7e-4 -10e-4,0 l -3.5e-4,8e-4 c -3.6e-4,3e-4 -3.6e-4,7e-4 -7.1e-4,0 0,0 -3.5e-4,4e-4 -3.5e-4,4e-4 l -10e-4,0 0,0 c -7e-4,7e-4 -0.001,0 -0.001,0 l -3.5e-4,4e-4 c -3.6e-4,3e-4 -7.1e-4,0 -7.1e-4,0 l -3.5e-4,0 c -3.5e-4,7e-4 -7.1e-4,0 -10e-4,0 l -3.5e-4,4e-4 c -3.6e-4,7e-4 -7.1e-4,0 -0.001,0 l 0,3e-4 c -3.5e-4,4e-4 -7.1e-4,0 -0.001,0 l -3.5e-4,4e-4 c -3.5e-4,3e-4 -7.1e-4,7e-4 -0.001,0 l -3.5e-4,4e-4 c -3.6e-4,3e-4 -7.1e-4,7e-4 -10e-4,0 0,0 0,0 0,0 -7.1e-4,7e-4 -0.001,0 -0.001,0 l 0,3e-4 c -3.6e-4,4e-4 -7.1e-4,0 -0.001,0 l -3.5e-4,4e-4 c -3.6e-4,4e-4 -7.1e-4,0 -0.001,0 l -3.5e-4,0 c -3.6e-4,7e-4 -7.1e-4,0 -10e-4,0 l -3.6e-4,0 c -3.5e-4,7e-4 -7e-4,0 -0.001,0 l 0,3e-4 c -3.6e-4,4e-4 -0.001,0 -0.001,0 l 0,4e-4 c -0.0254,0.032 -0.0519,0.062 -0.0801,0.092 -0.0924,0.097 -0.21695,0.1467 -0.34148,0.1467 -0.11607,0 -0.23213,-0.042 -0.32315,-0.128 -0.18944,-0.1785 -0.19826,-0.4766 -0.0198,-0.6661 0.0857,-0.091 0.13265,-0.2099 0.13265,-0.3351 l 0,-0.3299 c 0,-0.26 0.21096,-0.4709 0.47131,-0.4709 0.26035,0 0.47096,0.2109 0.47096,0.4709 l 0,0.3299 z m -18.06187,3.5585 12.52573,0 c -0.14499,-0.061 -0.2914,-0.1225 -0.43392,-0.1824 -1.65135,-0.6929 -3.16406,-1.3286 -4.57482,-1.9449 l -0.30233,0 c -0.20955,0 -0.38136,-0.1393 -0.44239,-0.3284 -3.0173,-1.3402 -5.55942,-2.6169 -7.94879,-4.2235 -1.14582,-0.7701 -1.95897,-1.6238 -2.43945,-2.5435 -0.43145,0.1764 -0.86819,0.3104 -1.3081,0.3965 -0.26282,0.051 -0.53058,0.087 -0.79587,0.1055 -0.14781,0.011 -0.2981,0.016 -0.44626,0.016 -1.70427,0 -3.37926,-0.6869 -4.84364,-1.9862 -2.61585,-2.3216 -3.31929,-5.5792 -3.99945,-8.7298 -0.16227,-0.7511 -0.31538,-1.4602 -0.49247,-2.1414 -0.15276,-0.5852 0.0868,-1.1984 0.5976,-1.5271 0.22543,-0.144 0.48578,-0.2202 0.75318,-0.2202 l 0,0 c 0.31962,0 0.63253,0.1111 0.88018,0.3126 0.70697,0.5747 1.89089,0.8661 3.51967,0.8661 0.30197,0 0.62477,-0.01 0.95885,-0.03 0.57538,-0.034 1.25377,-0.069 1.92581,-0.069 1.70286,0 3.8601,0.2039 5.4416,1.7949 1.07244,1.0788 1.69686,2.6275 1.89089,4.6909 1.12254,0.038 2.32657,0.4847 3.58281,1.3398 3.65795,2.4899 6.72394,5.5976 10.96786,9.8986 1.23896,1.2559 2.63067,2.6642 4.14055,4.1607 0.59902,-0.3856 0.99766,-1.0566 0.99766,-1.82 l 0,-25.4631 c 0,-1.1935 -0.9712,-2.1647 -2.16464,-2.1647 l -37.93808,0 c -1.19345,0 -2.16465,0.9712 -2.16465,2.1647 l 0,25.4631 c 0,1.1935 0.9712,2.1647 2.16465,2.1647 l 17.99025,0 -3.35915,4.1522 c -0.18415,0.2271 -0.14887,0.5605 0.0783,0.744 0.0981,0.079 0.2159,0.1178 0.33267,0.1178 0.15416,0 0.30727,-0.067 0.41169,-0.1962 l 2.98627,-3.6914 0,3.3584 c 0,0.2925 0.23671,0.5292 0.52916,0.5292 0.2921,0 0.52917,-0.2367 0.52917,-0.5292 l 0,-3.3581 2.98591,3.6911 c 0.10442,0.1292 0.25753,0.1962 0.41169,0.1962 0.11677,0 0.2346,-0.038 0.33267,-0.1178 0.22719,-0.1835 0.26247,-0.5169 0.0783,-0.744 l -3.35915,-4.1522 z"
         style="fill:#f89592;fill-opacity:1;fill-rule:nonzero;stroke:none"
         id="path21254-0-5-4"
         inkscape:connector-curvature="0" />
      <path
         d="m 49.55021,887.61866 0.0716,-0.1058 c 0.70803,-1.0411 1.65877,-1.6888 2.77037,-1.8945 -0.17357,-1.8238 -0.7105,-3.1739 -1.62172,-4.0908 -0.0914,-0.092 -0.18556,-0.1771 -0.28187,-0.2585 -0.0261,-0.022 -0.0526,-0.043 -0.079,-0.064 -0.0734,-0.059 -0.14782,-0.116 -0.22366,-0.17 -0.0289,-0.021 -0.0575,-0.041 -0.0864,-0.061 -0.0935,-0.063 -0.18839,-0.1231 -0.2854,-0.1788 -0.008,0 -0.0166,-0.01 -0.0251,-0.015 -0.10654,-0.06 -0.21555,-0.115 -0.32667,-0.1665 -0.0296,-0.014 -0.06,-0.026 -0.0903,-0.04 -0.0836,-0.037 -0.16828,-0.072 -0.254,-0.1047 -0.0346,-0.013 -0.0691,-0.026 -0.10443,-0.038 -0.0956,-0.034 -0.19296,-0.066 -0.29139,-0.095 -0.0208,-0.01 -0.0409,-0.013 -0.0617,-0.019 -0.11923,-0.034 -0.24059,-0.064 -0.36371,-0.092 -0.0314,-0.01 -0.0639,-0.013 -0.0956,-0.02 -0.0938,-0.02 -0.18909,-0.038 -0.28505,-0.054 -0.0399,-0.01 -0.0797,-0.013 -0.11994,-0.019 -0.10019,-0.015 -0.20108,-0.029 -0.30304,-0.041 -0.0293,0 -0.0579,-0.01 -0.0871,-0.011 -0.13088,-0.014 -0.26353,-0.026 -0.39794,-0.036 -0.03,0 -0.0607,0 -0.091,-0.01 -0.10619,-0.01 -0.21308,-0.012 -0.32138,-0.016 -0.0434,0 -0.0871,0 -0.13124,0 -0.10442,0 -0.20955,0 -0.31538,-0.01 -0.0363,-4e-4 -0.072,0 -0.1083,0 -0.0342,-4e-4 -0.0692,7e-4 -0.10337,7e-4 -0.27763,7e-4 -0.55986,0.01 -0.84737,0.018 -0.0176,3e-4 -0.0353,0 -0.0529,0 -0.29845,0.012 -0.60148,0.027 -0.90946,0.046 -0.27305,0.016 -0.53375,0.024 -0.7881,0.028 -0.0427,7e-4 -0.0861,0 -0.12806,0 -0.0325,3e-4 -0.0663,0 -0.0984,0 -0.19508,0 -0.38135,-0.01 -0.56515,-0.014 -0.0332,0 -0.0688,-7e-4 -0.1016,0 -0.23847,-0.012 -0.46637,-0.031 -0.6858,-0.056 -0.0674,-0.01 -0.12982,-0.019 -0.19579,-0.028 -0.14852,-0.021 -0.29492,-0.042 -0.43462,-0.07 -0.0762,-0.014 -0.14852,-0.032 -0.22154,-0.048 -0.12207,-0.028 -0.24166,-0.057 -0.35631,-0.09 -0.0723,-0.02 -0.14252,-0.043 -0.21167,-0.065 -0.10936,-0.036 -0.21413,-0.075 -0.31644,-0.1164 -0.0632,-0.026 -0.127,-0.051 -0.18768,-0.078 -0.10442,-0.048 -0.20249,-0.1 -0.29915,-0.1534 -0.049,-0.027 -0.10054,-0.052 -0.14746,-0.081 -0.13265,-0.081 -0.25788,-0.1679 -0.37465,-0.2617 -0.005,0 -0.0113,-0.01 -0.0166,-0.012 -0.003,0 -0.007,0 -0.0109,-0.01 -0.037,-0.028 -0.0769,-0.051 -0.11924,-0.067 -0.0159,-0.01 -0.0328,-0.01 -0.049,-0.01 -0.0314,-0.01 -0.0624,-0.015 -0.0945,-0.016 -0.0289,-7e-4 -0.0575,0 -0.0864,0.01 -0.0152,0 -0.0307,0 -0.0455,0.01 -0.0402,0.011 -0.079,0.028 -0.11571,0.051 -0.003,0 -0.007,0 -0.01,0 -0.1651,0.1058 -0.24307,0.3058 -0.19368,0.4956 0.0258,0.098 0.0476,0.1997 0.0723,0.2985 0.29104,0.1968 2.54494,1.6284 6.11258,1.3585 4.64503,-0.3528 5.46453,2.3192 5.49734,2.4335 0.0716,0.2497 -0.073,0.5108 -0.32315,0.5824 -0.0434,0.013 -0.0871,0.019 -0.13017,0.019 -0.20497,0 -0.39335,-0.1348 -0.45297,-0.3415 -0.0243,-0.079 -0.68404,-2.0433 -4.51944,-1.7536 -2.78623,0.213 -4.81435,-0.5147 -5.89315,-1.0489 0.0459,0.21 0.0917,0.416 0.13864,0.6322 0.64806,3.0025 1.31833,6.1073 3.70382,8.2236 0.0176,0.016 0.036,0.029 0.054,0.045 0.15099,0.1319 0.30374,0.2579 0.45897,0.375 0.0639,0.048 0.12911,0.089 0.19332,0.1347 0.11148,0.079 0.22295,0.1584 0.33584,0.2294 0.0748,0.047 0.15029,0.087 0.22578,0.1312 0.10513,0.061 0.21026,0.1217 0.31644,0.176 0.0797,0.041 0.16016,0.076 0.24024,0.1126 0.10407,0.048 0.20814,0.095 0.31327,0.1365 0.0822,0.032 0.1651,0.061 0.248,0.089 0.10443,0.036 0.2092,0.071 0.31433,0.1009 0.084,0.024 0.16827,0.044 0.25259,0.065 0.10583,0.025 0.21202,0.047 0.3182,0.066 0.0843,0.015 0.16898,0.028 0.25365,0.039 0.1076,0.014 0.21555,0.024 0.32385,0.031 0.084,0.01 0.16792,0.011 0.25188,0.013 0.16581,0 0.33161,0 0.49777,-0.01 0.22754,-0.016 0.45438,-0.047 0.68086,-0.091 0.38347,-0.075 0.76483,-0.1926 1.14195,-0.3471 -0.33726,-1.2058 -0.11889,-2.4395 0.64946,-3.5814"
         style="fill:#f4534e;fill-opacity:1;fill-rule:nonzero;stroke:none"
         id="path21258-8-7-2"
         inkscape:connector-curvature="0" />
    </g>
  </g>
</svg>
